<svg width="200" height="516" viewBox="0 0 200 516" fill="none" xmlns="http://www.w3.org/2000/svg">
<path fill-rule="evenodd" clip-rule="evenodd" d="M252.333 3.83186C308.999 -8.97502 379.546 11.1142 416.021 52.2379C453.76 94.7861 418.959 159.718 436.768 211.77C449.319 248.457 499.154 269.53 503.43 307.727C507.767 346.473 486.792 385.3 459.578 415.551C434.024 443.958 392.667 453.681 356.778 470.747C322.29 487.147 290.935 509.124 252.333 514.1C210.631 519.476 168.695 513.016 129.081 500.101C84.1776 485.462 30.7926 472.642 8.47737 434.599C-13.8678 396.504 14.872 350.798 16.2398 307.727C17.5612 266.119 -5.46018 221.646 16.4047 184.979C38.3134 148.24 94.8222 143.919 130.052 116.869C175.269 82.1507 194.713 16.8543 252.333 3.83186Z" fill="#B2F7EF" fill-opacity="0.43"/>
</svg>
