<svg id="illustration-builder" width="1000" height="880" viewBox="-10 -30 1070 940" version="1.1" xmlns="http://www.w3.org/2000/svg" xmlns:xlink="http://www.w3.org/1999/xlink" style="pointer-events: inherit;"><g transform="translate(0,0)">
<g><svg xmlns="http://www.w3.org/2000/svg" width="1000" height="880" viewBox="0 0 1000 880"><g id="Symbols--globalStyle1/communication/bg2" fill="none" fill-rule="evenodd" stroke="none" stroke-width="1"><g id="globalStyle1/communication/bg2--globalStyle1/communication/bg2"><path id="[color:background]background--globalStyle1/communication/bg2" fill="#dbf2ff" d="M5.68434189e-14,567 L1000,567 C960.032737,331.344356 872.007841,221.507671 735.925313,237.489947 C531.801521,261.46336 426.121792,480.996152 351.57901,480.996152 C277.036229,480.996152 266.214781,276.46462 155.204953,305.49061 C81.198401,324.84127 29.4634167,412.011067 5.68434189e-14,567 Z" opacity="1.00"></path><path id="shadow--globalStyle1/communication/bg2" fill="#000" fill-opacity=".08" d="M1000,567 C983.608539,537.882454 949.373151,523.32368 897.293838,523.32368 C819.174868,523.32368 749.430938,554.10858 706.077167,505.953223 C662.723396,457.797867 599.182325,463.333326 543.320954,505.953223 C487.459583,548.573121 473.868914,462.666494 381.335792,519.440458 C288.802669,576.214422 265.528362,483.920173 224.887979,483.920173 C184.247596,483.920173 205.455423,573.354678 142.615331,505.953223 C100.721936,461.01892 53.1834926,481.367846 5.68434189e-14,567 L1000,567 Z"></path></g></g></svg></g></g><g transform="translate(198,404)">
<g><svg xmlns="http://www.w3.org/2000/svg" width="123" height="285" viewBox="0 0 123 285"><g id="Symbols--globalStyle1/objects/party/3" fill="none" fill-rule="evenodd" stroke="none" stroke-width="1"><g id="globalStyle1/objects/party/3--globalStyle1/objects/party/3"><polygon id="[color:objects]music--globalStyle1/objects/party/3" fill="#b5cee1" fill-rule="nonzero" points="-0.139272714 280.015286 122.510623 280.015286 122.510623 81.5080956 -0.139272714 81.5080956" opacity="1.00"></polygon><path id="Fill-2--globalStyle1/objects/party/3" fill="#FEFEFE" d="M110.425069,216.402179 C110.425069,243.597244 88.3841988,265.645235 61.1835391,265.645235 C33.9920343,265.645235 11.9465865,243.597244 11.9465865,216.402179 C11.9465865,189.205588 33.9920343,167.160649 61.1835391,167.160649 C88.3841988,167.160649 110.425069,189.205588 110.425069,216.402179"></path><path id="Fill-6--globalStyle1/objects/party/3" fill="#FEFEFE" d="M90.2626774,124.954742 C90.2626774,141.012902 77.2429192,154.031643 61.1832339,154.031643 C45.1235486,154.031643 32.1088765,141.012902 32.1088765,124.954742 C32.1088765,108.8976 45.1235486,95.876316 61.1832339,95.876316 C77.2429192,95.876316 90.2626774,108.8976 90.2626774,124.954742"></path><path id="[color:objects]music--globalStyle1/objects/party/3" fill="#b5cee1" fill-rule="nonzero" d="M24.3434063,280.015286 L24.3434063,285.256452 L5.79206913,285.256452 L5.79206913,280.015286 L24.3434063,280.015286 Z M116.574195,280.015286 L116.574195,285.256452 L98.0330302,285.256452 L98.0330302,280.015286 L116.574195,280.015286 Z M61.1831831,185.437849 C78.2911016,185.437849 92.1510738,199.30189 92.1510738,216.402179 C92.1510738,233.503486 78.2911016,247.363967 61.1831831,247.363967 C44.0803506,247.363967 30.2254644,233.503486 30.2254644,216.402179 C30.2254644,199.30189 44.0803506,185.437849 61.1831831,185.437849 Z M61.1831831,109.9143 C69.4922494,109.9143 76.2246428,116.650762 76.2246428,124.954742 C76.2246428,133.257705 69.4922494,139.993659 61.1831831,139.993659 C52.8837802,139.993659 46.1417233,133.257705 46.1417233,124.954742 C46.1417233,116.650762 52.8837802,109.9143 61.1831831,109.9143 Z" opacity="1.00"></path><path id="shadow--globalStyle1/objects/party/3" fill="#000" fill-opacity=".3" d="M61.1780462,185.437849 C78.2859647,185.437849 92.1459369,199.30189 92.1459369,216.402179 C92.1459369,233.503486 78.2859647,247.363967 61.1780462,247.363967 C44.0752137,247.363967 30.2203275,233.503486 30.2203275,216.402179 C30.2203275,199.30189 44.0752137,185.437849 61.1780462,185.437849 Z M61.1780462,109.9143 C69.4871125,109.9143 76.2195059,116.650762 76.2195059,124.954742 C76.2195059,133.257705 69.4871125,139.993659 61.1780462,139.993659 C52.8786433,139.993659 46.1365864,133.257705 46.1365864,124.954742 C46.1365864,116.650762 52.8786433,109.9143 61.1780462,109.9143 Z"></path></g></g></svg></g></g><g transform="translate(662,404)">
<g><svg xmlns="http://www.w3.org/2000/svg" width="123" height="285" viewBox="0 0 123 285"><g id="Symbols--globalStyle1/objects/party/3" fill="none" fill-rule="evenodd" stroke="none" stroke-width="1"><g id="globalStyle1/objects/party/3--globalStyle1/objects/party/3"><polygon id="[color:objects]music--globalStyle1/objects/party/3" fill="#b5cee1" fill-rule="nonzero" points="-0.139272714 280.015286 122.510623 280.015286 122.510623 81.5080956 -0.139272714 81.5080956" opacity="1.00"></polygon><path id="Fill-2--globalStyle1/objects/party/3" fill="#FEFEFE" d="M110.425069,216.402179 C110.425069,243.597244 88.3841988,265.645235 61.1835391,265.645235 C33.9920343,265.645235 11.9465865,243.597244 11.9465865,216.402179 C11.9465865,189.205588 33.9920343,167.160649 61.1835391,167.160649 C88.3841988,167.160649 110.425069,189.205588 110.425069,216.402179"></path><path id="Fill-6--globalStyle1/objects/party/3" fill="#FEFEFE" d="M90.2626774,124.954742 C90.2626774,141.012902 77.2429192,154.031643 61.1832339,154.031643 C45.1235486,154.031643 32.1088765,141.012902 32.1088765,124.954742 C32.1088765,108.8976 45.1235486,95.876316 61.1832339,95.876316 C77.2429192,95.876316 90.2626774,108.8976 90.2626774,124.954742"></path><path id="[color:objects]music--globalStyle1/objects/party/3" fill="#b5cee1" fill-rule="nonzero" d="M24.3434063,280.015286 L24.3434063,285.256452 L5.79206913,285.256452 L5.79206913,280.015286 L24.3434063,280.015286 Z M116.574195,280.015286 L116.574195,285.256452 L98.0330302,285.256452 L98.0330302,280.015286 L116.574195,280.015286 Z M61.1831831,185.437849 C78.2911016,185.437849 92.1510738,199.30189 92.1510738,216.402179 C92.1510738,233.503486 78.2911016,247.363967 61.1831831,247.363967 C44.0803506,247.363967 30.2254644,233.503486 30.2254644,216.402179 C30.2254644,199.30189 44.0803506,185.437849 61.1831831,185.437849 Z M61.1831831,109.9143 C69.4922494,109.9143 76.2246428,116.650762 76.2246428,124.954742 C76.2246428,133.257705 69.4922494,139.993659 61.1831831,139.993659 C52.8837802,139.993659 46.1417233,133.257705 46.1417233,124.954742 C46.1417233,116.650762 52.8837802,109.9143 61.1831831,109.9143 Z" opacity="1.00"></path><path id="shadow--globalStyle1/objects/party/3" fill="#000" fill-opacity=".3" d="M61.1780462,185.437849 C78.2859647,185.437849 92.1459369,199.30189 92.1459369,216.402179 C92.1459369,233.503486 78.2859647,247.363967 61.1780462,247.363967 C44.0752137,247.363967 30.2203275,233.503486 30.2203275,216.402179 C30.2203275,199.30189 44.0752137,185.437849 61.1780462,185.437849 Z M61.1780462,109.9143 C69.4871125,109.9143 76.2195059,116.650762 76.2195059,124.954742 C76.2195059,133.257705 69.4871125,139.993659 61.1780462,139.993659 C52.8786433,139.993659 46.1365864,133.257705 46.1365864,124.954742 C46.1365864,116.650762 52.8786433,109.9143 61.1780462,109.9143 Z"></path></g></g></svg></g></g><g transform="translate(703,133)">
<g><svg xmlns="http://www.w3.org/2000/svg" width="274" height="463" viewBox="0 0 274 463"><g id="Symbols--globalStyle1/objects/tree/1" fill="none" fill-rule="evenodd" stroke="none" stroke-width="1"><g id="globalStyle1/objects/tree/1--globalStyle1/objects/tree/1" fill="#69816C"><path id="[color:tree]tree--globalStyle1/objects/tree/1" d="M225.295869,91.9714613 C206.296786,96.1231447 189.171377,104.848976 173.919642,118.148957 C159.720027,130.531456 152.56603,145.570493 152.457651,163.266068 L153.327459,163.266 L153.345832,163.145456 C157.465348,136.592368 166.369378,122.077584 180.057922,119.601106 C193.884734,117.099614 210.878646,122.963688 231.039656,137.19333 C216.250447,133.320769 201.141162,133.320769 185.711801,137.19333 C170.537332,141.001916 159.81173,149.692697 153.534996,163.265675 L154.064032,163.266159 L154.063897,245.536432 C161.025349,246.954884 168.640841,249.352694 176.910374,252.729859 C169.149876,252.503129 161.534305,253.272865 154.063661,255.039068 L154.063925,278.200683 C160.050909,283.441362 165.759847,291.215152 171.19074,301.522054 C166.017878,296.917495 160.30908,293.179848 154.064346,290.309113 L154.064032,463 L145.274183,463 L145.274614,286.949785 C143.421379,286.374824 141.527491,285.86562 139.59295,285.422176 C128.585053,282.898892 118.741007,284.617964 110.060812,290.579392 L110.060812,290.579392 L110.06044,462.961604 L103.18355,462.961604 L103.18355,290.027006 L103.597827,290.027442 C98.6871685,279.407922 90.2956836,272.608268 78.4233726,269.628479 C66.351946,266.598714 54.5309365,266.598714 42.9603441,269.628479 C58.7336578,258.495673 72.0291371,253.907814 82.8467821,255.8649 C93.5562506,257.802415 100.522472,269.158306 103.745446,289.932572 L103.745446,289.932572 L103.760374,290.026964 L104.440331,290.027191 C104.355606,276.182642 98.7585529,264.416507 87.6491711,254.728785 C75.7167135,244.323317 62.3183546,237.496512 47.4540944,234.248371 C71.7614945,230.739365 89.4806264,233.217652 100.61149,241.683231 C106.641811,246.269593 109.772674,253.405443 110.00342,263.090954 C112.701601,255.136277 117.211569,249.800604 123.533324,247.083935 C129.656893,244.452434 136.90354,243.502626 145.273266,244.234511 L145.273775,163.97225 C134.178975,156.352482 121.596567,154.155196 107.526551,157.380393 C92.0207834,160.9347 78.5583118,167.794172 67.1391358,177.958809 C78.6426053,156.127198 91.1220571,143.187195 104.577491,139.1388 C117.367392,135.290647 131.265602,143.333049 146.272121,163.266006 L146.627657,163.266312 C141.698983,148.050996 131.493599,136.483846 116.011503,128.564863 C97.995253,119.349678 79.2675719,115.026052 59.8284594,115.593985 C88.8895708,103.725818 111.631257,101.32033 128.053517,108.377522 C136.133956,111.849955 141.898534,118.670049 145.347252,128.837803 C145.641849,116.457835 149.643636,107.336761 157.351567,101.474493 C171.578727,90.6540254 194.226828,87.4863482 225.295869,91.9714613 Z M145.273309,257.600341 C141.120893,259.04199 137.014657,260.801159 132.954602,262.877849 C120.841856,269.073433 112.857478,278.123252 109.001468,290.027305 L109.001468,290.027305 L109.279409,290.027254 C121.020123,274.432093 131.893719,268.139859 141.900198,271.150551 C143.033681,271.491587 144.158313,271.913274 145.274091,272.41561 Z M106.993042,284.416672 C106.510546,286.236193 105.970327,288.106468 105.372387,290.027497 L105.372387,290.027497 L107.083646,290.027219 C107.012907,288.164156 106.982136,286.35887 106.991335,284.611362 L106.991335,284.611362 Z M149.194036,156.092135 L149.197027,156.344033 C149.208784,158.577455 149.169462,160.884714 149.079061,163.265808 L151.266177,163.266326 C150.50163,160.810007 149.810916,158.41861 149.194036,156.092135 Z" fill="#69816c" opacity="1.00"></path></g></g></svg></g></g><g transform="translate(3,148.5)">
<g transform="translate(274,0) scale(-1, 1)">
<g><svg xmlns="http://www.w3.org/2000/svg" width="274" height="463" viewBox="0 0 274 463"><g id="Symbols--globalStyle1/objects/tree/1" fill="none" fill-rule="evenodd" stroke="none" stroke-width="1"><g id="globalStyle1/objects/tree/1--globalStyle1/objects/tree/1" fill="#69816C"><path id="[color:tree]tree--globalStyle1/objects/tree/1" d="M225.295869,91.9714613 C206.296786,96.1231447 189.171377,104.848976 173.919642,118.148957 C159.720027,130.531456 152.56603,145.570493 152.457651,163.266068 L153.327459,163.266 L153.345832,163.145456 C157.465348,136.592368 166.369378,122.077584 180.057922,119.601106 C193.884734,117.099614 210.878646,122.963688 231.039656,137.19333 C216.250447,133.320769 201.141162,133.320769 185.711801,137.19333 C170.537332,141.001916 159.81173,149.692697 153.534996,163.265675 L154.064032,163.266159 L154.063897,245.536432 C161.025349,246.954884 168.640841,249.352694 176.910374,252.729859 C169.149876,252.503129 161.534305,253.272865 154.063661,255.039068 L154.063925,278.200683 C160.050909,283.441362 165.759847,291.215152 171.19074,301.522054 C166.017878,296.917495 160.30908,293.179848 154.064346,290.309113 L154.064032,463 L145.274183,463 L145.274614,286.949785 C143.421379,286.374824 141.527491,285.86562 139.59295,285.422176 C128.585053,282.898892 118.741007,284.617964 110.060812,290.579392 L110.060812,290.579392 L110.06044,462.961604 L103.18355,462.961604 L103.18355,290.027006 L103.597827,290.027442 C98.6871685,279.407922 90.2956836,272.608268 78.4233726,269.628479 C66.351946,266.598714 54.5309365,266.598714 42.9603441,269.628479 C58.7336578,258.495673 72.0291371,253.907814 82.8467821,255.8649 C93.5562506,257.802415 100.522472,269.158306 103.745446,289.932572 L103.745446,289.932572 L103.760374,290.026964 L104.440331,290.027191 C104.355606,276.182642 98.7585529,264.416507 87.6491711,254.728785 C75.7167135,244.323317 62.3183546,237.496512 47.4540944,234.248371 C71.7614945,230.739365 89.4806264,233.217652 100.61149,241.683231 C106.641811,246.269593 109.772674,253.405443 110.00342,263.090954 C112.701601,255.136277 117.211569,249.800604 123.533324,247.083935 C129.656893,244.452434 136.90354,243.502626 145.273266,244.234511 L145.273775,163.97225 C134.178975,156.352482 121.596567,154.155196 107.526551,157.380393 C92.0207834,160.9347 78.5583118,167.794172 67.1391358,177.958809 C78.6426053,156.127198 91.1220571,143.187195 104.577491,139.1388 C117.367392,135.290647 131.265602,143.333049 146.272121,163.266006 L146.627657,163.266312 C141.698983,148.050996 131.493599,136.483846 116.011503,128.564863 C97.995253,119.349678 79.2675719,115.026052 59.8284594,115.593985 C88.8895708,103.725818 111.631257,101.32033 128.053517,108.377522 C136.133956,111.849955 141.898534,118.670049 145.347252,128.837803 C145.641849,116.457835 149.643636,107.336761 157.351567,101.474493 C171.578727,90.6540254 194.226828,87.4863482 225.295869,91.9714613 Z M145.273309,257.600341 C141.120893,259.04199 137.014657,260.801159 132.954602,262.877849 C120.841856,269.073433 112.857478,278.123252 109.001468,290.027305 L109.001468,290.027305 L109.279409,290.027254 C121.020123,274.432093 131.893719,268.139859 141.900198,271.150551 C143.033681,271.491587 144.158313,271.913274 145.274091,272.41561 Z M106.993042,284.416672 C106.510546,286.236193 105.970327,288.106468 105.372387,290.027497 L105.372387,290.027497 L107.083646,290.027219 C107.012907,288.164156 106.982136,286.35887 106.991335,284.611362 L106.991335,284.611362 Z M149.194036,156.092135 L149.197027,156.344033 C149.208784,158.577455 149.169462,160.884714 149.079061,163.265808 L151.266177,163.266326 C150.50163,160.810007 149.810916,158.41861 149.194036,156.092135 Z" fill="#69816c" opacity="1.00"></path></g></g></svg></g>
</g></g><g transform="translate(215,364.5)">
<g transform="translate(24.5,177.0000000000018)">

<g><svg xmlns="http://www.w3.org/2000/svg" width="251" height="250" viewBox="0 0 251 250"><g id="Symbols--globalStyle1/people/woman/bottom/2" fill="none" fill-rule="evenodd" stroke="none" stroke-width="1"><g id="globalStyle1/people/woman/bottom/2--globalStyle1/people/woman/bottom/2"><path id="[skin]leg---globalStyle1/people/woman/bottom/2" fill="#f0a19e" d="M177.4827,40.2253 L163.4602,137.1933 L163.459955,137.234699 C163.414535,138.90739 162.912683,140.466485 162.074376,141.791771 L138.8772,240.8697 L132.5662,244.2667 L132.5662,237.5077 C132.5662,237.5077 145.1042,144.7187 145.3272,136.6977 L145.461358,136.710712 C145.472978,136.322029 145.509248,135.93951 145.56866,135.56467 L136.0717,43.3843 L177.4827,40.2253 Z" opacity="1.00"></path><path id="shadow--globalStyle1/people/woman/bottom/2" fill="#000" fill-opacity=".04" d="M162.8862,138.3247 L138.8772,240.8697 L132.5662,244.2667 L132.5662,237.5077 C132.5662,237.5077 145.1042,144.7187 145.3272,136.6977 L162.8862,138.3247 Z"></path><path id="[skin]leg---globalStyle1/people/woman/bottom/2" fill="#f0a19e" d="M108.2612,40.8589 L154.7202,43.4179 L136.815439,136.81706 C136.719594,138.546477 136.171417,140.155565 135.287124,141.527757 L83.2472,240.0952 C79.7912,238.0422 78.2552,237.1252 77.8652,237.1802 C77.8652,237.1802 89.0652,208.4662 117.8032,133.4692 L117.8032,133.4692 L108.2612,40.8589 Z" opacity="1.00"></path><path id="Fill-10--globalStyle1/people/woman/bottom/2" fill="#E9E9E9" d="M131.9565,222.314 L131.9565,247.78 L158.7155,247.762 C158.6365,246.124 158.4795,245.194 155.2955,245.132 C150.5185,245.039 138.9995,245.559 138.9955,240.999 C138.9955,240.025 140.8755,234.268 143.3695,223.651 L131.9565,222.314 Z"></path><path id="shadow--globalStyle1/people/woman/bottom/2" fill="#000" fill-opacity=".04" d="M131.9565,222.314 L131.9565,247.78 L158.7155,247.762 C158.6365,246.124 158.4795,245.194 155.2955,245.132 C150.5185,245.039 138.9995,245.559 138.9955,240.999 C138.9955,240.025 140.8755,234.268 143.3695,223.651 L131.9565,222.314 Z"></path><path id="[clothes]shoes--globalStyle1/people/woman/bottom/2" fill="#fea770" d="M131.9565,249.5923 L158.7155,249.5923 L158.7155,247.7073 C158.7155,247.7073 149.4775,247.6923 131.9565,247.7073 L131.9565,249.5923 Z" opacity="1.00"></path><path id="Fill-17--globalStyle1/people/woman/bottom/2" fill="#E9E9E9" d="M84.1752,220.9087 C77.6442,236.7497 74.7942,245.3987 75.6472,245.8887 C76.5172,246.3897 82.8112,247.3197 84.6022,247.6707 C86.2792,247.9977 94.2072,248.8487 98.6482,247.7577 C98.6482,247.7577 98.9842,244.2117 97.9212,243.9317 C96.3282,243.5127 91.1672,243.6297 89.0292,243.4337 C86.5702,243.2097 82.1052,239.9347 83.2472,240.5937 C83.2472,240.5937 88.3242,234.2847 95.1382,222.6637 L84.1752,220.9087 Z"></path><polygon id="[clothes]skirt--globalStyle1/people/woman/bottom/2" fill="#fea770" points="76.0659 199.2681 101.9209 138.4131 104.4049 14.0001 179.6289 14.0001 172.9009 211.2751 124.4589 211.2751" opacity="1.00"></polygon><path id="Fill-22--globalStyle1/people/woman/bottom/2" fill="#F3F3F3" d="M102.5825,105.2768 C102.5825,105.2768 102.7515,105.2298 102.8365,105.2058 C103.9945,104.8658 105.1015,104.3758 106.0795,103.7498 C109.4435,101.5968 111.8605,99.4648 116.9975,94.4358 L117.0765,94.3578 C118.8805,92.5908 120.3065,91.2208 121.5535,90.0798 C115.4325,91.3818 109.3175,92.2818 103.4295,92.7138 C103.2645,92.7258 102.8325,92.7508 102.8325,92.7508 L102.8645,91.1448 C102.8645,91.1448 103.2135,91.1208 103.3875,91.1078 C110.0925,90.6118 117.1035,89.5048 124.0795,87.8788 C124.9485,87.1658 125.7975,86.5218 126.7245,85.8638 C130.7925,82.9738 134.2935,80.9108 142.1085,76.5958 L142.2545,76.5158 C145.8605,74.5248 148.6855,72.9328 151.0575,71.5218 C148.3385,71.3598 145.4945,71.0798 142.5275,70.6888 C129.8055,69.0138 118.3645,62.2558 112.3085,52.3728 C110.7175,49.7758 109.6825,47.5928 107.5435,42.6308 L107.5195,42.5768 C106.0295,39.1168 105.1595,37.1948 104.2035,35.4008 C104.1315,35.2648 103.9855,34.9968 103.9855,34.9968 L104.0545,31.5968 C104.0545,31.5968 104.3135,32.1508 104.4145,32.3488 C104.6035,32.7198 104.7645,33.0218 104.9285,33.3088 C106.2645,35.6438 107.1765,37.6028 109.0575,41.9678 L109.0805,42.0228 C111.1885,46.9178 112.2025,49.0548 113.7415,51.5658 C119.5285,61.0078 130.5165,67.5008 142.7545,69.1118 C146.5435,69.6098 150.1195,69.9258 153.4785,70.0448 C156.0705,68.4178 158.1505,66.9458 160.3535,65.2088 C172.9495,55.2658 178.4555,48.4238 178.4555,48.4238 L178.3465,51.6478 C178.3465,51.6478 170.8325,59.0008 161.4095,66.4368 C159.7455,67.7508 158.1525,68.9138 156.3715,70.0978 C164.5475,70.1038 171.3335,68.8258 176.6945,66.0438 C177.0975,65.8348 177.8775,65.3908 177.8775,65.3908 L177.8125,67.2998 C177.8125,67.2998 177.1865,67.6268 176.8655,67.7828 C170.8205,70.7228 163.1535,71.9208 153.9505,71.6508 C151.1585,73.3828 147.7755,75.3058 143.0835,77.8958 L142.9385,77.9758 C135.4105,82.1308 131.9265,84.1778 128.0725,86.8898 C129.7015,86.4628 131.3255,86.0078 132.9395,85.5278 C136.2075,84.5538 139.2035,83.4648 144.1275,81.5358 C157.1585,76.4268 161.4125,75.1118 167.8875,75.0228 C170.7435,74.9838 173.4935,75.3588 176.1735,76.1888 C176.6145,76.3258 177.4935,76.6358 177.4935,76.6358 L177.4365,78.3278 C177.4365,78.3278 176.2525,77.8858 175.6555,77.7018 C173.1485,76.9268 170.5815,76.5788 167.9115,76.6158 C161.7305,76.7008 157.5715,77.9858 144.7565,83.0088 C139.7915,84.9558 136.7595,86.0578 133.4335,87.0478 C130.5975,87.8928 127.7315,88.6578 124.8595,89.3368 C123.0995,90.8038 121.1885,92.6088 118.2645,95.4718 L118.1855,95.5488 C112.9695,100.6568 110.4945,102.8398 107.0025,105.0738 C105.7505,105.8748 104.3205,106.4798 102.8295,106.8638 C102.7365,106.8878 102.5495,106.9328 102.5495,106.9328 L102.5825,105.2768 Z M175.6625,130.2838 C175.6625,130.2838 175.5065,130.3988 175.4275,130.4568 C174.7125,130.9778 173.9565,131.5248 173.1455,132.1088 C172.5925,132.5078 171.4365,133.3358 170.2935,134.1538 C171.6845,135.2358 172.6005,136.3348 173.1655,137.5088 C174.5255,140.3368 173.6415,143.4568 170.6205,147.5478 C170.0885,148.2688 169.5385,148.9728 168.9135,149.7228 C170.9075,149.7968 172.6385,149.8918 174.4505,150.0258 C174.6295,150.0398 174.9875,150.0668 174.9875,150.0668 L174.9345,151.6608 C174.9345,151.6608 174.6535,151.6388 174.5155,151.6288 C172.2805,151.4608 170.1865,151.3528 167.5755,151.2718 C165.4955,153.6038 162.5495,156.6108 157.5175,161.6428 C156.5315,162.6298 154.8675,161.7588 154.1345,160.6198 C152.1015,157.4598 150.4235,153.9468 149.2675,150.4448 C147.4875,152.1098 145.9175,153.7388 144.4425,155.4368 C138.0325,162.8208 135.3565,170.0018 136.7735,177.6398 C138.4755,186.8088 141.6175,191.1638 149.0575,191.9708 C155.4235,192.6618 165.0245,190.5378 173.7185,187.3098 L173.6505,189.2668 C164.9365,192.4188 155.3205,194.2538 148.8695,193.5528 C140.5215,192.6478 136.9525,187.7018 135.1375,177.9198 C133.6245,169.7618 136.4675,162.1338 143.1645,154.4198 C144.6495,152.7088 146.2245,151.0718 147.9985,149.4048 C146.6705,148.6948 145.2115,147.6818 143.2545,146.2118 C142.9605,145.9908 142.8165,145.8818 142.6675,145.7708 C141.7615,145.0908 141.1475,144.6478 140.5245,144.2268 C138.9925,143.1968 134.4525,136.5878 131.9065,131.4678 C130.3365,128.3138 129.4785,125.7388 129.5285,123.9468 C129.5995,121.4948 131.3785,120.4808 134.3975,121.2998 C143.4595,123.7588 150.5295,125.8108 156.0185,127.6488 C157.5255,127.1168 159.2355,126.7688 161.1515,126.6178 L161.2885,128.2048 C160.3635,128.2778 159.4935,128.3988 158.6785,128.5678 C163.2695,130.2058 166.5645,131.6888 168.8905,133.1708 C170.1565,132.2638 171.5285,131.2818 172.1465,130.8368 C173.2925,130.0108 174.3265,129.2598 175.2905,128.5518 C175.4395,128.4428 175.7325,128.2258 175.7325,128.2258 L175.6625,130.2838 Z M133.9445,122.8328 C131.8985,122.2768 131.2285,122.6588 131.1905,123.9908 C131.1485,125.4588 131.9435,127.8418 133.4065,130.7828 C135.8355,135.6638 140.2565,142.0998 141.4795,142.9238 C142.1325,143.3638 142.7655,143.8218 143.6915,144.5158 C143.8425,144.6298 143.9865,144.7378 144.2805,144.9588 C146.0245,146.2688 147.3405,147.1898 148.5055,147.8428 C147.8105,145.1198 147.4625,142.4578 147.5425,140.0328 C147.7145,134.8038 149.7925,130.8578 153.8375,128.6208 C148.6525,126.9368 142.1205,125.0498 133.9445,122.8328 L133.9445,122.8328 Z M149.2675,150.4448 C149.8095,149.9368 150.3705,149.4258 150.9545,148.9088 C150.1455,148.6658 149.3665,148.3278 148.5055,147.8428 C148.7255,148.7068 148.9795,149.5748 149.2675,150.4448 L149.2675,150.4448 Z M155.5495,159.7838 C155.6765,159.9808 155.9615,160.2348 156.2295,160.3758 C156.3715,160.4488 156.3945,160.4588 156.3425,160.5148 C160.0855,156.7718 163.0565,153.7298 165.3625,151.2128 C163.6205,151.1718 161.6335,151.1358 159.2655,151.0998 C154.5675,151.0288 152.8065,150.9578 151.6675,150.7288 C151.4635,150.6878 151.2635,150.6438 151.0665,150.5948 C152.1695,153.7578 153.7085,156.9218 155.5495,159.7838 L155.5495,159.7838 Z M152.0085,149.1708 C152.9895,149.3678 154.7635,149.4388 159.2915,149.5068 C162.3015,149.5528 164.6975,149.5968 166.7635,149.6548 C172.0545,143.6458 172.9835,140.9358 171.6555,138.1758 C171.1555,137.1378 170.2815,136.1428 168.9135,135.1408 C167.9525,135.8288 167.2265,136.3478 167.2415,136.3378 C160.0535,141.4878 154.9705,145.3508 150.9545,148.9088 C151.2975,149.0118 151.6455,149.0978 152.0085,149.1708 L152.0085,149.1708 Z M156.0375,129.3508 C151.5785,131.1438 149.3755,134.8428 149.2035,140.0828 C149.1285,142.3628 149.4605,144.8838 150.1225,147.4758 C154.1415,143.9478 159.1905,140.1178 166.2455,135.0618 C166.2335,135.0708 166.7395,134.7088 167.4685,134.1878 C164.9565,132.6838 161.2745,131.1278 156.0375,129.3508 L156.0375,129.3508 Z"></path><polygon id="[clothes]shues--globalStyle1/people/woman/bottom/2" fill="#fea770" points="75.5073 245.6577 84.6023 247.6707 98.6773 247.7577 98.6773 249.0777 84.6023 249.1017 75.5243 247.3557" opacity="1.00"></polygon></g></g></svg></g>
</g>
<g transform="translate(105.5,30)">

<g><svg xmlns="http://www.w3.org/2000/svg" width="120" height="150" viewBox="0 0 120 150"><g id="Symbols--globalStyle1/people/woman/head/8" fill="none" fill-rule="evenodd" stroke="none" stroke-width="1"><g id="globalStyle1/people/woman/head/8--globalStyle1/people/woman/head/8"><path id="[hair]hair--globalStyle1/people/woman/head/8" fill="#ff93d4" d="M94.0540717,79.6463918 C87.1176963,124.672304 67.5098558,145.292691 55.2034762,131.518032 C54.8966675,131.174617 43.1261951,108.246693 52.3489613,64.5646643 C57.6947611,39.2452125 62.6664326,28.7346159 79.0682835,28.7346159 C96.0633366,28.7346159 96.0633366,66.6037025 94.0540717,79.6463918 Z" opacity="1.00"></path><path id="shadow--globalStyle1/people/woman/head/8" fill="#000" fill-opacity=".2" d="M94.0540717,79.6463918 C87.1176963,124.672304 67.5098558,145.292691 55.2034762,131.518032 C54.8966675,131.174617 43.1261951,108.246693 52.3489613,64.5646643 C57.6947611,39.2452125 62.6664326,28.7346159 79.0682835,28.7346159 C96.0633366,28.7346159 96.0633366,66.6037025 94.0540717,79.6463918 Z"></path><g id="Group--globalStyle1/people/woman/head/8" transform="translate(35.216 19.964)"><polygon id="[skin]neck--globalStyle1/people/woman/head/8" fill="#f0a19e" points="5.57059381 71.1663914 39.598495 20.4386873 48.9854646 31.9638476 31.3316378 76.6420703" transform="rotate(-12 27.278 48.54)" opacity="1.00"></polygon><polygon id="shadow--globalStyle1/people/woman/head/8" fill="#000" fill-opacity=".04" points="5.57059381 71.1663914 39.598495 20.4386873 48.9854646 31.9638476 31.3316378 76.6420703" transform="rotate(-12 27.278 48.54)"></polygon><ellipse id="[skin]face--globalStyle1/people/woman/head/8" cx="45.328" cy="19.336" fill="#f0a19e" rx="10.236" ry="17.511" transform="rotate(-12 45.328 19.336)" opacity="1.00"></ellipse><path id="smile--globalStyle1/people/woman/head/8" fill="#FFF" fill-rule="nonzero" d="M50.6623358,30.3469927 C51.3403309,30.3466344 52.7288499,29.8862396 52.7297211,28.2396809 C52.7297211,28.2396809 48.5971791,28.2418639 48.5971791,28.2418639 C48.5963727,29.766537 49.9843407,30.3473507 50.6623358,30.3469927 Z" transform="rotate(4 50.663 29.293)"></path></g><path id="[hair]hair--globalStyle1/people/woman/head/8" fill="#ff93d4" d="M48.8269456,108.189973 C46.4339456,141.080573 14.6487474,178.25258 7.79465594,117.67372 C4.79837481,91.1915385 21.4614205,75.1463918 36.9734762,53.1463918 C45.7378733,40.7162703 49.2556389,32.463705 53.2496389,25.0608613 C59.5546389,13.3734679 69.0176389,5.8196268 88.1016389,19.4232958 C93.3146389,23.1386253 90.5826389,26.2062557 79.9056389,28.6251935 C79.5616389,30.1907976 76.4096394,30.5341987 74.5508546,36.258276 C74.2253771,36.7641865 69.3434196,50.6731706 59.9107807,64.8336977 C49.0932933,81.0731959 49.0932933,104.525519 48.8269456,108.189973 Z" opacity="1.00"></path><path id="hat--globalStyle1/people/woman/head/8" fill="#294B67" d="M60.5413837,11.4743986 C65.9721978,9.56316665 76.13474,8.61937254 80.543423,10.4360459 C84.2173256,11.9499404 85.2843428,14.5072216 83.7444749,18.1078896 C76.6815546,24.6581072 71.4887324,28.871669 68.1660083,30.748575 C63.1819221,33.5639339 51.0726883,36.5032929 49.0546542,30.748575 C47.0366201,24.993857 54.5073084,15.9148094 57.5193094,13.0612012 C57.6122453,12.9731526 57.7161193,12.8858763 57.8303301,12.7994752 C57.2115275,11.6304118 57.037118,10.3180968 58.4646984,10.3180968 C59.4102396,10.3180968 60.0703903,10.842173 60.489836,11.4936802 Z"></path><path id="shadow--globalStyle1/people/woman/head/8" fill="#000" fill-opacity=".2" d="M61.0617107,13.3756638 C61.0617107,12.3338722 60.3041426,10.3284933 58.454527,10.3284933 C56.6049114,10.3284933 57.4444866,12.5314196 58.454527,13.770908 C59.4645675,15.0103965 61.0617107,14.4174553 61.0617107,13.3756638 Z"></path></g></g></svg></g>
</g>
<g transform="translate(118.5,97)">

<g><svg xmlns="http://www.w3.org/2000/svg" width="193" height="178" viewBox="0 0 193 178"><g id="Symbols--globalStyle1/people/woman/top/5" fill="none" fill-rule="evenodd" stroke="none" stroke-width="1"><g id="globalStyle1/people/woman/top/5--globalStyle1/people/woman/top/5"><path id="[skin]hand--globalStyle1/people/woman/top/5" fill="#f0a19e" d="M88.7970472,27.0902324 C89.217937,31.9431782 90.3995272,76.0987729 90.7113917,89.5548537 C99.3710124,91.6418072 114.386432,95.7730084 137.33411,101.604404 L137.062023,101.535232 L144.281859,99.8209865 L150.215869,97.8121828 L156.968021,98.8010242 C157.5025,98.893383 157.450744,99.194553 157.368134,99.2256739 C155.640284,99.8641542 154.165241,99.996669 152.144771,99.695499 C150.465691,100.947362 148.6194,100.561865 149.740113,102.139995 C149.871494,102.324713 153.323213,102.457228 156.662462,101.794654 C157.137223,101.701291 159.477186,101.406145 159.763834,101.35093 C161.41405,101.038717 161.652924,100.906202 162.768661,100.498619 C163.111046,100.374135 163.589788,100.371124 164.205882,100.490588 C164.294464,100.50665 164.376079,100.540783 164.438784,100.586962 C164.610971,100.713454 164.605995,100.899175 164.427835,101.000569 C164.027722,101.231466 163.581826,101.464371 163.088154,101.703299 C162.368548,102.049644 160.020623,102.824655 157.943421,103.277414 C156.536059,103.585611 154.79527,103.981148 154.610143,104.087561 C154.32449,104.250193 157.179026,103.852649 159.492116,103.722142 C161.80421,103.592639 163.002558,102.460239 164.926483,101.687236 C165.191234,101.579819 165.721732,101.531632 166.518972,101.538659 C166.560775,101.538659 166.961883,101.635034 166.898183,101.849868 C166.835479,102.064703 164.779178,103.453096 163.541018,104.070495 C161.47775,105.099492 160.993036,105.127602 159.8982,105.254093 C158.534632,105.409697 156.123007,105.78114 155.470087,105.911647 C154.816171,106.042154 158.610275,106.092349 161.304567,105.584376 C161.72359,105.505068 162.556661,105.236023 162.94284,105.11957 C164.10038,104.768205 165.478878,103.865699 166.093976,104.007249 C166.183554,104.028331 166.268155,104.058448 166.342803,104.0976 C166.692155,104.278302 166.774765,104.597542 166.52793,104.811373 C165.889939,105.364522 164.864774,105.935741 163.450445,106.526034 C163.118013,106.665576 161.796248,107.174554 161.28267,107.25085 C159.111909,107.573102 156.33003,107.543989 156.110068,107.682527 C155.890106,107.820061 157.5025,107.674496 159.482163,107.610246 C159.934031,107.596192 161.740511,107.366298 162.083891,107.347224 C162.536755,107.321123 162.841318,107.236795 163.607704,107.119339 C165.138483,106.883423 165.418164,107.434564 164.679647,107.900373 C163.93914,108.367187 157.24173,109.579898 154.202068,109.750561 C152.535926,109.844927 149.274311,110.309733 145.059192,109.964391 L136.559023,108.595232 C107.685983,109.123333 86.3264706,109.453275 78.5770008,104.673177 L78.3835009,104.550476 C77.3709494,103.990217 76.4942251,103.244806 75.8580771,102.382727 C75.7762208,102.271778 75.6949456,102.152352 75.6142481,102.02467 C74.670135,100.771054 74.1380534,99.4068281 73.9507798,98.0364976 C69.2228606,82.670984 66.8487972,38.9761883 65.9050231,28.0941324 C65.9050231,28.0941324 80.5897589,27.8150482 88.7970472,27.0902324 Z" transform="rotate(-10 116.405 68.59)" opacity="1.00"></path><path id="shadow--globalStyle1/people/woman/top/5" fill="#000" fill-opacity=".04" d="M88.7970472,27.0902324 C89.217937,31.9431782 90.3995272,76.0987729 90.7113917,89.5548537 C99.3710124,91.6418072 114.386432,95.7730084 137.33411,101.604404 L137.062023,101.535232 L144.281859,99.8209865 L150.215869,97.8121828 L156.968021,98.8010242 C157.5025,98.893383 157.450744,99.194553 157.368134,99.2256739 C155.640284,99.8641542 154.165241,99.996669 152.144771,99.695499 C150.465691,100.947362 148.6194,100.561865 149.740113,102.139995 C149.871494,102.324713 153.323213,102.457228 156.662462,101.794654 C157.137223,101.701291 159.477186,101.406145 159.763834,101.35093 C161.41405,101.038717 161.652924,100.906202 162.768661,100.498619 C163.111046,100.374135 163.589788,100.371124 164.205882,100.490588 C164.294464,100.50665 164.376079,100.540783 164.438784,100.586962 C164.610971,100.713454 164.605995,100.899175 164.427835,101.000569 C164.027722,101.231466 163.581826,101.464371 163.088154,101.703299 C162.368548,102.049644 160.020623,102.824655 157.943421,103.277414 C156.536059,103.585611 154.79527,103.981148 154.610143,104.087561 C154.32449,104.250193 157.179026,103.852649 159.492116,103.722142 C161.80421,103.592639 163.002558,102.460239 164.926483,101.687236 C165.191234,101.579819 165.721732,101.531632 166.518972,101.538659 C166.560775,101.538659 166.961883,101.635034 166.898183,101.849868 C166.835479,102.064703 164.779178,103.453096 163.541018,104.070495 C161.47775,105.099492 160.993036,105.127602 159.8982,105.254093 C158.534632,105.409697 156.123007,105.78114 155.470087,105.911647 C154.816171,106.042154 158.610275,106.092349 161.304567,105.584376 C161.72359,105.505068 162.556661,105.236023 162.94284,105.11957 C164.10038,104.768205 165.478878,103.865699 166.093976,104.007249 C166.183554,104.028331 166.268155,104.058448 166.342803,104.0976 C166.692155,104.278302 166.774765,104.597542 166.52793,104.811373 C165.889939,105.364522 164.864774,105.935741 163.450445,106.526034 C163.118013,106.665576 161.796248,107.174554 161.28267,107.25085 C159.111909,107.573102 156.33003,107.543989 156.110068,107.682527 C155.890106,107.820061 157.5025,107.674496 159.482163,107.610246 C159.934031,107.596192 161.740511,107.366298 162.083891,107.347224 C162.536755,107.321123 162.841318,107.236795 163.607704,107.119339 C165.138483,106.883423 165.418164,107.434564 164.679647,107.900373 C163.93914,108.367187 157.24173,109.579898 154.202068,109.750561 C152.535926,109.844927 149.274311,110.309733 145.059192,109.964391 L136.559023,108.595232 C107.685983,109.123333 86.3264706,109.453275 78.5770008,104.673177 L78.3835009,104.550476 C77.3709494,103.990217 76.4942251,103.244806 75.8580771,102.382727 C75.7762208,102.271778 75.6949456,102.152352 75.6142481,102.02467 C74.670135,100.771054 74.1380534,99.4068281 73.9507798,98.0364976 C69.2228606,82.670984 66.8487972,38.9761883 65.9050231,28.0941324 C65.9050231,28.0941324 80.5897589,27.8150482 88.7970472,27.0902324 Z" transform="rotate(-10 116.405 68.59)"></path><path id="[clothes]jacket--globalStyle1/people/woman/top/5" fill="#fea770" d="M65.0221378,21.4466277 C68.8649743,14.4016222 83.0943324,13.005507 87.1569169,17.7921348 C93.7667349,25.5799702 89.3667889,83.937312 90.6053297,88.8005081 C91.8438705,93.6637043 131.988031,101.926247 134.678564,103.468564 C134.678564,103.468564 134.540305,113.807755 134.540305,113.807755 C116.435679,122.729441 82.9622762,117.308799 75.4570071,112.955398 C66.4792783,107.747904 61.9627734,85.9946381 61.9074924,47.6956016 C61.4220317,34.8929559 62.4602468,26.143298 65.0221378,21.4466277 Z" transform="rotate(-11 98.235 66.799)" opacity="1.00"></path><path id="shadow--globalStyle1/people/woman/top/5" fill="#000" fill-opacity=".04" d="M65.0221378,21.4466277 C68.8649743,14.4016222 83.0943324,13.005507 87.1569169,17.7921348 C93.7667349,25.5799702 89.3667889,83.937312 90.6053297,88.8005081 C91.8438705,93.6637043 131.988031,101.926247 134.678564,103.468564 C134.678564,103.468564 134.540305,113.807755 134.540305,113.807755 C116.435679,122.729441 82.9622762,117.308799 75.4570071,112.955398 C66.4792783,107.747904 61.9627734,85.9946381 61.9074924,47.6956016 C61.4220317,34.8929559 62.4602468,26.143298 65.0221378,21.4466277 Z" transform="rotate(-11 98.235 66.799)"></path><path id="tshirt--globalStyle1/people/woman/top/5" fill="#F6F6F6" d="M40.6224951,9.79368109 C6.01424675,9.79368109 1.44516813,34.837227 2.35985658,68.33448 C2.66006716,79.3046261 3.13615485,103.537576 6.61719198,109.310078 C15.2212207,123.580932 40.4959292,124.14424 82.4413174,111 C84.8405427,104.719593 85.3135586,84.9885091 83.8603654,51.8067478 L76.9513084,26.2522101 C69.1935125,18.0382742 64.2223551,12.9392595 62.0378361,10.9551661 C61.2873685,12.983153 58.3916639,15.2478964 56.2620764,15.2478964 C53.3684078,14.9081616 42.7778134,10.4835845 40.6224951,9.79368109 Z"></path><path id="[clothes]jacket--globalStyle1/people/woman/top/5" fill="#fea770" d="M40.6224951,9.79368109 L59.4658322,54 L62.0378361,142 L4.65946439,142 L1,57.3415823 C0.890894076,37.4574443 4.22422741,24.2430608 11,17.6984319 C17.7757726,11.1538031 27.6499376,8.51888612 40.6224951,9.79368109 Z" opacity="1.00"></path><path id="[clothes]jacket--globalStyle1/people/woman/top/5" fill="#fea770" d="M85.60314,10.1322476 L73.728652,54.1125376 L79.862937,141.898474 L71.405586,141.814265 C68.7032994,109.587819 67.1184723,81.4914772 66.6511045,57.5252414 C65.9500527,21.5758877 74.5320298,16.6966471 76.1712981,14.9327426 C77.2641437,13.7568063 80.408091,12.1566413 85.60314,10.1322476 Z" transform="scale(-1 1) rotate(4 0 -2103.398)" opacity="1.00"></path><path id="shadow--globalStyle1/people/woman/top/5" fill="#000" fill-opacity=".08" d="M85.60314,10.1322476 L73.728652,54.1125376 L79.862937,141.898474 L71.405586,141.814265 C68.7032994,109.587819 67.1184723,81.4914772 66.6511045,57.5252414 C65.9500527,21.5758877 74.5320298,16.6966471 76.1712981,14.9327426 C77.2641437,13.7568063 80.408091,12.1566413 85.60314,10.1322476 Z" transform="scale(-1 1) rotate(4 0 -2103.398)"></path><path id="[skin]hand--globalStyle1/people/woman/top/5" fill="#f0a19e" d="M31.5158666,148.424484 C21.2126053,124.491658 15.6016351,107.79982 14.5910392,97.5417565 C11.8770268,81.1201837 11,39.7138203 11,29 C11,29 23.1117102,30.8517008 31.2999504,30.8517008 C31.2999504,36.4537194 33.668278,93.4162273 33.668278,95.880836 C33.668278,96.4384358 33.6514212,96.9723993 33.6187392,97.4835018 C34.1834952,104.599267 35.4339941,117.08699 38.3418733,146.46198 L38.3418733,146.46198 L38.1751684,146.509118 C38.1752539,146.509452 38.1753393,146.509785 38.1754247,146.510119 L38.3412798,146.46228 L42.480412,152.3438 L46.4483994,157.179185 L47.9530887,163.850299 C48.0599305,164.383349 47.7651262,164.443242 47.7067589,164.376362 C46.500831,162.987836 45.8518657,161.656208 45.4076807,159.657769 C43.6556723,158.533772 43.3489966,156.668096 42.2993744,158.281221 C42.1767041,158.469885 43.2886507,161.749043 45.0921015,164.635899 C45.3473348,165.046168 46.4563136,167.129456 46.6086621,167.378013 C47.4861502,168.811459 47.6938983,168.988145 48.4665231,169.886544 C48.7039494,170.162053 48.878062,170.609256 48.9898503,171.228153 C49.0056787,171.316995 49.0027109,171.404839 48.9829253,171.480703 C48.9285151,171.687335 48.7563811,171.748227 48.5980968,171.618458 C48.2439359,171.325979 47.8690002,170.991575 47.4742789,170.615246 C46.8975308,170.067222 45.3463455,168.146644 44.1869137,166.365817 C43.400439,165.157969 42.4141305,163.670619 42.2508999,163.535859 C41.9986344,163.326233 43.3846105,165.854727 44.331348,167.972953 C45.2770962,170.091179 46.7471608,170.806904 48.1459976,172.33019 C48.3379172,172.539816 48.5733649,173.018963 48.8513516,173.767629 C48.8661907,173.807558 48.9206009,174.21583 48.7019709,174.2328 C48.4813622,174.251766 46.4701634,172.823311 45.459123,171.885981 C43.7743854,170.323765 43.5765302,169.879556 43.0690314,168.901299 C42.4378731,167.680474 41.2339238,165.557258 40.8797629,164.992264 C40.5265912,164.427271 41.8373824,167.995912 43.2678759,170.335744 C43.4904631,170.698098 44.0355544,171.38188 44.2808949,171.70131 C45.0169165,172.658605 46.3405682,173.62688 46.4305924,174.253763 C46.443453,174.344601 46.4454315,174.434441 46.436528,174.518291 C46.3939892,174.908596 46.1298524,175.101253 45.8459301,174.946528 C45.1099085,174.548238 44.2165919,173.792584 43.1689483,172.680566 C42.9216292,172.419032 41.9818167,171.363912 41.7275727,170.909721 C40.6542079,168.994134 39.6876849,166.38079 39.4809261,166.225068 C39.2751566,166.068347 39.9864463,167.52575 40.7521462,169.354492 C40.9282374,169.772747 41.7849507,171.379883 41.9254279,171.695321 C42.1104226,172.110581 42.2973959,172.364129 42.6802458,173.039925 C43.4439671,174.387524 43.0373746,174.846706 42.3438918,174.321642 C41.6513984,173.796577 38.1404567,167.962971 36.8969363,165.178932 C36.2153249,163.654647 34.6216008,160.766793 33.4315013,156.700039 L31.5162623,148.424783 Z" opacity="1.00"></path><path id="[clothes]jacket--globalStyle1/people/woman/top/5" fill="#fea770" d="M8.23550365,27.2622386 C13.0968516,16.8001997 27.7958096,18.7844722 31.0250389,28.2712221 C33.6683769,36.0367553 41.0165912,89.8507063 42.8686047,131.717946 C43.2885766,141.21197 41.7796661,146.126748 38.3418733,146.46228 L31.0250389,148.424484 C25.1422479,149.333909 21.0659705,144.50839 18.7962065,133.947924 C10.2157213,94.0257487 3.37415575,37.7242775 8.23550365,27.2622386 Z" opacity="1.00"></path><path id="shadow--globalStyle1/people/woman/top/5" fill="#000" fill-opacity=".04" d="M8.23550365,27.2622386 C13.0968516,16.8001997 27.7958096,18.7844722 31.0250389,28.2712221 C33.6683769,36.0367553 41.0165912,89.8507063 42.8686047,131.717946 C43.2885766,141.21197 41.7796661,146.126748 38.3418733,146.46228 L31.0250389,148.424484 C25.1422479,149.333909 21.0659705,144.50839 18.7962065,133.947924 C10.2157213,94.0257487 3.37415575,37.7242775 8.23550365,27.2622386 Z"></path><polygon id="shadow--globalStyle1/people/woman/top/5" fill="#000" fill-opacity=".2" points="40.6224951 9.79368109 40.2263194 29 44.7784179 31.6920451 44.7784179 38.6596899 59.4658322 54"></polygon><polygon id="shadow--globalStyle1/people/woman/top/5" fill="#000" fill-opacity=".2" points="76.9527557 54 76.9527557 31.5518889 72.661493 29 74.8071244 24.0891958 62.0378361 10.9551661"></polygon></g></g></svg></g>
</g>
<g transform="translate(108.7595601408975,22.83560824835058)">

<g><svg xmlns="http://www.w3.org/2000/svg" width="136" height="106" viewBox="0 0 136 106"><g id="Symbols--globalStyle1/people/woman/monitor/4" fill="none" fill-rule="evenodd" stroke="none" stroke-width="1"><g id="globalStyle1/people/woman/monitor/4--globalStyle1/people/woman/monitor/4"><g id="Group--globalStyle1/people/woman/monitor/4" transform="translate(10.5 11)"><polygon id="Path-234--globalStyle1/people/woman/monitor/4" fill="#FFF" points="0 0 116.25956 0 116.25956 85.2743399 0 85.2743399" opacity=".237"></polygon><circle id="Oval--globalStyle1/people/woman/monitor/4" cx="10.016" cy="9.309" r="2.156" fill="#555"></circle><circle id="Oval-Copy--globalStyle1/people/woman/monitor/4" cx="58.13" cy="76.5" r="3.5" fill="#555"></circle></g><path id="[color:bgelement]mon--globalStyle1/people/woman/monitor/4" fill="#6161ae" d="M127.5,77.0411104 L127.5,97 L106.892524,97 L106.892524,93 L123.500524,93.0001104 L123.5,77.0411104 L127.5,77.0411104 Z M12.5,77.0411104 L12.5,93.0001104 L29.1074763,93 L29.1074763,97 L8.5,97 L8.5,77.0411104 L12.5,77.0411104 Z M29.1074763,9 L29.1074763,13 L12.5,13 L12.5,28.9588896 L8.5,28.9588896 L8.5,9 L29.1074763,9 Z M127.5,9 L127.5,28.9588896 L123.5,28.9588896 L123.500524,13 L106.892524,13 L106.892524,9 L127.5,9 Z" opacity="1.00"></path></g></g></svg></g>
</g></g><g transform="translate(431,364.5)">
<g transform="translate(336,0) scale(-1, 1)">
<g transform="translate(30.25,179)">

<g><svg xmlns="http://www.w3.org/2000/svg" width="251" height="250" viewBox="0 0 251 250"><g id="Symbols--globalStyle1/people/man/bottom/3" fill="none" fill-rule="evenodd" stroke="none" stroke-width="1"><g id="globalStyle1/people/man/bottom/3--globalStyle1/people/man/bottom/3"><path id="[skin]leg---globalStyle1/people/man/bottom/3" fill="#c3786f" d="M105.400942,18.7874184 C118.320942,18.7654531 128.813942,29.2204531 128.835977,42.1404531 C128.838786,43.7932247 128.670147,45.4062634 128.34683,46.9627344 L110.501915,140.416957 C110.45038,140.821849 110.373923,141.218989 110.27413,141.606783 L110.267044,141.640536 C110.199883,141.891364 110.124394,142.138887 110.039516,142.382015 L110.087318,142.397369 L62.5721857,245.079842 C59.0134763,243.210529 59.2242819,242.096022 58.8376425,242.170359 C58.8376425,242.170359 66.7269307,213.190697 91.5005065,136.792447 L91.309207,137.378821 C91.3632606,137.089999 91.4300949,136.805668 91.5091015,136.52644 L91.5574676,136.365198 L82.0103419,43.7673531 L82.1021436,43.7714339 C82.0677541,43.2594545 82.0498323,42.7429528 82.0489041,42.2224531 C82.0259419,29.3024531 92.4819419,18.8104531 105.400942,18.7874184 Z" transform="rotate(8 93.837 131.934)" opacity="1.00"></path><path id="[clothes]shoes--globalStyle1/people/man/bottom/3" fill="#6b8fff" d="M149.009266,249.770897 L175.768266,249.770897 L175.768266,247.886897 C175.768266,247.886897 166.530266,247.871897 149.009266,247.886897 L149.009266,249.770897 Z" opacity="1.00"></path><path id="[skin]leg---globalStyle1/people/man/bottom/3" fill="#c3786f" d="M157.923986,18.0403448 C170.172986,18.0193781 180.120986,27.9313781 180.142019,40.1803781 C180.143752,41.1924777 180.077669,42.1888609 179.948057,43.1652277 L180.005812,43.1647781 L164.115203,137.399908 C164.042398,138.447886 163.790205,139.446532 163.389087,140.365314 L125.146345,237.438636 L118.423141,239.923126 L119.363812,233.229904 C119.363812,233.229904 144.757895,144.185379 146.160113,136.055309 C146.158726,136.053894 146.159013,136.050242 146.159301,136.04659 L146.157262,136.046957 L135.975549,43.1647781 C135.852536,42.2135119 135.786641,41.2435031 135.784949,40.2583781 C135.762986,28.0093781 145.674986,18.0613781 157.923986,18.0403448 Z" transform="rotate(-16 149.283 128.982)" opacity="1.00"></path><path id="shadow--globalStyle1/people/man/bottom/3" fill="#000" fill-opacity=".04" d="M157.923986,18.0403448 C170.172986,18.0193781 180.120986,27.9313781 180.142019,40.1803781 C180.143752,41.1924777 180.077669,42.1888609 179.948057,43.1652277 L180.005812,43.1647781 L164.115203,137.399908 C164.042398,138.447886 163.790205,139.446532 163.389087,140.365314 L125.146345,237.438636 L118.423141,239.923126 L119.363812,233.229904 C119.363812,233.229904 144.757895,144.185379 146.160113,136.055309 C146.158726,136.053894 146.159013,136.050242 146.159301,136.04659 L146.157262,136.046957 L135.975549,43.1647781 C135.852536,42.2135119 135.786641,41.2435031 135.784949,40.2583781 C135.762986,28.0093781 145.674986,18.0613781 157.923986,18.0403448 Z" transform="rotate(-16 149.283 128.982)"></path><path id="Fill-15--globalStyle1/people/man/bottom/3" fill="#E9E9E9" d="M149.009266,222.493597 L149.009266,247.959597 L175.768266,247.941597 C175.690266,246.302597 175.532266,245.373597 172.348266,245.310597 C167.571266,245.218597 156.052266,245.737597 156.049266,241.177597 C156.048266,240.204597 157.929266,234.446597 160.422266,223.829597 L149.009266,222.493597 Z"></path><path id="shadow--globalStyle1/people/man/bottom/3" fill="#000" fill-opacity=".02" d="M149.009266,222.493597 L149.009266,247.959597 L175.768266,247.941597 C175.690266,246.302597 175.532266,245.373597 172.348266,245.310597 C167.571266,245.218597 156.052266,245.737597 156.049266,241.177597 C156.048266,240.204597 157.929266,234.446597 160.422266,223.829597 L149.009266,222.493597 Z"></path><path id="shape--globalStyle1/people/man/bottom/3" fill="#E9E9E9" d="M46.2327756,217.861252 L46.2327756,243.327252 L72.9917756,243.309252 C72.9137756,241.670252 72.7557756,240.741252 69.5717756,240.678252 C64.7947756,240.586252 54.9451088,240.797164 54.9421088,236.237164 C54.9411088,235.264164 55.1527756,229.814252 57.6457756,219.197252 L46.2327756,217.861252 Z" transform="rotate(24 59.612 230.594)"></path><path id="[clothes]shoes--globalStyle1/people/man/bottom/3" fill="#6b8fff" d="M40.7015775,243.962859 L67.4605775,243.962859 L67.4605775,242.078859 C67.4605775,242.078859 58.2225775,242.063859 40.7015775,242.078859 L40.7015775,243.962859 Z" transform="rotate(24 54.081 243.018)" opacity="1.00"></path><polygon id="[clothes]pants--globalStyle1/people/man/bottom/3" fill="#6b8fff" points="173.057848 16.2685997 157.734255 136.007635 120.401627 132.7274 116.059769 12.984728" transform="rotate(-23 146.713 73.562)" opacity="1.00"></polygon><polygon id="shadow--globalStyle1/people/man/bottom/3" fill="#000" fill-opacity=".08" points="173.057848 16.2685997 157.734255 136.007635 120.401627 132.7274 116.059769 12.984728" transform="rotate(-23 146.713 73.562)"></polygon><polygon id="[clothes]pants--globalStyle1/people/man/bottom/3" fill="#6b8fff" points="140.160815 18.7963281 125.312632 139.28698 89.9149502 138.360179 90.1852101 17.5928041" opacity="1.00"></polygon></g></g></svg></g>
</g>
<g transform="translate(83.75,15)">

<g><svg xmlns="http://www.w3.org/2000/svg" width="120" height="150" viewBox="0 0 120 150"><g id="Symbols--globalStyle1/people/man/head/4" fill="none" fill-rule="evenodd" stroke="none" stroke-width="1"><g id="globalStyle1/people/man/head/4--globalStyle1/people/man/head/4"><polygon id="[skin]neck--globalStyle1/people/man/head/4" fill="#c3786f" points="69.0765532 92.0485 88.5735532 92.0485 85.8989543 40.509 74.5815532 37.4535" opacity="1.00"></polygon><polygon id="shadow--globalStyle1/people/man/head/4" fill="#000" fill-opacity=".04" points="69.0765532 92.0485 88.5735532 92.0485 85.8989543 40.509 74.5815532 37.4535"></polygon><path id="[skin]face--globalStyle1/people/man/head/4" fill="#c3786f" d="M80.6841,52.0354 C85.7561,53.3414 91.3721,45.8074 93.2281,35.2094 C95.0841,24.6094 92.4771,14.9594 87.4041,13.6534 C82.3321,12.3474 76.7161,19.8814 74.8601,30.4794 C73.0041,41.0784 75.6111,50.7284 80.6841,52.0354" opacity="1.00"></path><path id="[hair]hair--globalStyle1/people/man/head/4" fill="#ffdd38" d="M73.9756,35.8665 L76.6746,32.3365 C78.1286,25.3325 79.2126,21.6795 79.9246,21.3805 C83.3126,19.9515 90.1826,22.3305 92.7436,22.6545 C94.3196,22.8535 99.2466,19.2495 99.1116,16.4515 C99.0176,14.5125 95.9406,16.8385 93.1996,16.0435 C89.7766,15.0515 88.0346,8.1305 83.2026,8.5155 C73.6756,9.2755 70.6006,18.3925 73.9756,35.8665" opacity="1.00"></path><path id="smile--globalStyle1/people/man/head/4" fill="#FFF" d="M89.3697,43.9573 C89.9927,43.9783 91.2827,43.6063 91.3327,42.1223 L87.5357,41.9933 C87.4887,43.3683 88.7467,43.9363 89.3697,43.9573"></path></g></g></svg></g>
</g>
<g transform="translate(112.75,82)">

<g><svg xmlns="http://www.w3.org/2000/svg" width="193" height="193" viewBox="0 0 193 193"><g id="Symbols--globalStyle1/people/man/top/5" fill="none" fill-rule="evenodd" stroke="none" stroke-width="1"><g id="globalStyle1/people/man/top/5--globalStyle1/people/man/top/5"><path id="[skin]hand--globalStyle1/people/man/top/5" fill="#c3786f" d="M65,22.6666725 C67.4300739,34.7453596 76.3469093,88.0580124 83.1763229,95.471855 C87.2694417,99.9153307 98.5277341,99.7291797 96.8262884,84.7374802 C96.5466527,82.269218 88.494325,24.5312016 87.3826745,19 C79.4002558,20.6773718 65,22.6666725 65,22.6666725" opacity="1.00"></path><path id="shadow--globalStyle1/people/man/top/5" fill="#000" fill-opacity=".04" d="M65,22.6666725 C67.4300739,34.7453596 76.3469093,88.0580124 83.1763229,95.471855 C87.2694417,99.9153307 98.5277341,99.7291797 96.8262884,84.7374802 C96.5466527,82.269218 88.494325,24.5312016 87.3826745,19 C79.4002558,20.6773718 65,22.6666725 65,22.6666725"></path><path id="[clothes]tshirt--globalStyle1/people/man/top/5" fill="#fea770" d="M37.3593596,1.45769374 C10.4217597,1.45769374 1,25.118474 1,58.9590348 C1,67.7879258 1.08522927,132.356416 4.5540561,138.186 C17.4232535,159.80496 80.6408036,151.232873 83.4188684,135.887204 C84.440996,130.241745 83.9434471,134.563162 81.708982,44.6110996 C88.7740593,28.7996217 91.5668118,19.799066 90.0872395,17.6094325 C84.1358134,8.80185854 70.1245398,2.62740375 60.6525071,1.45769374 C60.6525071,1.1628943 57.4557156,7.43204444 55.3323731,7.43204444 C52.4471901,7.08995636 37.3593596,1.45769374 37.3593596,1.45769374 Z" opacity="1.00"></path><path id="[skin]hand--globalStyle1/people/man/top/5" fill="#c3786f" d="M35.2338926,78 C70.6271277,79.4543196 87.9755577,79.4958998 91.9879566,80.6710376 C95.8468631,81.8010815 98.0999588,85.5420121 97.9965913,89.265552 C98.0659673,91.8384052 96.9702524,94.4115922 94.8046564,96.1414123 C92.9237811,97.643805 90.6008036,98.2182205 88.3887003,97.9266778 C78.605189,98.7296519 59.5389772,92.8328414 34.5347618,84.9995742 C33.5792139,85.0089216 32.6239274,84.6291219 31.9255607,83.8710475 C30.6165749,82.4490629 30.7065739,80.2350868 32.1285585,78.925101 C32.9935271,78.1288676 34.1515387,77.8506396 35.2208798,78.0748872 L35.2338926,78 Z" opacity="1.00"></path><path id="shadow--globalStyle1/people/man/top/5" fill="#000" fill-opacity=".04" d="M91.1776839,97.441748 C82.5154581,99.9712146 61.9199423,93.5797326 34,84.832035 L35.2338926,78 C70.6271277,79.4543196 87.9755577,79.4958998 91.9879566,80.6710376 C99.3883149,82.8381619 100.882974,94.6073593 91.1776839,97.441748"></path><path id="[clothes]tshirt--globalStyle1/people/man/top/5" fill="#fea770" d="M67.0481315,47 L96,47 C96,24.9066429 91.029423,14.2535145 81.088269,15.040615 C71.147115,15.8277155 66.4670692,26.4808439 67.0481315,47 Z" opacity="1.00"></path><path id="[skin]hand--globalStyle1/people/man/top/5" fill="#c3786f" d="M8.6701917,20.6878546 L30,21 L29.9985303,84.4932328 C37.6799233,85.3666256 51.1671848,87.0694852 76.8292403,86.8016991 L76.8292403,86.8016991 L76.8341032,86.8318546 L82.4738592,83.4316102 L86.8713943,79.8993944 L92.8003298,79.0072576 C93.2745248,78.9497329 93.3164537,79.2514851 93.2565554,79.3029545 C91.9897059,80.3838126 90.793736,80.9116265 89.0177508,81.1730105 C87.9665353,82.8250783 85.8571161,82.9956339 87.442425,83.785841 C88.0144539,84.0714459 89.2004407,83.8413473 91.9936991,82.4567186 C92.3770483,82.2669882 95.2771254,81.4111828 96.1157019,80.7451078 C96.7196766,80.2657356 97.0780682,81.3294372 96.7576122,81.8259658 C96.361285,82.4405714 96.1626222,82.5354366 96.1626222,82.5354366 C96.1626222,82.5354366 92.4469297,84.545772 92.3211432,84.6971527 C92.1284703,84.9302789 94.3536929,84.4236583 96.1037222,83.3539015 C96.6088647,83.0450849 96.6028749,82.9693945 96.8734156,82.8886582 C97.3575937,82.7443419 97.4514344,83.4840889 97.3695734,83.9130008 C97.2917056,84.3146642 97.1309784,84.5144867 96.799541,84.7062355 C95.7473272,85.3147859 94.066181,85.9031521 93.556047,86.2059135 C93.0459129,86.5076656 94.5982777,86.1806833 96.7775783,85.2673532 C97.1239903,85.1220278 97.3985243,85.0211073 97.456426,85.6468141 C97.4873734,85.9859069 97.3276446,86.33711 96.9532801,86.6075769 C96.0058883,87.2928267 94.7370422,87.5299898 94.5912896,87.7217387 C94.4465353,87.9144967 96.0677832,87.4633823 96.9303191,87.1646578 C97.1749039,87.0798846 97.4783887,87.0344704 97.4953599,87.3311765 C97.5312989,87.9911963 97.3536005,88.3928597 97.1309784,88.5200194 C95.3679712,89.5251871 94.9127439,89.6886783 93.5800063,90.2164922 C92.212328,90.7594443 89.6137391,92.090585 85.9888924,92.9080407 L77.6570359,94 L77.6407403,93.9080831 C38.4112976,103.177785 17.4341388,104.603311 13.0510951,97.5637003 C12.855843,97.2500907 12.6758989,96.9432766 12.5106921,96.643127 C11.7439272,95.4540883 11.2348551,94.0818523 11.0637427,92.6065201 C11.0170202,92.25267 10.9964738,91.9129643 11.0004919,91.5862185 L11.0003498,91.5660779 C8.24942705,76.4346625 8.6701917,31.8486832 8.6701917,20.6878546 L8.6701917,20.6878546 Z" opacity="1.00"></path><path id="[skin]hand--globalStyle1/people/man/top/5" fill="#c3786f" d="M10.1792227,69.0000848 L10.2673581,69.0048035 C10.8927418,69.0774637 11.3502909,69.2237794 11.6410044,69.4447461 C12.5890702,70.1623899 13.4971753,71.0024612 14.9847094,71.7927653 C15.2434544,71.9301229 18.2634784,72.8488265 18.7040442,73.0508815 C21.9118831,74.5269784 23.2655491,74.7967169 23.9089151,74.5299644 C25.6921578,73.7914183 23.2905245,73.5515401 22.0547423,71.8644301 C20.0297378,71.5449243 18.6580895,70.9785729 17.1925337,69.8558236 C17.1226026,69.802075 17.1635623,69.5024761 17.7030306,69.5751363 L17.7030306,69.5751363 L24.4633687,70.6610578 L29.5483577,74.3378628 L35.7614452,78.0096399 C36.1671878,78.0399166 36.5744791,78.1419722 36.9656689,78.3222995 C38.7202607,79.1321162 39.4870823,81.2106455 38.6772707,82.966248 C37.9647494,84.5091741 36.2700543,85.2881826 34.6773211,84.9021678 L34.6573231,85 L25.7810702,83.7010746 C21.6421489,82.7644548 18.6560915,81.349074 17.0896351,80.7618204 C15.5611414,80.1894969 14.0266535,79.4897693 11.999651,78.4267407 C11.742904,78.2913737 9.46614763,76.460934 9.49112302,75.8020155 C9.50211219,75.5054027 10.0375845,75.8089829 10.3692577,75.9543033 C10.9826532,76.2230465 11.7478991,77.1009409 12.0266244,77.1984847 C13.9027756,77.8514312 16.0476619,78.4297267 15.8778293,78.2326484 C15.7079966,78.03557 13.9217569,77.6424087 11.5610832,76.3912598 C11.100537,76.1474003 9.4451683,74.3398535 9.24336717,74.0402546 C8.78481904,73.3584432 10.2563689,74.0601615 10.581049,74.2393236 C11.2394002,74.6006339 11.7918558,75.3093197 12.189464,75.4655888 C14.6870028,76.4519759 17.6061261,77.0680945 17.018705,76.7495841 C16.4312839,76.4310736 13.9257529,75.2286967 12.6659944,74.6722988 C11.6549906,74.2243935 11.5540901,74.188561 9.98963176,72.6407993 C9.51609841,72.1729871 9.09151681,71.5021245 9.00660049,71.2592603 C8.89471075,70.9387591 10.2393856,71.3169903 10.4611671,71.4971478 C12.0725791,72.8050313 11.8847642,73.0767605 13.1465208,73.6371398 C15.2704278,74.5797317 18.6101367,75.5213282 18.3853582,75.2804547 C18.239502,75.1261762 13.9677116,72.9931515 13.9677116,72.9931515 C12.0605909,71.8186442 11.5620822,71.0303309 10.9766591,70.4868724 C10.5760539,70.1146133 10.2184063,69.7592751 9.90271741,69.4218531 C9.76285524,69.271556 9.81280602,69.0953799 10.0156062,69.0267011 C10.0905323,69.0018175 10.1784457,68.9938547 10.2673581,69.0048035 Z" opacity="1.00"></path><path id="shadow--globalStyle1/people/man/top/5" fill="#000" fill-opacity=".04" d="M10.1792227,69.0000848 L10.2673581,69.0048035 C10.8927418,69.0774637 11.3502909,69.2237794 11.6410044,69.4447461 C12.5890702,70.1623899 13.4971753,71.0024612 14.9847094,71.7927653 C15.2434544,71.9301229 18.2634784,72.8488265 18.7040442,73.0508815 C21.9118831,74.5269784 23.2655491,74.7967169 23.9089151,74.5299644 C25.6921578,73.7914183 23.2905245,73.5515401 22.0547423,71.8644301 C20.0297378,71.5449243 18.6580895,70.9785729 17.1925337,69.8558236 C17.1226026,69.802075 17.1635623,69.5024761 17.7030306,69.5751363 L17.7030306,69.5751363 L24.4633687,70.6610578 L29.5483577,74.3378628 L35.7614452,78.0096399 C36.1671878,78.0399166 36.5744791,78.1419722 36.9656689,78.3222995 C38.7202607,79.1321162 39.4870823,81.2106455 38.6772707,82.966248 C37.9647494,84.5091741 36.2700543,85.2881826 34.6773211,84.9021678 L34.6573231,85 L25.7810702,83.7010746 C21.6421489,82.7644548 18.6560915,81.349074 17.0896351,80.7618204 C15.5611414,80.1894969 14.0266535,79.4897693 11.999651,78.4267407 C11.742904,78.2913737 9.46614763,76.460934 9.49112302,75.8020155 C9.50211219,75.5054027 10.0375845,75.8089829 10.3692577,75.9543033 C10.9826532,76.2230465 11.7478991,77.1009409 12.0266244,77.1984847 C13.9027756,77.8514312 16.0476619,78.4297267 15.8778293,78.2326484 C15.7079966,78.03557 13.9217569,77.6424087 11.5610832,76.3912598 C11.100537,76.1474003 9.4451683,74.3398535 9.24336717,74.0402546 C8.78481904,73.3584432 10.2563689,74.0601615 10.581049,74.2393236 C11.2394002,74.6006339 11.7918558,75.3093197 12.189464,75.4655888 C14.6870028,76.4519759 17.6061261,77.0680945 17.018705,76.7495841 C16.4312839,76.4310736 13.9257529,75.2286967 12.6659944,74.6722988 C11.6549906,74.2243935 11.5540901,74.188561 9.98963176,72.6407993 C9.51609841,72.1729871 9.09151681,71.5021245 9.00660049,71.2592603 C8.89471075,70.9387591 10.2393856,71.3169903 10.4611671,71.4971478 C12.0725791,72.8050313 11.8847642,73.0767605 13.1465208,73.6371398 C15.2704278,74.5797317 18.6101367,75.5213282 18.3853582,75.2804547 C18.239502,75.1261762 13.9677116,72.9931515 13.9677116,72.9931515 C12.0605909,71.8186442 11.5620822,71.0303309 10.9766591,70.4868724 C10.5760539,70.1146133 10.2184063,69.7592751 9.90271741,69.4218531 C9.76285524,69.271556 9.81280602,69.0953799 10.0156062,69.0267011 C10.0905323,69.0018175 10.1784457,68.9938547 10.2673581,69.0048035 Z"></path><path id="[clothes]tshirt--globalStyle1/people/man/top/5" fill="#fea770" d="M5.64274369,47 L34.9281567,47 C35.6900589,25.2049681 30.3919489,14.5432975 19.0338265,15.0149882 C7.67570416,15.4866789 3.21200988,26.1483495 5.64274369,47 Z" opacity="1.00"></path></g></g></svg></g>
</g>
<g transform="translate(100,5)">

<g><svg xmlns="http://www.w3.org/2000/svg" width="136" height="106" viewBox="0 0 136 106"><g id="Symbols--globalStyle1/people/man/monitor/4" fill="none" fill-rule="evenodd" stroke="none" stroke-width="1"><g id="globalStyle1/people/man/monitor/4--globalStyle1/people/man/monitor/4"><g id="Group--globalStyle1/people/man/monitor/4" transform="translate(10.5 11)"><polygon id="Path-234--globalStyle1/people/man/monitor/4" fill="#FFF" points="0 0 116.25956 0 116.25956 85.2743399 0 85.2743399" opacity=".237"></polygon><circle id="Oval--globalStyle1/people/man/monitor/4" cx="10.016" cy="9.309" r="2.156" fill="#555"></circle><circle id="Oval-Copy--globalStyle1/people/man/monitor/4" cx="58.13" cy="76.5" r="3.5" fill="#555"></circle></g><path id="[color:bgelement]mon--globalStyle1/people/man/monitor/4" fill="#6161ae" d="M127.5,77.0411104 L127.5,97 L106.892524,97 L106.892524,93 L123.500524,93.0001104 L123.5,77.0411104 L127.5,77.0411104 Z M12.5,77.0411104 L12.5,93.0001104 L29.1074763,93 L29.1074763,97 L8.5,97 L8.5,77.0411104 L12.5,77.0411104 Z M29.1074763,9 L29.1074763,13 L12.5,13 L12.5,28.9588896 L8.5,28.9588896 L8.5,9 L29.1074763,9 Z M127.5,9 L127.5,28.9588896 L123.5,28.9588896 L123.500524,13 L106.892524,13 L106.892524,9 L127.5,9 Z" opacity="1.00"></path></g></g></svg></g>
</g>
</g></g><g transform="translate(321.5,72.21222292253015)">
<g><svg xmlns="http://www.w3.org/2000/svg" width="123" height="155" viewBox="0 0 123 155"><g id="Symbols--globalStyle1/objects/skyobjects/2" fill="none" fill-rule="evenodd" stroke="none" stroke-width="1"><g id="globalStyle1/objects/skyobjects/2--globalStyle1/objects/skyobjects/2" fill="#B5CEE1" fill-rule="nonzero"><path id="[color:objects]bird--globalStyle1/objects/skyobjects/2" d="M57.8394891,56.2045234 C56.4234891,56.2703884 42.4604891,57.8929807 42.4454891,55.7203269 C42.4484891,56.1003856 43.8704891,54.7243418 43.9704891,54.5107257 C44.3554891,53.6847434 43.9844891,52.5098548 44.3214891,51.7452872 C44.8334891,50.5881999 46.2924891,49.4720558 46.9964891,48.3140785 C47.6284891,47.2762602 48.0084891,46.3390195 48.4134891,45.2121946 C48.6404891,44.582027 50.4824891,41.4454305 49.8494891,40.9194009 C48.9124891,40.1397021 37.5284891,49.3394358 36.2674891,50.3024884 C35.4014891,50.9638083 34.4424891,51.730156 34.0244891,52.7074497 C33.4784891,53.9820258 34.3164891,54.7252319 32.5754891,55.137333 C31.1144891,55.4835691 30.2004891,55.2895344 29.1654891,56.4297104 C28.9554891,56.6611279 28.0814891,57.8529277 28.0624891,58.0790048 C28.0884891,57.7799422 30.1934891,58.8035194 30.4764891,58.6851405 C27.2904891,60.017571 26.3834891,64.2934534 25.3884891,66.9770057 C25.0934891,67.7736158 21.7824891,76.6502551 22.7834891,76.861201 C23.6354891,77.0409946 25.6524891,75.0356734 26.2644891,74.4829417 C27.6204891,73.2555392 29.0414891,72.0477181 30.3924891,70.8443473 C32.3804891,69.0731138 33.4514891,66.7179962 35.0674891,64.9494328 C35.7554891,64.1964361 36.8094891,63.6775269 37.5974891,62.9467818 C37.9954891,62.5765139 38.3164891,62.1386009 38.7194891,61.7469714 C39.0644891,61.4123061 39.7804891,60.2418679 39.9504891,60.1617618 C41.3684891,59.4888711 43.1454891,61.7487515 44.0044891,62.5035284 C45.9424891,64.2044467 47.8314891,66.7660598 50.0984891,68.0913698 C49.3144891,66.8871089 48.3354891,65.7949966 47.4554891,64.64681 C48.4904891,64.5480126 47.7724891,64.169734 47.6734891,63.5733891 C48.0424891,63.5075241 48.4634891,62.4163018 48.5674891,62.1297002 C48.7794891,61.5449261 49.1594891,60.9788434 49.2224891,60.4341224 C49.3484891,59.9828583 49.6974891,60.0149008 49.9524891,59.6579838 C50.2774891,59.2031595 49.7524891,59.4060948 49.8944891,59.0376071 C49.9454891,58.9023169 51.4104891,58.3620461 51.6524891,58.1938234 C52.0144891,57.9437146 52.0584891,57.670464 52.3634891,57.4506174 C54.0524891,56.2365658 56.3604891,57.0002434 58.3674891,56.3131116 C58.2134891,56.1831618 58.0364891,56.1466691 57.8394891,56.2045234" transform="rotate(9 40.482 58.873)" fill="#b5cee1" opacity="1.00"></path><path id="[color:objects]bird--globalStyle1/objects/skyobjects/2" d="M71.7561298,101.207532 C70.8121298,101.251442 61.5034631,102.33317 61.4934631,100.884734 C61.4954631,101.138107 62.4434631,100.220744 62.5101298,100.078334 C62.7667965,99.5276788 62.5194631,98.7444197 62.7441298,98.234708 C63.0854631,97.4633165 64.0581298,96.7192204 64.5274631,95.9472355 C64.9487965,95.2553566 65.2021298,94.6305295 65.4721298,93.8793129 C65.6234631,93.4592012 66.8514631,91.3681369 66.4294631,91.0174504 C65.8047965,90.4976512 58.2154631,96.630807 57.3747965,97.2728421 C56.7974631,97.713722 56.1581298,98.2246205 55.8794631,98.8761497 C55.5154631,99.7258671 56.0741298,100.221338 54.9134631,100.496072 C53.9394631,100.726896 53.3301298,100.597539 52.6401298,101.357657 C52.5001298,101.511935 51.9174631,102.306468 51.9047965,102.457186 C51.9221298,102.257811 53.3254631,102.940196 53.5141298,102.861277 C51.3901298,103.749564 50.7854631,106.600152 50.1221298,108.389187 C49.9254631,108.92026 47.7181298,114.83802 48.3854631,114.978651 C48.9534631,115.098513 50.2981298,113.761632 50.7061298,113.393144 C51.6101298,112.574876 52.5574631,111.769662 53.4581298,110.967415 C54.7834631,109.786592 55.4974631,108.216514 56.5747965,107.037472 C57.0334631,106.535474 57.7361298,106.189534 58.2614631,105.702371 C58.5267965,105.455526 58.7407965,105.163584 59.0094631,104.902497 C59.2394631,104.679387 59.7167965,103.899095 59.8301298,103.845691 C60.7754631,103.397097 61.9601298,104.903684 62.5327965,105.406869 C63.8247965,106.540814 65.0841298,108.248556 66.5954631,109.132096 C66.0727965,108.329256 65.4201298,107.601181 64.8334631,106.835723 C65.5234631,106.769858 65.0447965,106.517673 64.9787965,106.120109 C65.2247965,106.076199 65.5054631,105.348718 65.5747965,105.15765 C65.7161298,104.767801 65.9694631,104.390412 66.0114631,104.027265 C66.0954631,103.726422 66.3281298,103.747784 66.4981298,103.509839 C66.7147965,103.206623 66.3647965,103.341913 66.4594631,103.096255 C66.4934631,103.006061 67.4701298,102.645881 67.6314631,102.533732 C67.8727965,102.366993 67.9021298,102.184826 68.1054631,102.038261 C69.2314631,101.228894 70.7701298,101.738012 72.1081298,101.279924 C72.0054631,101.193291 71.8874631,101.168963 71.7561298,101.207532" transform="rotate(9 60.184 102.986)" fill="#b5cee1" opacity="1.00"></path><path id="[color:objects]bird--globalStyle1/objects/skyobjects/2" d="M105.747958,88.3793007 C105.275958,88.4012557 100.621625,88.9421198 100.616625,88.2179019 C100.617625,88.3445881 101.091625,87.8859069 101.124958,87.8147015 C101.253291,87.5393741 101.129625,87.1477445 101.241958,86.8928886 C101.412625,86.5071929 101.898958,86.1351448 102.133625,85.7491524 C102.344291,85.403213 102.470958,85.0907994 102.605958,84.7151911 C102.681625,84.5051353 103.295625,83.4596031 103.084625,83.2842599 C102.772291,83.0243603 98.9776248,86.0909382 98.5572914,86.4119557 C98.2686248,86.6323957 97.9489581,86.8878449 97.8096248,87.2136095 C97.6276248,87.6384682 97.9069581,87.8862035 97.3266248,88.0235706 C96.8396248,88.1389826 96.5349581,88.0743044 96.1899581,88.4543631 C96.1199581,88.5315022 95.8286248,88.9287688 95.8222914,89.0041278 C95.8309581,88.9044403 96.5326248,89.2456327 96.6269581,89.2061731 C95.5649581,89.6503166 95.2626248,91.0756107 94.9309581,91.9701282 C94.8326248,92.2356649 93.7289581,95.1945446 94.0626248,95.2648599 C94.3466248,95.3247911 95.0189581,94.6563507 95.2229581,94.4721068 C95.6749581,94.0629726 96.1486248,93.6603656 96.5989581,93.259242 C97.2616248,92.6688308 97.6186248,91.8837917 98.1572914,91.2942705 C98.3866248,91.0432716 98.7379581,90.8703019 99.0006248,90.6267202 C99.1332914,90.5032976 99.2402914,90.3573265 99.3746248,90.2267834 C99.4896248,90.1152283 99.7282914,89.7250822 99.7849581,89.6983802 C100.257625,89.4740833 100.849958,90.2273767 101.136291,90.4789691 C101.782291,91.0459418 102.411958,91.8998129 103.167625,92.3415828 C102.906291,91.9401626 102.579958,91.5761251 102.286625,91.1933963 C102.631625,91.1604638 102.392291,91.0343709 102.359291,90.8355893 C102.482291,90.8136343 102.622625,90.4498935 102.657291,90.3543597 C102.727958,90.159435 102.854625,89.9707407 102.875625,89.789167 C102.917625,89.6387457 103.033958,89.6494265 103.118958,89.5304542 C103.227291,89.3788461 103.052291,89.4464912 103.099625,89.3236619 C103.116625,89.2785652 103.604958,89.098475 103.685625,89.0424007 C103.806291,88.9590311 103.820958,88.8679476 103.922625,88.7946654 C104.485625,88.3899815 105.254958,88.6445407 105.923958,88.4154968 C105.872625,88.3721802 105.813625,88.3600159 105.747958,88.3793007" transform="rotate(9 99.962 89.269)" fill="#b5cee1" opacity="1.00"></path></g></g></svg></g></g></svg>