<svg width="392" height="374" viewBox="0 0 392 374" fill="none" xmlns="http://www.w3.org/2000/svg">
<g clip-path="url(#clip0)">
<path d="M342.452 171.651C345.978 221.528 359.418 267.624 345.039 297.327C330.66 327.029 288.353 340.351 239.202 354.868C189.939 369.399 133.832 385 91.1409 363.208C48.4423 341.291 19.2953 281.96 28.9489 233.897C38.6461 185.761 87.2232 149.066 122.736 108.507C158.186 67.896 180.654 23.5937 216.618 7.27392C252.666 -9.00258 302.269 2.74665 323.878 35.434C345.372 68.1516 338.982 121.812 342.44 171.638" fill="#F2F2F2"/>
<path d="M340.107 317.004H318.261V348.808H340.107V317.004Z" fill="#D7E0FF"/>
<path d="M301.33 54.3315H28.3945V280.227H301.33V54.3315Z" fill="#D7E0FF"/>
<path d="M41.7126 63.5723C41.7133 64.4141 41.4858 65.2373 41.0586 65.9375C40.6315 66.6378 40.024 67.1838 39.3131 67.5063C38.6021 67.8289 37.8196 67.9135 37.0647 67.7495C36.3097 67.5854 35.6162 67.1802 35.072 66.5849C34.5277 65.9897 34.1571 65.2312 34.0072 64.4056C33.8572 63.5799 33.9346 62.7242 34.2295 61.9466C34.5244 61.169 35.0236 60.5047 35.6639 60.0375C36.3042 59.5704 37.0568 59.3215 37.8266 59.3223C38.8572 59.3223 39.8456 59.7701 40.5744 60.5671C41.3031 61.3642 41.7126 62.4452 41.7126 63.5723Z" fill="#FB5D64"/>
<path d="M56.6466 63.5723C56.6474 64.4139 56.42 65.2369 55.993 65.9371C55.566 66.6373 54.9588 67.1832 54.248 67.5059C53.5373 67.8286 52.755 67.9134 52.0002 67.7498C51.2454 67.5861 50.5519 67.1813 50.0074 66.5865C49.463 65.9917 49.0922 65.2336 48.9417 64.4082C48.7913 63.5829 48.8681 62.7272 49.1624 61.9496C49.4567 61.172 49.9553 60.5073 50.5951 60.0396C51.2349 59.572 51.9871 59.3223 52.7567 59.3223C53.7877 59.3223 54.7765 59.77 55.5059 60.5669C56.2353 61.3638 56.6456 62.4448 56.6466 63.5723Z" fill="#FB5D64"/>
<path d="M71.5923 63.5723C71.5923 64.4129 71.3644 65.2346 70.9374 65.9335C70.5104 66.6324 69.9035 67.1771 69.1934 67.4988C68.4834 67.8205 67.702 67.9046 66.9482 67.7407C66.1944 67.5767 65.502 67.1719 64.9585 66.5775C64.415 65.9832 64.0449 65.2259 63.895 64.4015C63.745 63.577 63.822 62.7225 64.1161 61.9459C64.4102 61.1693 64.9083 60.5056 65.5474 60.0386C66.1864 59.5716 66.9377 59.3223 67.7063 59.3223C68.737 59.3223 69.7254 59.7701 70.4542 60.5671C71.1829 61.3642 71.5923 62.4452 71.5923 63.5723Z" fill="#FB5D64"/>
<path d="M326.845 328.788H321.354V334.793H326.845V328.788Z" fill="#FB5D64"/>
<path d="M324.1 328.788V317.004V328.788Z" fill="#D7E0FF"/>
<path d="M324.1 328.788V317.004" stroke="#1B3C87" stroke-width="2.33" stroke-miterlimit="10"/>
<path d="M339.783 341.369C343.927 341.369 347.286 337.695 347.286 333.164C347.286 328.632 343.927 324.958 339.783 324.958C335.639 324.958 332.28 328.632 332.28 333.164C332.28 337.695 335.639 341.369 339.783 341.369Z" stroke="#D7E0FF" stroke-width="6.99" stroke-miterlimit="10"/>
<path d="M214.639 43.4491L148.583 168.579L262.995 240.822L329.052 115.693L214.639 43.4491Z" stroke="#B2C3FB" stroke-width="3.49" stroke-linecap="round" stroke-linejoin="round"/>
<path d="M70.17 286.799C70.17 286.011 68.6212 282.549 64.6797 282.549C62.3861 282.549 58.8447 284.919 58.8447 285.253C61.6176 285.92 64.1845 289.853 65.8958 289.853C67.6784 289.853 70.17 288.753 70.17 286.799Z" fill="#8088DC"/>
<path d="M392 341.785H355.58V352.997H392V341.785Z" fill="#8088DC"/>
<path d="M330.593 80.2951C331.731 75.8407 331.912 71.1585 331.121 66.6151C330.329 62.0716 328.587 57.79 326.031 54.1054C323.474 50.4209 320.173 47.4333 316.385 45.3764C312.597 43.3195 308.426 42.2492 304.197 42.2492C299.968 42.2492 295.796 43.3195 292.008 45.3764C288.22 47.4333 284.919 50.4209 282.363 54.1054C279.806 57.79 278.064 62.0716 277.273 66.6151C276.481 71.1585 276.662 75.8407 277.801 80.2951H330.593Z" fill="#8088DC"/>
<path d="M188.604 239.772C188.604 243.671 185.499 257.5 171.571 257.5C158.922 257.5 126.781 197.952 125.778 195.665C122.431 195.301 116.62 190.583 114.96 184.154C114.707 183.17 118.525 177.534 122.697 178.886C123.675 179.206 119.472 173.479 118.898 172.491C117.587 170.243 118.367 167.175 119.013 167.175C119.658 167.175 128.001 179.583 128.623 179.635C129.245 179.687 134.137 182.143 134.39 182.668C134.644 183.192 134.359 190.635 135.309 192.034C136.26 193.433 168.83 231.389 168.83 231.389C169.127 227.75 172.458 217.755 172.993 216.715C173.528 215.676 188.588 228.335 188.588 239.789" fill="white"/>
<path d="M120.217 180.917C119.524 179.878 119.068 176.702 121.31 176.693C128.908 176.672 132.857 179.267 132.857 180.549C132.857 181.832 132.857 188.347 133.483 189.53C133.681 189.907 136.906 193.793 141.271 198.988C143.252 201.453 146.512 205.204 146.512 205.204C155.393 215.719 165.708 227.841 166.639 228.954C166.952 226.732 169.218 218.691 170.295 216.23" stroke="#1B3C87" stroke-width="4.3" stroke-linecap="round" stroke-linejoin="round"/>
<path d="M148.988 235.357C137.151 218.349 125.176 196.137 123.592 193.394" stroke="#1B3C87" stroke-width="4.3" stroke-linecap="round" stroke-linejoin="round"/>
<path d="M184.1 245.304C183.328 247.535 179.743 255.087 168.881 255.087C166.853 255.087 164.29 253.453 161.418 250.715" stroke="#1B3C87" stroke-width="4.3" stroke-linecap="round" stroke-linejoin="round"/>
<path d="M196.317 156.332C195.525 151.362 192.075 141.06 192.075 132.071C192.075 118.549 199.7 110.903 214.056 110.903C224.177 110.903 228.186 118.151 229.723 121.734C231.006 124.727 230.242 128.011 231.68 131.122C237.392 143.508 242.078 142.239 250.389 157.601C252.397 161.314 253.581 174.332 252.92 178.426C249.355 178.591 244.601 180.376 244.601 180.376C242.85 182.378 241.88 185.048 241.9 187.819C240.24 186.324 231.541 178.63 221.507 178.63C218.805 178.63 205.939 181.199 202.584 183.972C201.998 183.084 199.26 181.476 198.187 181.476C196.297 181.728 194.729 181.91 193.247 182.468C191.572 176.195 196.468 167.782 196.468 157.995C196.456 157.435 196.4 156.877 196.301 156.327" fill="#EECB55"/>
<path d="M198.741 181.914C177.917 181.914 170.858 212.899 170.858 216.026C170.858 219.154 186.854 230.046 189.088 230.046C191.322 230.046 204.727 193.949 204.727 191.605C204.727 189.261 202.849 181.927 198.741 181.927" fill="#46DBC9"/>
<path d="M184.1 183.824C172.795 192.463 168.651 211.213 168.651 213.609C168.651 216.737 184.647 227.62 186.873 227.62C189.099 227.62 202.512 191.523 202.512 189.175C202.512 186.827 200.639 179.501 196.527 179.501" stroke="#1B3C87" stroke-width="4.3" stroke-linecap="round" stroke-linejoin="round"/>
<path d="M219.277 179.193C270.001 175.541 262.886 293.999 258.988 298.665C255.091 303.331 211.168 317.377 205.907 314.366C200.647 311.355 154.332 183.868 219.273 179.197" fill="#46DBC9"/>
<path d="M226.621 154.334C226.621 154.334 225.793 159.862 225.729 161.595C225.531 164.494 226.652 182.083 227.056 185.089C225.472 187.017 214.02 188.789 212.736 187.689C212.756 185.271 211.631 172.79 211.199 171.057C202.619 169.844 195.893 158.563 195.893 144.825C195.888 142.073 196.166 139.329 196.721 136.645C199.304 135.736 203.059 131.295 203.63 129.67L203.035 128.072C205.464 136.645 220.16 144.535 225.559 145.219L224.973 146.233C225.737 144.556 227.1 143.443 228.661 143.443C231.038 143.443 232.994 146.077 232.994 149.335C232.994 152.593 231.053 155.227 228.661 155.227C228.081 155.213 227.512 155.059 226.993 154.776C226.475 154.493 226.02 154.087 225.662 153.589" fill="white"/>
<path d="M200.603 163.558C196.495 158.753 193.833 151.081 193.833 142.438C193.828 139.686 194.106 136.942 194.661 134.258" stroke="#1B3C87" stroke-width="4.3" stroke-linecap="round" stroke-linejoin="round"/>
<path d="M220.113 164.26C217.419 167.115 214.171 168.783 210.673 168.783C209.168 168.78 207.677 168.472 206.276 167.873" stroke="#1B3C87" stroke-width="4.3" stroke-linecap="round" stroke-linejoin="round"/>
<path d="M222.909 143.833C223.674 142.156 225.04 141.038 226.597 141.038C228.994 141.038 230.931 143.677 230.931 146.93C230.931 150.184 228.994 152.822 226.597 152.822C226.018 152.808 225.449 152.654 224.93 152.371C224.412 152.088 223.957 151.683 223.598 151.185" stroke="#1B3C87" stroke-width="4.3" stroke-linecap="round" stroke-linejoin="round"/>
<path d="M210.673 136.901C215.45 140.198 220.711 142.468 223.496 142.819" stroke="#1B3C87" stroke-width="4.3" stroke-linecap="round" stroke-linejoin="round"/>
<path d="M200.972 125.689C201.605 127.916 203.063 130.099 204.977 132.118" stroke="#1B3C87" stroke-width="4.3" stroke-linecap="round" stroke-linejoin="round"/>
<path d="M201.57 127.288C201.007 128.908 197.244 133.353 194.661 134.258" stroke="#1B3C87" stroke-width="4.3" stroke-linecap="round" stroke-linejoin="round"/>
<path d="M232.321 133.955C236.885 141.103 241.282 142.399 248.166 155.149C250.175 158.862 251.387 171.703 250.725 175.792" stroke="#1B3C87" stroke-width="4.3" stroke-linecap="round" stroke-linejoin="round"/>
<path d="M211.211 108.451H211.845C221.966 108.451 225.979 115.703 227.516 119.282C228.237 120.958 228.308 122.747 228.491 124.511" stroke="#1B3C87" stroke-width="4.3" stroke-linecap="round" stroke-linejoin="round"/>
<path d="M191.057 180.016C189.377 173.743 194.273 165.33 194.273 155.543C194.273 151.644 189.868 139.786 189.868 129.614C189.868 120.408 193.402 113.927 200.191 110.725" stroke="#1B3C87" stroke-width="4.3" stroke-linecap="round" stroke-linejoin="round"/>
<path d="M224.018 169.393C223.757 164.793 223.579 160.495 223.67 159.187" stroke="#1B3C87" stroke-width="4.3" stroke-linecap="round" stroke-linejoin="round"/>
<path d="M218.389 184.99C221.384 184.431 224.26 183.569 224.997 182.672C224.85 181.593 224.6 178.647 224.379 175.177" stroke="#1B3C87" stroke-width="4.3" stroke-linecap="round" stroke-linejoin="round"/>
<path d="M209.156 168.674C209.588 170.407 210.717 182.884 210.693 185.302" stroke="#1B3C87" stroke-width="4.3" stroke-linecap="round" stroke-linejoin="round"/>
<path d="M192.419 189.136C196.626 183.664 202.413 179.678 210.173 177.82" stroke="#1B3C87" stroke-width="4.3" stroke-linecap="round" stroke-linejoin="round"/>
<path d="M183.34 238.225C182.227 225.315 182.682 212.708 185.879 202.297" stroke="#1B3C87" stroke-width="4.3" stroke-linecap="round" stroke-linejoin="round"/>
<path d="M259.277 276.904C258.806 287.653 257.693 295.148 256.778 296.248C252.88 300.905 208.957 314.959 203.697 311.948C201.494 310.688 192.09 287.592 186.663 260.827" stroke="#1B3C87" stroke-width="4.3" stroke-linecap="round" stroke-linejoin="round"/>
<path d="M252.25 209.428C257.297 225.458 259.163 244.75 259.468 261.096" stroke="#1B3C87" stroke-width="4.3" stroke-linecap="round" stroke-linejoin="round"/>
<path d="M224.518 177.166C230.023 178.209 235.119 181.027 239.15 185.258" stroke="#1B3C87" stroke-width="4.3" stroke-linecap="round" stroke-linejoin="round"/>
<path d="M207.67 141.394C207.67 142.836 207.159 143.993 206.529 143.993C205.899 143.993 205.384 142.823 205.384 141.394C205.384 139.964 205.895 138.794 206.529 138.794C207.163 138.794 207.67 139.964 207.67 141.394Z" fill="#1B3C87"/>
<path d="M201.57 144.006C201.427 145.18 200.599 149.989 198.797 151.917" stroke="#1B3C87" stroke-width="4.3" stroke-linecap="round" stroke-linejoin="round"/>
<path d="M204.885 158.229C205.626 158.372 208.629 157.298 209.326 155.084" stroke="#1B3C87" stroke-width="4.3" stroke-linecap="round" stroke-linejoin="round"/>
<path d="M274.235 224.847C274.235 224.847 286.052 262.01 286.052 266.169C286.052 270.328 250.682 298.332 250.682 298.332L232.614 299.982L263.972 264.765L252.203 232.706L274.235 224.847Z" fill="white"/>
<path d="M249.992 230.275C250.67 232.143 261.765 262.335 261.765 262.335L230.919 297.197" stroke="#1B3C87" stroke-width="4.3" stroke-linecap="round" stroke-linejoin="round"/>
<path d="M281.275 253.874C282.772 259.237 283.842 263.249 283.842 263.743C283.842 265.389 278.157 270.518 278.157 270.518" stroke="#1B3C87" stroke-width="4.3" stroke-linecap="round" stroke-linejoin="round"/>
<path d="M272.029 221.689C272.029 221.689 273.895 228.075 276.145 235.873" stroke="#1B3C87" stroke-width="4.3" stroke-linecap="round" stroke-linejoin="round"/>
<path d="M241.86 181.728C262.72 175.277 279.662 215.043 277.745 220.519C275.828 225.995 251.624 234.846 247.532 232.563C243.44 230.28 228.28 185.926 241.86 181.728Z" fill="#46DBC9"/>
<path d="M249.992 230.275C247.838 230.618 246.162 230.613 245.326 230.15C244.062 229.444 241.761 224.721 239.535 218.405" stroke="#1B3C87" stroke-width="4.3" stroke-linecap="round" stroke-linejoin="round"/>
<path d="M274.913 212.608C275.63 215.186 275.864 217.157 275.531 218.102C274.521 220.983 267.339 224.799 260.165 227.438" stroke="#1B3C87" stroke-width="4.3" stroke-linecap="round" stroke-linejoin="round"/>
<path d="M234.397 196.583C233.513 188.074 234.571 180.883 239.649 179.31C251.173 175.749 261.504 186.289 268.115 197.363" stroke="#1B3C87" stroke-width="4.3" stroke-linecap="round" stroke-linejoin="round"/>
<path d="M180.959 285.521C201.906 285.521 278.846 327.874 278.846 330.517C278.846 333.159 279.266 349.501 276.596 349.501C194.994 349.501 158.427 332.345 158.427 303.227C158.427 291.638 169.356 285.521 180.959 285.521Z" fill="#3C3744"/>
<path d="M283.125 331.205C281.492 331.205 280.554 347.668 281.54 349.501C284.36 350.701 295.468 352.512 297.128 352.512C298.787 352.512 308.465 350.701 308.465 340.381C308.465 333.488 298.7 331.223 283.113 331.223" fill="white"/>
<path d="M204.006 290.204C234.413 302.383 276.66 326.141 276.66 328.103C276.66 330.751 277.056 347.088 274.406 347.088C192.803 347.088 156.237 329.927 156.237 300.814C156.237 289.225 167.17 283.108 178.769 283.108C180.645 283.15 182.514 283.376 184.354 283.784" stroke="#1B3C87" stroke-width="4.3" stroke-linecap="round" stroke-linejoin="round"/>
<path d="M280.914 328.788C280.344 328.788 279.856 330.816 279.508 333.519" stroke="#1B3C87" stroke-width="4.3" stroke-linecap="round" stroke-linejoin="round"/>
<path d="M279.508 333.519C278.862 338.536 278.692 345.896 279.338 347.083C282.158 348.279 293.265 350.116 294.925 350.116C296.585 350.116 306.266 348.301 306.266 337.985C306.266 332.566 300.229 330.005 290.073 329.161" stroke="#1B3C87" stroke-width="4.3" stroke-linecap="round" stroke-linejoin="round"/>
<path d="M118.961 166.673C118.389 165.935 117.88 165.142 117.44 164.303C116.858 162.748 113.645 165.949 116.675 170.84" stroke="#1B3C87" stroke-width="4.3" stroke-linecap="round" stroke-linejoin="round"/>
<path d="M127.553 177.374C126.82 176.719 124.238 173.596 121.861 170.546" stroke="#1B3C87" stroke-width="4.3" stroke-linecap="round" stroke-linejoin="round"/>
<path d="M116.957 176.472C113.661 177.85 118.486 184.587 120.918 187" stroke="#1B3C87" stroke-width="4.3" stroke-linecap="round" stroke-linejoin="round"/>
<path d="M113.55 180.025C111.569 182.863 117.179 188.724 118.803 189.599" stroke="#1B3C87" stroke-width="4.3" stroke-linecap="round" stroke-linejoin="round"/>
<path d="M291.031 269.093C302.123 269.093 308.461 281.223 308.461 288.441C308.461 329.598 200.14 349.501 197.545 349.501C194.95 349.501 191.956 333.805 191.956 332.605C191.956 331.405 267.751 269.093 291.031 269.093Z" fill="#3C3744"/>
<path d="M210.554 312.988C223.091 303.236 239.499 291.157 254.548 281.795" stroke="#1B3C87" stroke-width="4.3" stroke-linecap="round" stroke-linejoin="round"/>
<path d="M258.382 329.451C229.013 341.282 196.753 347.088 195.358 347.088C192.768 347.088 189.765 331.392 189.765 330.192C189.765 329.936 193.299 326.825 199.074 322.112" stroke="#1B3C87" stroke-width="4.3" stroke-linecap="round" stroke-linejoin="round"/>
<path d="M266.919 274.565C275.875 269.76 283.647 266.68 288.825 266.68C299.916 266.68 306.254 278.81 306.254 286.028C306.254 296.066 299.813 304.839 290.033 312.369" stroke="#1B3C87" stroke-width="4.3" stroke-linecap="round" stroke-linejoin="round"/>
<path d="M187.535 333.471C185.297 333.471 161.834 337.804 161.834 345.801C161.834 354.959 166.893 358.677 169.713 358.677C172.533 358.677 189.856 354.509 191.433 351.606C193.009 348.704 187.535 333.471 187.535 333.471Z" fill="white"/>
<path d="M181.3 353.083C185.213 351.831 188.569 350.41 189.222 349.21C190.807 346.308 185.328 331.075 185.328 331.075C183.09 331.075 159.627 335.429 159.627 343.405C159.627 352.564 164.686 356.281 167.502 356.281C168.486 356.22 169.464 356.084 170.43 355.873" stroke="#1B3C87" stroke-width="4.3" stroke-linecap="round" stroke-linejoin="round"/>
<path d="M327.499 76.9159C328.638 72.4615 328.818 67.7793 328.027 63.2358C327.235 58.6924 325.493 54.4108 322.937 50.7262C320.381 47.0417 317.079 44.054 313.292 41.9972C309.504 39.9403 305.332 38.87 301.103 38.87C296.874 38.87 292.702 39.9403 288.914 41.9972C285.126 44.054 281.825 47.0417 279.269 50.7262C276.712 54.4108 274.97 58.6924 274.179 63.2358C273.388 67.7793 273.568 72.4615 274.707 76.9159H327.499Z" stroke="#1B3C87" stroke-width="4.3" stroke-linecap="round" stroke-linejoin="round"/>
<path d="M389.35 338.887H352.93V350.099H389.35V338.887Z" stroke="#1B3C87" stroke-width="4.44" stroke-linecap="round" stroke-linejoin="round"/>
<path d="M371.136 338.887V23.1475H301.101V38.8782" stroke="#1B3C87" stroke-width="4.44" stroke-linecap="round" stroke-linejoin="round"/>
<path d="M111.3 344.493H36.6699V356.263H111.3V344.493Z" fill="#D7E0FF"/>
<path d="M122.693 334.996H48.0625V344.77H122.693V334.996Z" fill="#8088DC"/>
<path d="M114.125 325.222H39.4941V334.996H114.125V325.222Z" fill="#D7E0FF"/>
<path d="M81.6698 276.653C79.8595 276.493 77.3639 268.803 79.6416 264.956C84.4308 256.867 96.8494 254.237 101.448 242.787C101.413 246.725 105.073 278.745 81.6698 276.644" fill="#8088DC"/>
<path d="M73.9849 304.8C73.9849 290.746 83.6227 268.348 89.7428 263.708" stroke="#1B3C87" stroke-width="2.33" stroke-linecap="round" stroke-linejoin="round"/>
<path d="M84.2527 270.874C83.8249 269.877 83.1396 266.658 83.3971 264.839" stroke="#1B3C87" stroke-width="2.33" stroke-linecap="round" stroke-linejoin="round"/>
<path d="M87.4771 266.004C88.2376 266.225 91.672 265.969 93.6091 265.337" stroke="#1B3C87" stroke-width="2.33" stroke-linecap="round" stroke-linejoin="round"/>
<path d="M75.2645 294.433C75.2091 293.094 73.3196 285.928 66.0981 286.855" stroke="#1B3C87" stroke-width="2.33" stroke-linecap="round" stroke-linejoin="round"/>
<path d="M68.1936 286.799C67.9361 286.18 66.8943 284.919 66.3516 284.733" stroke="#1B3C87" stroke-width="2.33" stroke-linecap="round" stroke-linejoin="round"/>
<path d="M82.9057 325.222L86.7521 304.8H62.3506L66.1891 325.222H82.9057Z" fill="#FB5D64"/>
<path d="M0.693359 119.451L45.9787 244.529L118.391 156.661L0.693359 119.451Z" stroke="#B2C3FB" stroke-width="3.49" stroke-linecap="round" stroke-linejoin="round"/>
<path d="M72.5195 110.907V147.966H87.6556L95.0711 161.916L102.487 147.962H117.623V110.907H72.5195Z" fill="#F4F7FF"/>
<path d="M88.376 128.904C88.3768 129.414 88.2392 129.912 87.9807 130.337C87.7222 130.761 87.3544 131.092 86.9238 131.288C86.4932 131.484 86.0192 131.536 85.5617 131.437C85.1042 131.338 84.6839 131.093 84.3539 130.732C84.0238 130.372 83.799 129.913 83.7077 129.412C83.6164 128.912 83.6629 128.394 83.8411 127.922C84.0194 127.451 84.3215 127.048 84.7092 126.765C85.0969 126.481 85.5527 126.33 86.0191 126.33C86.3284 126.33 86.6348 126.396 86.9207 126.525C87.2067 126.654 87.4665 126.843 87.6855 127.082C87.9044 127.321 88.078 127.605 88.1965 127.918C88.315 128.23 88.376 128.565 88.376 128.904Z" fill="#FB5D64"/>
<path d="M97.4239 128.904C97.4247 129.414 97.287 129.913 97.0283 130.337C96.7696 130.762 96.4016 131.093 95.9707 131.289C95.5399 131.484 95.0656 131.536 94.6081 131.436C94.1505 131.337 93.7302 131.091 93.4003 130.731C93.0704 130.37 92.8459 129.91 92.7551 129.41C92.6642 128.909 92.7112 128.391 92.8901 127.919C93.069 127.448 93.3717 127.046 93.7599 126.763C94.1481 126.48 94.6044 126.329 95.0709 126.33C95.3802 126.33 95.6866 126.396 95.9725 126.525C96.2585 126.654 96.5183 126.843 96.7373 127.082C96.9562 127.321 97.1298 127.605 97.2483 127.918C97.3668 128.23 97.4278 128.565 97.4278 128.904" fill="#FB5D64"/>
<path d="M106.471 128.904C106.471 129.413 106.333 129.91 106.075 130.333C105.816 130.756 105.449 131.086 105.019 131.281C104.589 131.476 104.116 131.527 103.659 131.428C103.203 131.328 102.783 131.083 102.454 130.723C102.125 130.363 101.901 129.905 101.81 129.406C101.72 128.906 101.766 128.389 101.944 127.919C102.122 127.449 102.424 127.047 102.811 126.764C103.198 126.481 103.653 126.33 104.118 126.33C104.742 126.33 105.341 126.601 105.782 127.084C106.223 127.567 106.471 128.221 106.471 128.904Z" fill="#FB5D64"/>
</g>
<defs>
<clipPath id="clip0">
<rect width="392" height="374" fill="white"/>
</clipPath>
</defs>
</svg>
