<svg width="1440" height="758" viewBox="0 0 1440 758" fill="none" xmlns="http://www.w3.org/2000/svg">
<path d="M0 0H1440V758L0 637.5V0Z" fill="#3A506B"/>
<rect x="1256.9" y="497.327" width="17" height="17" transform="rotate(40 1256.9 497.327)" fill="#44658D"/>
<rect x="1289.08" y="524.324" width="17" height="17" transform="rotate(40 1289.08 524.324)" fill="#44658D"/>
<rect x="1321.25" y="551.321" width="17" height="17" transform="rotate(40 1321.25 551.321)" fill="#44658D"/>
<rect x="1353.42" y="578.318" width="17" height="17" transform="rotate(40 1353.42 578.318)" fill="#44658D"/>
<rect x="1385.6" y="605.315" width="17" height="17" transform="rotate(40 1385.6 605.315)" fill="#44658D"/>
<rect x="1417.77" y="632.312" width="17" height="17" transform="rotate(40 1417.77 632.312)" fill="#44658D"/>
<rect x="1449.94" y="659.309" width="17" height="17" transform="rotate(40 1449.94 659.309)" fill="#44658D"/>
<rect x="1443.31" y="275.174" width="17" height="17" transform="rotate(40 1443.31 275.174)" fill="#44658D"/>
<rect x="1229.9" y="529.501" width="17" height="17" transform="rotate(40 1229.9 529.501)" fill="#44658D"/>
<rect x="1262.08" y="556.498" width="17" height="17" transform="rotate(40 1262.08 556.498)" fill="#44658D"/>
<rect x="1294.25" y="583.495" width="17" height="17" transform="rotate(40 1294.25 583.495)" fill="#44658D"/>
<rect x="1326.43" y="610.492" width="17" height="17" transform="rotate(40 1326.43 610.492)" fill="#44658D"/>
<rect x="1358.6" y="637.489" width="17" height="17" transform="rotate(40 1358.6 637.489)" fill="#44658D"/>
<rect x="1390.77" y="664.486" width="17" height="17" transform="rotate(40 1390.77 664.486)" fill="#44658D"/>
<rect x="1422.95" y="691.483" width="17" height="17" transform="rotate(40 1422.95 691.483)" fill="#44658D"/>
<rect x="1416.31" y="307.348" width="17" height="17" transform="rotate(40 1416.31 307.348)" fill="#44658D"/>
<rect x="1202.91" y="561.674" width="17" height="17" transform="rotate(40 1202.91 561.674)" fill="#44658D"/>
<rect x="1448.49" y="334.345" width="17" height="17" transform="rotate(40 1448.49 334.345)" fill="#44658D"/>
<rect x="1235.08" y="588.672" width="17" height="17" transform="rotate(40 1235.08 588.672)" fill="#44658D"/>
<rect x="1267.25" y="615.669" width="17" height="17" transform="rotate(40 1267.25 615.669)" fill="#44658D"/>
<rect x="1299.43" y="642.666" width="17" height="17" transform="rotate(40 1299.43 642.666)" fill="#44658D"/>
<rect x="1331.6" y="669.663" width="17" height="17" transform="rotate(40 1331.6 669.663)" fill="#44658D"/>
<rect x="1363.78" y="696.66" width="17" height="17" transform="rotate(40 1363.78 696.66)" fill="#44658D"/>
<rect x="1395.95" y="723.657" width="17" height="17" transform="rotate(40 1395.95 723.657)" fill="#44658D"/>
<rect x="1389.32" y="339.522" width="17" height="17" transform="rotate(40 1389.32 339.522)" fill="#44658D"/>
<rect x="1175.91" y="593.848" width="17" height="17" transform="rotate(40 1175.91 593.848)" fill="#44658D"/>
<rect x="1421.49" y="366.519" width="17" height="17" transform="rotate(40 1421.49 366.519)" fill="#44658D"/>
<rect x="1208.08" y="620.845" width="17" height="17" transform="rotate(40 1208.08 620.845)" fill="#44658D"/>
<rect x="1240.26" y="647.843" width="17" height="17" transform="rotate(40 1240.26 647.843)" fill="#44658D"/>
<rect x="1272.43" y="674.84" width="17" height="17" transform="rotate(40 1272.43 674.84)" fill="#44658D"/>
<rect x="1304.61" y="701.837" width="17" height="17" transform="rotate(40 1304.61 701.837)" fill="#44658D"/>
<rect x="1362.32" y="371.695" width="17" height="17" transform="rotate(40 1362.32 371.695)" fill="#44658D"/>
<rect x="1148.91" y="626.022" width="17" height="17" transform="rotate(40 1148.91 626.022)" fill="#44658D"/>
<rect x="1394.49" y="398.693" width="17" height="17" transform="rotate(40 1394.49 398.693)" fill="#44658D"/>
<rect x="1181.09" y="653.019" width="17" height="17" transform="rotate(40 1181.09 653.019)" fill="#44658D"/>
<rect x="1426.67" y="425.69" width="17" height="17" transform="rotate(40 1426.67 425.69)" fill="#44658D"/>
<rect x="1213.26" y="680.016" width="17" height="17" transform="rotate(40 1213.26 680.016)" fill="#44658D"/>
<rect x="1245.43" y="707.013" width="17" height="17" transform="rotate(40 1245.43 707.013)" fill="#44658D"/>
<rect x="1335.32" y="403.869" width="17" height="17" transform="rotate(40 1335.32 403.869)" fill="#44658D"/>
<rect x="1121.92" y="658.196" width="17" height="17" transform="rotate(40 1121.92 658.196)" fill="#44658D"/>
<rect x="1367.5" y="430.866" width="17" height="17" transform="rotate(40 1367.5 430.866)" fill="#44658D"/>
<rect x="1154.09" y="685.193" width="17" height="17" transform="rotate(40 1154.09 685.193)" fill="#44658D"/>
<rect x="1399.67" y="457.863" width="17" height="17" transform="rotate(40 1399.67 457.863)" fill="#44658D"/>
<rect x="1431.84" y="484.861" width="17" height="17" transform="rotate(40 1431.84 484.861)" fill="#44658D"/>
<rect x="1308.32" y="436.043" width="17" height="17" transform="rotate(40 1308.32 436.043)" fill="#44658D"/>
<rect x="1094.92" y="690.37" width="17" height="17" transform="rotate(40 1094.92 690.37)" fill="#44658D"/>
<rect x="1340.5" y="463.04" width="17" height="17" transform="rotate(40 1340.5 463.04)" fill="#44658D"/>
<rect x="1372.67" y="490.037" width="17" height="17" transform="rotate(40 1372.67 490.037)" fill="#44658D"/>
<rect x="1404.85" y="517.034" width="17" height="17" transform="rotate(40 1404.85 517.034)" fill="#44658D"/>
<rect x="1437.02" y="544.031" width="17" height="17" transform="rotate(40 1437.02 544.031)" fill="#44658D"/>
<rect x="1281.33" y="468.217" width="17" height="17" transform="rotate(40 1281.33 468.217)" fill="#44658D"/>
<rect x="1313.5" y="495.214" width="17" height="17" transform="rotate(40 1313.5 495.214)" fill="#44658D"/>
<rect x="1345.67" y="522.211" width="17" height="17" transform="rotate(40 1345.67 522.211)" fill="#44658D"/>
<rect x="1377.85" y="549.208" width="17" height="17" transform="rotate(40 1377.85 549.208)" fill="#44658D"/>
<rect x="1410.02" y="576.205" width="17" height="17" transform="rotate(40 1410.02 576.205)" fill="#44658D"/>
<rect x="1442.2" y="603.202" width="17" height="17" transform="rotate(40 1442.2 603.202)" fill="#44658D"/>
<rect x="1254.33" y="500.391" width="17" height="17" transform="rotate(40 1254.33 500.391)" fill="#44658D"/>
<rect x="1286.5" y="527.388" width="17" height="17" transform="rotate(40 1286.5 527.388)" fill="#44658D"/>
<rect x="1318.68" y="554.385" width="17" height="17" transform="rotate(40 1318.68 554.385)" fill="#44658D"/>
<rect x="1350.85" y="581.382" width="17" height="17" transform="rotate(40 1350.85 581.382)" fill="#44658D"/>
<rect x="1383.03" y="608.379" width="17" height="17" transform="rotate(40 1383.03 608.379)" fill="#44658D"/>
<rect x="1415.2" y="635.376" width="17" height="17" transform="rotate(40 1415.2 635.376)" fill="#44658D"/>
<rect x="1447.37" y="662.373" width="17" height="17" transform="rotate(40 1447.37 662.373)" fill="#44658D"/>
<rect x="1227.33" y="532.565" width="17" height="17" transform="rotate(40 1227.33 532.565)" fill="#44658D"/>
<rect x="1259.51" y="559.562" width="17" height="17" transform="rotate(40 1259.51 559.562)" fill="#44658D"/>
<rect x="1291.68" y="586.559" width="17" height="17" transform="rotate(40 1291.68 586.559)" fill="#44658D"/>
<rect x="1323.85" y="613.556" width="17" height="17" transform="rotate(40 1323.85 613.556)" fill="#44658D"/>
<rect x="1356.03" y="640.553" width="17" height="17" transform="rotate(40 1356.03 640.553)" fill="#44658D"/>
<rect x="1388.2" y="667.55" width="17" height="17" transform="rotate(40 1388.2 667.55)" fill="#44658D"/>
<rect x="1420.38" y="694.547" width="17" height="17" transform="rotate(40 1420.38 694.547)" fill="#44658D"/>
</svg>
