<svg width="69" height="69" viewBox="0 0 69 69" fill="none" xmlns="http://www.w3.org/2000/svg">
<circle cx="34.5" cy="34.5" r="34" fill="#FF9A3D" stroke="#FF9A3D"/>
<path d="M27.89 37.66C27.89 35.64 28.17 33.86 28.73 32.32C29.29 30.76 30.08 29.45 31.1 28.39C32.14 27.33 33.39 26.53 34.85 25.99C36.33 25.43 37.99 25.14 39.83 25.12L40.04 27.46C38.86 27.48 37.78 27.61 36.8 27.85C35.84 28.09 34.98 28.47 34.22 28.99C33.46 29.51 32.82 30.19 32.3 31.03C31.78 31.85 31.39 32.87 31.13 34.09C31.65 33.85 32.23 33.65 32.87 33.49C33.53 33.33 34.21 33.25 34.91 33.25C36.09 33.25 37.09 33.43 37.91 33.79C38.73 34.15 39.4 34.63 39.92 35.23C40.44 35.81 40.81 36.49 41.03 37.27C41.27 38.03 41.39 38.83 41.39 39.67C41.39 40.43 41.26 41.21 41 42.01C40.74 42.81 40.34 43.54 39.8 44.2C39.28 44.86 38.61 45.4 37.79 45.82C36.97 46.24 36 46.45 34.88 46.45C32.6 46.45 30.86 45.67 29.66 44.11C28.48 42.55 27.89 40.4 27.89 37.66ZM34.61 35.53C33.91 35.53 33.26 35.6 32.66 35.74C32.06 35.86 31.46 36.05 30.86 36.31C30.84 36.53 30.82 36.76 30.8 37C30.8 37.22 30.8 37.44 30.8 37.66C30.8 38.54 30.86 39.37 30.98 40.15C31.1 40.93 31.31 41.62 31.61 42.22C31.93 42.8 32.35 43.27 32.87 43.63C33.39 43.97 34.05 44.14 34.85 44.14C35.51 44.14 36.07 44 36.53 43.72C36.99 43.44 37.37 43.08 37.67 42.64C37.97 42.2 38.18 41.73 38.3 41.23C38.44 40.71 38.51 40.21 38.51 39.73C38.51 38.37 38.18 37.33 37.52 36.61C36.88 35.89 35.91 35.53 34.61 35.53Z" fill="white"/>
</svg>
