<svg width="69" height="69" viewBox="0 0 69 69" fill="none" xmlns="http://www.w3.org/2000/svg">
<circle cx="34.5" cy="34.5" r="34" fill="#FF9A3D" stroke="#FF9A3D"/>
<path d="M32.554 43.028C34.2747 43.028 35.5023 42.6897 36.237 42.013C36.991 41.3363 37.368 40.4277 37.368 39.287C37.368 38.5523 37.2133 37.9337 36.904 37.431C36.5947 36.9283 36.1887 36.532 35.686 36.242C35.1833 35.9327 34.5937 35.72 33.917 35.604C33.2597 35.4687 32.583 35.401 31.887 35.401H31.191V33.197H32.148C32.6313 33.197 33.1243 33.1487 33.627 33.052C34.149 32.9553 34.6227 32.7813 35.048 32.53C35.4733 32.2787 35.8213 31.9403 36.092 31.515C36.3627 31.0703 36.498 30.5193 36.498 29.862C36.498 29.3207 36.4013 28.8567 36.208 28.47C36.0147 28.0833 35.7537 27.7643 35.425 27.513C35.1157 27.2617 34.7483 27.0877 34.323 26.991C33.917 26.875 33.482 26.817 33.018 26.817C32.09 26.817 31.2973 26.9523 30.64 27.223C30.002 27.4937 29.4607 27.774 29.016 28.064L27.972 26.005C28.204 25.8503 28.494 25.686 28.842 25.512C29.2093 25.3187 29.6153 25.1447 30.06 24.99C30.5047 24.8353 30.9783 24.7097 31.481 24.613C32.003 24.497 32.5443 24.439 33.105 24.439C34.1683 24.439 35.0867 24.5743 35.86 24.845C36.6333 25.0963 37.2713 25.4637 37.774 25.947C38.2767 26.411 38.6537 26.9717 38.905 27.629C39.1563 28.267 39.282 28.963 39.282 29.717C39.282 30.761 38.9823 31.66 38.383 32.414C37.7837 33.1487 37.0587 33.7093 36.208 34.096C36.73 34.2507 37.2327 34.473 37.716 34.763C38.1993 35.053 38.615 35.4203 38.963 35.865C39.3303 36.3097 39.6203 36.822 39.833 37.402C40.065 37.982 40.181 38.6297 40.181 39.345C40.181 40.215 40.0263 41.027 39.717 41.781C39.427 42.5157 38.963 43.1537 38.325 43.695C37.7063 44.2363 36.9233 44.6617 35.976 44.971C35.0287 45.2803 33.9073 45.435 32.612 45.435C32.1093 45.435 31.5873 45.3963 31.046 45.319C30.524 45.2417 30.031 45.145 29.567 45.029C29.103 44.913 28.697 44.797 28.349 44.681C28.001 44.565 27.7497 44.4683 27.595 44.391L28.117 42.042C28.4457 42.1967 28.987 42.3997 29.741 42.651C30.5143 42.9023 31.452 43.028 32.554 43.028Z" fill="white"/>
</svg>
