<svg width="69" height="69" viewBox="0 0 69 69" fill="none" xmlns="http://www.w3.org/2000/svg">
<circle cx="34.5" cy="34.5" r="34" fill="#FF9A3D" stroke="#FF9A3D"/>
<path d="M31.771 32.646C34.6903 32.762 36.8267 33.4 38.18 34.56C39.5527 35.72 40.239 37.2957 40.239 39.287C40.239 40.1763 40.0843 40.998 39.775 41.752C39.485 42.506 39.0307 43.1537 38.412 43.695C37.8127 44.2363 37.049 44.6617 36.121 44.971C35.193 45.2803 34.091 45.435 32.815 45.435C32.3123 45.435 31.8 45.3963 31.278 45.319C30.756 45.2417 30.2727 45.145 29.828 45.029C29.3833 44.913 28.987 44.797 28.639 44.681C28.291 44.565 28.0397 44.4683 27.885 44.391L28.407 42.042C28.7357 42.1967 29.2673 42.3997 30.002 42.651C30.756 42.9023 31.6743 43.028 32.757 43.028C33.627 43.028 34.352 42.9313 34.932 42.738C35.5313 42.5447 36.0147 42.2837 36.382 41.955C36.7493 41.6263 37.0103 41.2493 37.165 40.824C37.339 40.3793 37.426 39.9153 37.426 39.432C37.426 38.6973 37.3003 38.0497 37.049 37.489C36.7977 36.909 36.353 36.4257 35.715 36.039C35.077 35.6523 34.2263 35.3623 33.163 35.169C32.0997 34.9563 30.756 34.85 29.132 34.85C29.248 33.9027 29.335 33.0133 29.393 32.182C29.4703 31.3507 29.538 30.5387 29.596 29.746C29.654 28.9533 29.7023 28.1703 29.741 27.397C29.7797 26.6043 29.8183 25.773 29.857 24.903H39.543V27.194H32.206C32.1867 27.484 32.1577 27.8803 32.119 28.383C32.0803 28.8663 32.0417 29.3787 32.003 29.92C31.9643 30.442 31.9257 30.9543 31.887 31.457C31.8483 31.9597 31.8097 32.356 31.771 32.646Z" fill="white"/>
</svg>
