<svg width="69" height="69" viewBox="0 0 69 69" fill="none" xmlns="http://www.w3.org/2000/svg">
<circle cx="34.5" cy="34.5" r="34" fill="#FF9A3D" stroke="#FF9A3D"/>
<path d="M40.01 30.52C40.01 31.24 39.86 31.94 39.56 32.62C39.28 33.28 38.9 33.94 38.42 34.6C37.94 35.24 37.4 35.88 36.8 36.52C36.2 37.14 35.6 37.75 35 38.35C34.66 38.69 34.26 39.09 33.8 39.55C33.36 40.01 32.94 40.49 32.54 40.99C32.14 41.49 31.8 41.97 31.52 42.43C31.26 42.89 31.13 43.29 31.13 43.63H40.7V46H28.1C28.08 45.88 28.07 45.76 28.07 45.64C28.07 45.52 28.07 45.41 28.07 45.31C28.07 44.37 28.22 43.5 28.52 42.7C28.84 41.88 29.25 41.11 29.75 40.39C30.25 39.67 30.81 38.99 31.43 38.35C32.05 37.71 32.66 37.09 33.26 36.49C33.76 36.01 34.23 35.54 34.67 35.08C35.13 34.6 35.53 34.13 35.87 33.67C36.23 33.19 36.51 32.7 36.71 32.2C36.93 31.7 37.04 31.17 37.04 30.61C37.04 30.01 36.94 29.5 36.74 29.08C36.56 28.66 36.31 28.31 35.99 28.03C35.67 27.75 35.29 27.55 34.85 27.43C34.43 27.29 33.98 27.22 33.5 27.22C32.92 27.22 32.39 27.3 31.91 27.46C31.43 27.62 31 27.81 30.62 28.03C30.24 28.23 29.92 28.45 29.66 28.69C29.4 28.91 29.2 29.08 29.06 29.2L27.68 27.22C27.86 27.02 28.13 26.78 28.49 26.5C28.85 26.2 29.28 25.92 29.78 25.66C30.28 25.4 30.84 25.18 31.46 25C32.08 24.82 32.75 24.73 33.47 24.73C35.65 24.73 37.28 25.24 38.36 26.26C39.46 27.26 40.01 28.68 40.01 30.52Z" fill="white"/>
</svg>
