<svg width="1440" height="403" viewBox="0 0 1440 403" fill="none" xmlns="http://www.w3.org/2000/svg">
<path d="M0 16H1440V403H0V16Z" fill="#D6DFFF"/>
<rect x="477.646" y="88.3872" width="14" height="14" transform="rotate(49.5 477.646 88.3872)" fill="#C1CDF5"/>
<rect x="727.369" y="171.22" width="14" height="14" transform="rotate(49.5 727.369 171.22)" fill="#C1CDF5"/>
<rect x="684.005" y="128.588" width="14" height="14" transform="rotate(49.5 684.005 128.588)" fill="#C1CDF5"/>
<rect x="685.371" y="171.586" width="14" height="14" transform="rotate(49.5 685.371 171.586)" fill="#C1CDF5"/>
<rect x="641.64" y="86.9561" width="14" height="14" transform="rotate(49.5 641.64 86.9561)" fill="#C1CDF5"/>
<rect x="642.006" y="128.954" width="14" height="14" transform="rotate(49.5 642.006 128.954)" fill="#C1CDF5"/>
<rect x="643.373" y="171.953" width="14" height="14" transform="rotate(49.5 643.373 171.953)" fill="#C1CDF5"/>
<rect x="599.641" y="87.3223" width="14" height="14" transform="rotate(49.5 599.641 87.3223)" fill="#C1CDF5"/>
<rect x="600.008" y="129.321" width="14" height="14" transform="rotate(49.5 600.008 129.321)" fill="#C1CDF5"/>
<rect x="601.374" y="172.319" width="14" height="14" transform="rotate(49.5 601.374 172.319)" fill="#C1CDF5"/>
<rect x="557.643" y="87.689" width="14" height="14" transform="rotate(49.5 557.643 87.689)" fill="#C1CDF5"/>
<rect x="558.009" y="129.688" width="14" height="14" transform="rotate(49.5 558.009 129.688)" fill="#C1CDF5"/>
<rect x="559.375" y="172.686" width="14" height="14" transform="rotate(49.5 559.375 172.686)" fill="#C1CDF5"/>
<rect x="515.645" y="88.0557" width="14" height="14" transform="rotate(49.5 515.645 88.0557)" fill="#C1CDF5"/>
<rect x="516.011" y="130.054" width="14" height="14" transform="rotate(49.5 516.011 130.054)" fill="#C1CDF5"/>
<rect x="685.646" y="88.3872" width="14" height="14" transform="rotate(49.5 685.646 88.3872)" fill="#C1CDF5"/>
<rect x="935.369" y="171.22" width="14" height="14" transform="rotate(49.5 935.369 171.22)" fill="#C1CDF5"/>
<rect x="892.005" y="128.588" width="14" height="14" transform="rotate(49.5 892.005 128.588)" fill="#C1CDF5"/>
<rect x="893.371" y="171.586" width="14" height="14" transform="rotate(49.5 893.371 171.586)" fill="#C1CDF5"/>
<rect x="849.64" y="86.9561" width="14" height="14" transform="rotate(49.5 849.64 86.9561)" fill="#C1CDF5"/>
<rect x="850.006" y="128.954" width="14" height="14" transform="rotate(49.5 850.006 128.954)" fill="#C1CDF5"/>
<rect x="851.373" y="171.953" width="14" height="14" transform="rotate(49.5 851.373 171.953)" fill="#C1CDF5"/>
<rect x="807.641" y="87.3223" width="14" height="14" transform="rotate(49.5 807.641 87.3223)" fill="#C1CDF5"/>
<rect x="808.008" y="129.321" width="14" height="14" transform="rotate(49.5 808.008 129.321)" fill="#C1CDF5"/>
<rect x="809.374" y="172.319" width="14" height="14" transform="rotate(49.5 809.374 172.319)" fill="#C1CDF5"/>
<rect x="765.643" y="87.689" width="14" height="14" transform="rotate(49.5 765.643 87.689)" fill="#C1CDF5"/>
<rect x="766.009" y="129.688" width="14" height="14" transform="rotate(49.5 766.009 129.688)" fill="#C1CDF5"/>
<rect x="767.375" y="172.686" width="14" height="14" transform="rotate(49.5 767.375 172.686)" fill="#C1CDF5"/>
<rect x="723.645" y="88.0557" width="14" height="14" transform="rotate(49.5 723.645 88.0557)" fill="#C1CDF5"/>
<rect x="724.011" y="130.054" width="14" height="14" transform="rotate(49.5 724.011 130.054)" fill="#C1CDF5"/>
<rect x="1189.17" y="384.067" width="11" height="11" transform="rotate(179.5 1189.17 384.067)" fill="#C1CDF5"/>
<rect x="1215.67" y="383.336" width="11" height="10" transform="rotate(179.5 1215.67 383.336)" fill="#C1CDF5"/>
<rect x="1214.94" y="356.842" width="10" height="10" transform="rotate(179.5 1214.94 356.842)" fill="#C1CDF5"/>
<rect x="1241.67" y="383.109" width="11" height="10" transform="rotate(179.5 1241.67 383.109)" fill="#C1CDF5"/>
<rect x="1240.93" y="356.615" width="10" height="10" transform="rotate(179.5 1240.93 356.615)" fill="#C1CDF5"/>
<rect x="1240.71" y="330.616" width="10" height="10" transform="rotate(179.5 1240.71 330.616)" fill="#C1CDF5"/>
<rect x="1268.17" y="383.378" width="11" height="11" transform="rotate(179.5 1268.17 383.378)" fill="#C1CDF5"/>
<rect x="1267.44" y="356.884" width="10" height="11" transform="rotate(179.5 1267.44 356.884)" fill="#C1CDF5"/>
<rect x="1267.21" y="330.885" width="10" height="11" transform="rotate(179.5 1267.21 330.885)" fill="#C1CDF5"/>
<rect x="1267.48" y="304.381" width="11" height="11" transform="rotate(179.5 1267.48 304.381)" fill="#C1CDF5"/>
<rect x="1295.17" y="383.143" width="11" height="11" transform="rotate(179.5 1295.17 383.143)" fill="#C1CDF5"/>
<rect x="1294.44" y="356.648" width="10" height="11" transform="rotate(179.5 1294.44 356.648)" fill="#C1CDF5"/>
<rect x="1294.21" y="330.649" width="10" height="11" transform="rotate(179.5 1294.21 330.649)" fill="#C1CDF5"/>
<rect x="1294.48" y="304.146" width="11" height="11" transform="rotate(179.5 1294.48 304.146)" fill="#C1CDF5"/>
<rect x="1294.24" y="277.146" width="11" height="11" transform="rotate(179.5 1294.24 277.146)" fill="#C1CDF5"/>
<rect x="1321.17" y="382.916" width="11" height="11" transform="rotate(179.5 1321.17 382.916)" fill="#C1CDF5"/>
<rect x="1320.44" y="356.421" width="10" height="11" transform="rotate(179.5 1320.44 356.421)" fill="#C1CDF5"/>
<rect x="1320.21" y="330.422" width="10" height="11" transform="rotate(179.5 1320.21 330.422)" fill="#C1CDF5"/>
<rect x="1320.48" y="303.918" width="11" height="11" transform="rotate(179.5 1320.48 303.918)" fill="#C1CDF5"/>
<rect x="1320.24" y="276.92" width="11" height="11" transform="rotate(179.5 1320.24 276.92)" fill="#C1CDF5"/>
<rect x="1320.02" y="250.921" width="11" height="11" transform="rotate(179.5 1320.02 250.921)" fill="#C1CDF5"/>
<rect x="1348.17" y="382.68" width="11" height="11" transform="rotate(179.5 1348.17 382.68)" fill="#C1CDF5"/>
<rect x="1347.44" y="356.186" width="10" height="11" transform="rotate(179.5 1347.44 356.186)" fill="#C1CDF5"/>
<rect x="1347.21" y="330.187" width="10" height="11" transform="rotate(179.5 1347.21 330.187)" fill="#C1CDF5"/>
<rect x="1347.48" y="303.683" width="11" height="11" transform="rotate(179.5 1347.48 303.683)" fill="#C1CDF5"/>
<rect x="1347.24" y="276.684" width="11" height="11" transform="rotate(179.5 1347.24 276.684)" fill="#C1CDF5"/>
<rect x="1347.01" y="250.685" width="11" height="11" transform="rotate(179.5 1347.01 250.685)" fill="#C1CDF5"/>
<rect x="1346.78" y="223.686" width="11" height="11" transform="rotate(179.5 1346.78 223.686)" fill="#C1CDF5"/>
<rect x="1374.66" y="381.949" width="11" height="10" transform="rotate(179.5 1374.66 381.949)" fill="#C1CDF5"/>
<rect x="1373.93" y="355.454" width="10" height="10" transform="rotate(179.5 1373.93 355.454)" fill="#C1CDF5"/>
<rect x="1373.7" y="329.455" width="10" height="10" transform="rotate(179.5 1373.7 329.455)" fill="#C1CDF5"/>
<rect x="1373.97" y="302.952" width="11" height="10" transform="rotate(179.5 1373.97 302.952)" fill="#C1CDF5"/>
<rect x="1373.74" y="275.953" width="11" height="10" transform="rotate(179.5 1373.74 275.953)" fill="#C1CDF5"/>
<rect x="1373.51" y="249.954" width="11" height="10" transform="rotate(179.5 1373.51 249.954)" fill="#C1CDF5"/>
<rect x="1373.27" y="222.955" width="11" height="10" transform="rotate(179.5 1373.27 222.955)" fill="#C1CDF5"/>
<rect x="1372.54" y="196.46" width="10" height="10" transform="rotate(179.5 1372.54 196.46)" fill="#C1CDF5"/>
<rect x="1400.66" y="381.722" width="11" height="10" transform="rotate(179.5 1400.66 381.722)" fill="#C1CDF5"/>
<rect x="1399.93" y="355.228" width="10" height="10" transform="rotate(179.5 1399.93 355.228)" fill="#C1CDF5"/>
<rect x="1399.7" y="329.229" width="10" height="10" transform="rotate(179.5 1399.7 329.229)" fill="#C1CDF5"/>
<rect x="1399.97" y="302.725" width="11" height="10" transform="rotate(179.5 1399.97 302.725)" fill="#C1CDF5"/>
<rect x="1399.74" y="275.726" width="11" height="10" transform="rotate(179.5 1399.74 275.726)" fill="#C1CDF5"/>
<rect x="1399.51" y="249.727" width="11" height="10" transform="rotate(179.5 1399.51 249.727)" fill="#C1CDF5"/>
<rect x="1399.27" y="222.728" width="11" height="10" transform="rotate(179.5 1399.27 222.728)" fill="#C1CDF5"/>
<rect x="1398.54" y="196.233" width="10" height="10" transform="rotate(179.5 1398.54 196.233)" fill="#C1CDF5"/>
<rect x="1398.31" y="170.234" width="10" height="10" transform="rotate(179.5 1398.31 170.234)" fill="#C1CDF5"/>
<rect x="1427.16" y="381.991" width="11" height="11" transform="rotate(179.5 1427.16 381.991)" fill="#C1CDF5"/>
<rect x="1426.43" y="355.496" width="10" height="11" transform="rotate(179.5 1426.43 355.496)" fill="#C1CDF5"/>
<rect x="1426.21" y="329.497" width="10" height="11" transform="rotate(179.5 1426.21 329.497)" fill="#C1CDF5"/>
<rect x="1426.47" y="302.994" width="11" height="11" transform="rotate(179.5 1426.47 302.994)" fill="#C1CDF5"/>
<rect x="1426.24" y="275.995" width="11" height="11" transform="rotate(179.5 1426.24 275.995)" fill="#C1CDF5"/>
<rect x="1426.01" y="249.996" width="11" height="11" transform="rotate(179.5 1426.01 249.996)" fill="#C1CDF5"/>
<rect x="1425.78" y="222.997" width="11" height="11" transform="rotate(179.5 1425.78 222.997)" fill="#C1CDF5"/>
<rect x="1425.04" y="196.502" width="10" height="11" transform="rotate(179.5 1425.04 196.502)" fill="#C1CDF5"/>
<rect x="1424.82" y="170.503" width="10" height="11" transform="rotate(179.5 1424.82 170.503)" fill="#C1CDF5"/>
<rect x="1425.09" y="144" width="11" height="11" transform="rotate(179.5 1425.09 144)" fill="#C1CDF5"/>
</svg>
