<svg width="69" height="69" viewBox="0 0 69 69" fill="none" xmlns="http://www.w3.org/2000/svg">
<circle cx="34.5" cy="34.5" r="34" fill="#FF9A3D" stroke="#FF9A3D"/>
<path d="M27.2 38.8C27.58 37.92 28.1 36.9 28.76 35.74C29.42 34.56 30.16 33.35 30.98 32.11C31.82 30.87 32.71 29.65 33.65 28.45C34.61 27.25 35.57 26.17 36.53 25.21H39.2V38.41H41.66V40.69H39.2V46H36.5V40.69H27.2V38.8ZM36.5 28.51C35.9 29.15 35.29 29.87 34.67 30.67C34.07 31.45 33.48 32.27 32.9 33.13C32.32 33.99 31.77 34.87 31.25 35.77C30.75 36.67 30.3 37.55 29.9 38.41H36.5V28.51Z" fill="white"/>
</svg>
