<svg width="294" height="516" viewBox="0 0 294 516" fill="none" xmlns="http://www.w3.org/2000/svg">
<path fill-rule="evenodd" clip-rule="evenodd" d="M42.3328 3.83186C98.9988 -8.97502 169.546 11.1142 206.021 52.2379C243.76 94.7861 208.959 159.718 226.768 211.77C239.319 248.457 289.154 269.53 293.43 307.727C297.767 346.473 276.792 385.3 249.578 415.551C224.024 443.958 182.667 453.681 146.778 470.747C112.29 487.147 80.9348 509.124 42.3328 514.1C0.630737 519.476 -41.305 513.016 -80.9188 500.101C-125.822 485.462 -179.207 472.642 -201.523 434.599C-223.868 396.504 -195.128 350.798 -193.76 307.727C-192.439 266.119 -215.46 221.646 -193.595 184.979C-171.687 148.24 -115.178 143.919 -79.9476 116.869C-34.7306 82.1507 -15.2871 16.8543 42.3328 3.83186Z" fill="#B2F7EF" fill-opacity="0.43"/>
</svg>
