<svg width="437" height="545" viewBox="0 0 437 545" fill="none" xmlns="http://www.w3.org/2000/svg">
<path d="M374.654 115.989C409.609 138.427 425.501 190.512 429.676 240.792C433.85 291.073 426.406 339.556 408.37 392.313C390.334 445.071 361.805 502.229 316.917 521.743C271.929 541.358 210.603 523.321 164.49 493.554C118.511 463.793 87.618 422.194 58.7559 377.093C29.8938 331.992 2.9492 283.296 0.246081 228.502C-2.57022 173.714 18.8483 112.74 61.3525 91.6347C103.963 70.5557 167.666 89.4908 226.629 95.2433C285.591 100.996 339.707 93.5522 374.654 115.989Z" fill="#D5F7F3"/>
<path d="M266.317 544.52C285.052 497.349 321.577 473.16 323.575 415.243C323.641 410.955 253.001 365.395 220.044 366.161C187.087 366.926 143.951 544.52 143.951 544.52H266.317Z" fill="#7BDFF2"/>
<path d="M333.868 35.2487H122.485V411.914H333.868V35.2487Z" fill="white"/>
<path d="M312.809 200.166H143.558V265.699H312.809V200.166Z" fill="#7BDFF2"/>
<path d="M212.468 219.054H289.826" stroke="#B0C3FA" stroke-width="4.78" stroke-linecap="round" stroke-linejoin="round"/>
<path d="M212.468 239.334H243.893" stroke="#B0C3FA" stroke-width="4.78" stroke-linecap="round" stroke-linejoin="round"/>
<path d="M177.267 250.806C187.14 250.806 195.144 242.802 195.144 232.929C195.144 223.056 187.14 215.053 177.267 215.053C167.394 215.053 159.391 223.056 159.391 232.929C159.391 242.802 167.394 250.806 177.267 250.806Z" fill="#ECC953"/>
<path d="M292.416 489.279C306.484 467.454 319.094 445.284 320.246 411.914" stroke="#1B3C87" stroke-width="4.78" stroke-linecap="round" stroke-linejoin="round"/>
<path d="M262.988 541.191C266.965 531.4 271.746 521.956 277.282 512.955" stroke="#1B3C87" stroke-width="4.78" stroke-linecap="round" stroke-linejoin="round"/>
<path d="M312.809 103.952H143.558V169.486H312.809V103.952Z" fill="#7BDFF2"/>
<path d="M333.868 35.2487H122.485V74.0377H333.868V35.2487Z" fill="#D6DFFF"/>
<path d="M333.868 373.118H122.485V411.907H333.868V373.118Z" fill="#D6DFFF"/>
<path d="M212.468 54.6432H243.893" stroke="#1B3C87" stroke-width="4.78" stroke-linecap="round" stroke-linejoin="round"/>
<path d="M228.18 401.827C233.324 401.827 237.495 397.657 237.495 392.513C237.495 387.369 233.324 383.198 228.18 383.198C223.036 383.198 218.866 387.369 218.866 392.513C218.866 397.657 223.036 401.827 228.18 401.827Z" fill="#B0C3FA"/>
<path d="M91.5264 544.52C101.513 506.57 103.511 361.427 91.5264 328.137C108.837 315.487 180.077 261.558 190.729 252.903C200.716 259.561 196.056 314.822 163.432 338.79V355.435C180.743 355.435 206.708 413.359 192.061 474.612C183.599 501.443 209.804 544.52 209.804 544.52H91.5264Z" fill="#7BDFF2"/>
<path d="M176.574 366.081C189.278 386.914 199.011 428.279 188.732 471.276" stroke="#1B3C87" stroke-width="4.78" stroke-linecap="round" stroke-linejoin="round"/>
<path d="M177.267 257.497C182.02 253.828 185.589 251.045 187.4 249.574C197.387 256.232 192.726 311.493 160.103 335.461V347.572" stroke="#1B3C87" stroke-width="4.78" stroke-linecap="round" stroke-linejoin="round"/>
<path d="M98.2041 317.392C113.218 306.193 137.706 287.697 157.46 272.677" stroke="#1B3C87" stroke-width="4.78" stroke-linecap="round" stroke-linejoin="round"/>
<path d="M88.1973 541.191C96.0669 511.29 98.9698 414.864 93.9897 359.01" stroke="#1B3C87" stroke-width="4.78" stroke-linecap="round" stroke-linejoin="round"/>
<path d="M275.172 122.84H289.826" stroke="#B0C3FA" stroke-width="4.78" stroke-linecap="round" stroke-linejoin="round"/>
<path d="M212.468 122.84H260.518" stroke="#B0C3FA" stroke-width="4.78" stroke-linecap="round" stroke-linejoin="round"/>
<path d="M212.468 143.12H243.893" stroke="#B0C3FA" stroke-width="4.78" stroke-linecap="round" stroke-linejoin="round"/>
<path d="M177.267 154.592C187.14 154.592 195.144 146.588 195.144 136.716C195.144 126.843 187.14 118.839 177.267 118.839C167.394 118.839 159.391 126.843 159.391 136.716C159.391 146.588 167.394 154.592 177.267 154.592Z" fill="#FB5D64"/>
<path d="M356.012 314.602C405.168 347.452 325.586 409.81 304.333 427.034C298.834 423.093 295.019 369.596 356.012 314.602Z" fill="#7BDFF2"/>
<path d="M318.362 409.324C311.311 415.429 305.079 420.396 301.004 423.705C293.354 419.557 295.991 389.317 317.649 355.615" stroke="#1B3C87" stroke-width="4.78" stroke-linecap="round" stroke-linejoin="round"/>
<path d="M352.683 311.273C379.588 329.249 367.923 356.067 348.369 379.49" stroke="#1B3C87" stroke-width="4.78" stroke-linecap="round" stroke-linejoin="round"/>
<path d="M377.264 82.8129C382.133 82.8129 386.079 78.8663 386.079 73.9978C386.079 69.1294 382.133 65.1827 377.264 65.1827C372.396 65.1827 368.449 69.1294 368.449 73.9978C368.449 78.8663 372.396 82.8129 377.264 82.8129Z" stroke="#B0C3FA" stroke-width="4.78" stroke-linecap="round" stroke-linejoin="round"/>
<path d="M349.241 23.1313C349.241 22.8583 349.241 22.5787 349.241 22.299C349.241 17.8765 350.721 13.5811 353.444 10.0963C356.167 6.6115 359.977 4.13745 364.268 3.06783C368.559 1.99821 373.085 2.39447 377.125 4.19356C381.165 5.99265 384.487 9.09121 386.563 12.9962C388.639 16.9012 389.349 21.3883 388.581 25.7436C387.813 30.0988 385.61 34.072 382.323 37.0309C379.036 39.9898 374.854 41.7645 370.442 42.0725C366.031 42.3806 361.643 41.2043 357.976 38.7308" stroke="#B0C3FA" stroke-width="4.78" stroke-linecap="round" stroke-linejoin="round"/>
<path d="M415.993 49.743C413.151 48.8887 410.655 47.1524 408.865 44.7852C407.076 42.4181 406.086 39.5429 406.038 36.5757C405.991 33.6086 406.889 30.7033 408.603 28.2804C410.316 25.8575 412.756 24.0426 415.569 23.0983C418.383 22.154 421.423 22.1294 424.252 23.0278C427.08 23.9263 429.549 25.7014 431.301 28.0962C433.054 30.491 433.999 33.3812 434 36.3488C434.001 39.3163 433.058 42.2072 431.307 44.6031" stroke="#B0C3FA" stroke-width="4.78" stroke-linecap="round" stroke-linejoin="round"/>
<path d="M338.535 284.861C286.604 316.153 280.611 384.064 287.269 388.059C305.912 380.735 375.154 304.169 375.154 268.882C375.154 260.892 351.998 245.779 346.678 243.615C343.695 242.45 346.871 237.543 336.252 247.363C336.318 257.117 335.559 275.327 338.535 284.861Z" fill="#7BDFF2"/>
<path d="M343.349 240.286C348.675 242.45 371.825 257.563 371.825 265.553C371.825 274.208 367.637 285.407 361.045 297.431" stroke="#1B3C87" stroke-width="4.78" stroke-linecap="round" stroke-linejoin="round"/>
<path d="M335.013 335.448C315.339 359.996 293.281 381.061 283.94 384.716C277.282 380.722 283.274 312.811 335.206 281.519" stroke="#1B3C87" stroke-width="4.78" stroke-linecap="round" stroke-linejoin="round"/>
<path d="M337.204 200.305C347.856 192.316 385.141 156.363 389.135 151.037C397.791 148.374 413.104 190.318 337.204 251.571" fill="#7BDFF2"/>
<path d="M364.068 220.026C354.765 230.215 344.669 239.65 333.875 248.242" stroke="#1B3C87" stroke-width="4.78" stroke-linecap="round" stroke-linejoin="round"/>
<path d="M333.875 196.976C344.527 188.987 381.812 153.034 385.806 147.708C391.932 145.824 401.399 166.303 379.461 200.166" stroke="#1B3C87" stroke-width="4.78" stroke-linecap="round" stroke-linejoin="round"/>
</svg>
