<svg width="127" height="157" viewBox="0 0 127 157" fill="none" xmlns="http://www.w3.org/2000/svg">
<g clip-path="url(#clip0)">
<path d="M31.7778 31.4219V94.2656H63.5552C67.9104 94.2656 72.0073 93.4629 75.8457 91.8571C79.6842 90.1783 83.0429 87.9156 85.9214 85.0689C88.8003 82.2225 91.0518 78.9015 92.6757 75.106C94.3735 71.2375 95.2222 67.1503 95.2222 62.8439C95.2222 58.5375 94.3735 54.4865 92.6757 50.691C91.0518 46.8225 88.8003 43.4652 85.9214 40.6186C83.0429 37.7719 79.6842 35.5457 75.8457 33.9399C72.0073 32.2611 67.9104 31.4219 63.5552 31.4219H31.7778ZM31.7778 157H0V0H63.5552C69.3869 0 74.9967 0.766401 80.3855 2.29916C85.774 3.75895 90.7932 5.87565 95.4438 8.64922C100.168 11.3498 104.449 14.6343 108.288 18.5028C112.2 22.2982 115.522 26.5316 118.253 31.2028C121.058 35.8743 123.199 40.8739 124.675 46.2024C126.225 51.5306 127 57.0775 127 62.8439C127 68.2451 126.299 73.5003 124.896 78.6093C123.567 83.7188 121.612 88.5725 119.028 93.1707C116.518 97.7692 113.418 102.003 109.727 105.871C106.036 109.74 101.903 113.097 97.3259 115.943L114.931 157H81.1604L67.3198 125.359L31.7778 125.578V157Z" fill="#FF9A3D"/>
</g>
<defs>
<clipPath id="clip0">
<rect width="127" height="157" fill="white"/>
</clipPath>
</defs>
</svg>
