<svg width="104" height="29" viewBox="0 0 159 41" fill="none" xmlns="http://www.w3.org/2000/svg">
<path d="M29.9102 32H24.0449V11C24.0449 10.5898 23.9629 10.207 23.7988 9.85156C23.6484 9.49609 23.4365 9.18848 23.1631 8.92871C22.9033 8.65527 22.5957 8.44336 22.2402 8.29297C21.8848 8.14258 21.502 8.06738 21.0918 8.06738C20.6816 8.06738 20.2988 8.14258 19.9434 8.29297C19.5879 8.44336 19.2734 8.65527 19 8.92871C18.7402 9.18848 18.5352 9.49609 18.3848 9.85156C18.2344 10.207 18.1592 10.5898 18.1592 11V32H12.2734V11C12.2734 10.5898 12.1982 10.207 12.0479 9.85156C11.8975 9.49609 11.6855 9.18848 11.4121 8.92871C11.1523 8.65527 10.8447 8.44336 10.4893 8.29297C10.1338 8.14258 9.75098 8.06738 9.34082 8.06738C8.93066 8.06738 8.54785 8.14258 8.19238 8.29297C7.83691 8.44336 7.52246 8.65527 7.24902 8.92871C6.98926 9.18848 6.78418 9.49609 6.63379 9.85156C6.4834 10.207 6.4082 10.5898 6.4082 11V32H0.522461V11C0.522461 9.7832 0.748047 8.6416 1.19922 7.5752C1.66406 6.49512 2.29297 5.55859 3.08594 4.76562C3.89258 3.95898 4.8291 3.33008 5.89551 2.87891C6.97559 2.41406 8.12402 2.18164 9.34082 2.18164C10.4346 2.18164 11.4873 2.37988 12.499 2.77637C13.5107 3.15918 14.4199 3.71973 15.2266 4.45801C16.0332 3.71973 16.9355 3.15918 17.9336 2.77637C18.9453 2.37988 19.998 2.18164 21.0918 2.18164C22.3086 2.18164 23.4502 2.41406 24.5166 2.87891C25.5967 3.33008 26.5332 3.95898 27.3262 4.76562C28.1328 5.55859 28.7617 6.49512 29.2129 7.5752C29.6777 8.6416 29.9102 9.7832 29.9102 11V32ZM39.6309 40.3672V34.7275L42.748 34.7686C43.2949 34.7686 43.8213 34.6797 44.3271 34.502C44.833 34.3242 45.2979 34.0781 45.7217 33.7637C46.1592 33.4492 46.542 33.0732 46.8701 32.6357C47.1982 32.2119 47.4648 31.7471 47.6699 31.2412C47.0547 31.501 46.4258 31.7607 45.7832 32.0205C45.1543 32.2803 44.5186 32.4102 43.876 32.4102C42.5225 32.4102 41.251 32.1709 40.0615 31.6924C38.8721 31.2139 37.8262 30.5371 36.9238 29.6621C36.0352 28.7734 35.3311 27.7002 34.8115 26.4424C34.3057 25.1709 34.0527 23.749 34.0527 22.1768V10.0361H39.6309V22.1768C39.6309 22.9561 39.7402 23.6396 39.959 24.2275C40.1914 24.8018 40.499 25.2871 40.8818 25.6836C41.2646 26.0664 41.709 26.3535 42.2148 26.5449C42.7344 26.7363 43.2881 26.832 43.876 26.832C44.4502 26.832 44.9902 26.7021 45.4961 26.4424C46.0156 26.1689 46.4668 25.8135 46.8496 25.376C47.2324 24.9385 47.5332 24.4463 47.752 23.8994C47.9707 23.3389 48.0801 22.7646 48.0801 22.1768V10.0361H53.7197V29.2314C53.7061 30.7764 53.4053 32.2256 52.8174 33.5791C52.2295 34.9326 51.4229 36.1152 50.3975 37.127C49.3857 38.1387 48.2031 38.9385 46.8496 39.5264C45.4961 40.1143 44.0469 40.4082 42.502 40.4082L39.6309 40.3672ZM64.4863 8.47754V20.249H70.3721C71.1787 20.249 71.9375 20.0986 72.6484 19.7979C73.3594 19.4834 73.9814 19.0596 74.5146 18.5264C75.0479 17.9932 75.4648 17.3711 75.7656 16.6602C76.0801 15.9355 76.2373 15.1699 76.2373 14.3633C76.2373 13.5566 76.0801 12.7979 75.7656 12.0869C75.4648 11.3623 75.0479 10.7334 74.5146 10.2002C73.9814 9.66699 73.3594 9.25 72.6484 8.94922C71.9375 8.63477 71.1787 8.47754 70.3721 8.47754H64.4863ZM64.4863 32H58.6006V2.5918H70.3721C71.4521 2.5918 72.4912 2.73535 73.4893 3.02246C74.4873 3.2959 75.417 3.69238 76.2783 4.21191C77.1533 4.71777 77.9463 5.33301 78.6572 6.05762C79.3818 6.76855 79.9971 7.56152 80.5029 8.43652C81.0225 9.31152 81.4189 10.248 81.6924 11.2461C81.9795 12.2441 82.123 13.2832 82.123 14.3633C82.123 15.375 81.9932 16.3594 81.7334 17.3164C81.4873 18.2734 81.125 19.1826 80.6465 20.0439C80.1816 20.9053 79.6074 21.6982 78.9238 22.4229C78.2402 23.1475 77.4746 23.7764 76.627 24.3096L79.8877 32H73.6328L71.0693 26.0732L64.4863 26.1143V32ZM106.425 32H105.071L102.897 28.9854C102.364 29.4639 101.797 29.915 101.195 30.3389C100.607 30.749 99.9854 31.1113 99.3291 31.4258C98.6729 31.7266 97.9961 31.9658 97.2988 32.1436C96.6152 32.3213 95.918 32.4102 95.207 32.4102C93.6621 32.4102 92.2061 32.1504 90.8389 31.6309C89.4854 31.1113 88.2959 30.3594 87.2705 29.375C86.2588 28.377 85.459 27.1602 84.8711 25.7246C84.2832 24.2891 83.9893 22.6553 83.9893 20.8232C83.9893 19.1143 84.2832 17.5488 84.8711 16.127C85.459 14.6914 86.2588 13.4609 87.2705 12.4355C88.2959 11.4102 89.4854 10.6172 90.8389 10.0566C92.2061 9.48242 93.6621 9.19531 95.207 9.19531C95.918 9.19531 96.6221 9.28418 97.3193 9.46191C98.0166 9.63965 98.6934 9.88574 99.3496 10.2002C100.006 10.5146 100.628 10.8838 101.216 11.3076C101.817 11.7314 102.378 12.1895 102.897 12.6816L105.071 10.0771H106.425V32ZM100.785 20.8232C100.785 20.0576 100.635 19.3193 100.334 18.6084C100.047 17.8838 99.6504 17.248 99.1445 16.7012C98.6387 16.1406 98.0439 15.6963 97.3604 15.3682C96.6904 15.0264 95.9727 14.8555 95.207 14.8555C94.4414 14.8555 93.7168 14.9854 93.0332 15.2451C92.3633 15.5049 91.7754 15.8877 91.2695 16.3936C90.7773 16.8994 90.3877 17.5283 90.1006 18.2803C89.8135 19.0186 89.6699 19.8662 89.6699 20.8232C89.6699 21.7803 89.8135 22.6348 90.1006 23.3867C90.3877 24.125 90.7773 24.7471 91.2695 25.2529C91.7754 25.7588 92.3633 26.1416 93.0332 26.4014C93.7168 26.6611 94.4414 26.791 95.207 26.791C95.9727 26.791 96.6904 26.627 97.3604 26.2988C98.0439 25.957 98.6387 25.5127 99.1445 24.9658C99.6504 24.4053 100.047 23.7695 100.334 23.0586C100.635 22.334 100.785 21.5889 100.785 20.8232ZM121.724 32C120.37 32 119.099 31.7471 117.909 31.2412C116.72 30.7217 115.674 30.0176 114.771 29.1289C113.883 28.2266 113.179 27.1807 112.659 25.9912C112.153 24.8018 111.9 23.5303 111.9 22.1768V15.6553H109.173V10.0771H111.9V1.2998H117.479V10.0771H125.969V15.6553H117.479V22.1768C117.479 22.7646 117.588 23.3184 117.807 23.8379C118.025 24.3438 118.326 24.7881 118.709 25.1709C119.092 25.5537 119.543 25.8613 120.062 26.0938C120.582 26.3125 121.136 26.4219 121.724 26.4219H125.969V32H121.724ZM135.73 4.06836C135.73 4.58789 135.628 5.07324 135.423 5.52441C135.231 5.97559 134.965 6.37207 134.623 6.71387C134.281 7.04199 133.878 7.30859 133.413 7.51367C132.962 7.70508 132.477 7.80078 131.957 7.80078C131.438 7.80078 130.945 7.70508 130.48 7.51367C130.029 7.30859 129.633 7.04199 129.291 6.71387C128.963 6.37207 128.696 5.97559 128.491 5.52441C128.3 5.07324 128.204 4.58789 128.204 4.06836C128.204 3.5625 128.3 3.08398 128.491 2.63281C128.696 2.16797 128.963 1.77148 129.291 1.44336C129.633 1.10156 130.029 0.834961 130.48 0.643555C130.945 0.438477 131.438 0.335938 131.957 0.335938C132.477 0.335938 132.962 0.438477 133.413 0.643555C133.878 0.834961 134.281 1.10156 134.623 1.44336C134.965 1.77148 135.231 2.16797 135.423 2.63281C135.628 3.08398 135.73 3.5625 135.73 4.06836ZM134.767 32H129.127V10.0361H134.767V32ZM144.651 32H139.053V10.0361H140.406L142.252 12.1689C143.154 11.3486 144.173 10.7197 145.308 10.2822C146.456 9.83105 147.652 9.60547 148.896 9.60547C150.236 9.60547 151.501 9.86523 152.69 10.3848C153.88 10.8906 154.919 11.5947 155.808 12.4971C156.696 13.3857 157.394 14.4316 157.899 15.6348C158.419 16.8242 158.679 18.0957 158.679 19.4492V32H153.08V19.4492C153.08 18.875 152.971 18.335 152.752 17.8291C152.533 17.3096 152.232 16.8584 151.85 16.4756C151.467 16.0928 151.022 15.792 150.517 15.5732C150.011 15.3545 149.471 15.2451 148.896 15.2451C148.309 15.2451 147.755 15.3545 147.235 15.5732C146.716 15.792 146.265 16.0928 145.882 16.4756C145.499 16.8584 145.198 17.3096 144.979 17.8291C144.761 18.335 144.651 18.875 144.651 19.4492V32Z" fill="#0B132B"/>
</svg>
