<svg width="200" height="200" viewBox="0 0 375 812" fill="none" xmlns="http://www.w3.org/2000/svg">
<rect width="375" height="812" fill="white"/>
<rect width="375" height="812" fill="#634F7E"/>
<g clip-path="url(#clip0)">
<path d="M166.264 233.103V275.088H187.355C190.245 275.088 192.964 274.552 195.512 273.479C198.059 272.357 200.289 270.846 202.199 268.944C204.11 267.042 205.604 264.824 206.682 262.288C207.809 259.703 208.372 256.973 208.372 254.096C208.372 251.219 207.809 248.512 206.682 245.977C205.604 243.392 204.11 241.149 202.199 239.247C200.289 237.346 198.059 235.858 195.512 234.785C192.964 233.664 190.245 233.103 187.355 233.103H166.264ZM166.264 317H145.174V212.111H187.355C191.225 212.111 194.948 212.623 198.525 213.647C202.101 214.622 205.432 216.036 208.519 217.889C211.654 219.693 214.496 221.888 217.043 224.472C219.64 227.008 221.844 229.836 223.657 232.957C225.519 236.078 226.94 239.418 227.919 242.978C228.948 246.537 229.463 250.243 229.463 254.096C229.463 257.704 228.997 261.215 228.066 264.628C227.184 268.042 225.886 271.285 224.172 274.357C222.506 277.429 220.448 280.257 217.999 282.842C215.549 285.426 212.806 287.669 209.768 289.571L221.452 317H199.039L189.853 295.861L166.264 296.007V317Z" fill="white"/>
</g>
<path d="M127.062 352.516C127.062 354.13 127.281 355.208 127.719 355.75C128.156 356.281 128.995 356.573 130.234 356.625V358.281H122V356.625C123.229 356.573 124.062 356.281 124.5 355.75C124.948 355.208 125.172 354.13 125.172 352.516V340.203C125.172 338.818 125.021 337.948 124.719 337.594C124.427 337.229 123.885 337.021 123.094 336.969L122.125 336.906V335.234H131.922L137.266 350.031L142.391 335.234H152.141V336.906L151.219 336.969C150.427 337.021 149.88 337.229 149.578 337.594C149.286 337.948 149.141 338.818 149.141 340.203V353.328C149.141 354.703 149.286 355.573 149.578 355.938C149.87 356.292 150.417 356.495 151.219 356.547L152.141 356.625V358.281H140.656V356.625L141.453 356.547C142.266 356.484 142.818 356.276 143.109 355.922C143.401 355.568 143.547 354.703 143.547 353.328V337.062L136.109 358.281H134.609L127.062 337.094V352.516Z" fill="white"/>
<path d="M156.172 344.484C155.797 343.661 155.417 343.109 155.031 342.828C154.646 342.547 154.099 342.385 153.391 342.344V340.812H163.016V342.344C162.245 342.385 161.714 342.5 161.422 342.688C161.141 342.865 161 343.167 161 343.594C161 343.844 161.062 344.167 161.188 344.562C161.312 344.958 161.474 345.37 161.672 345.797L164.531 351.562L166.578 346.156C166.766 345.625 166.901 345.193 166.984 344.859C167.078 344.516 167.125 344.224 167.125 343.984C167.125 343.484 166.948 343.12 166.594 342.891C166.25 342.651 165.615 342.469 164.688 342.344V340.812H171.922V342.344C171.214 342.51 170.63 342.828 170.172 343.297C169.724 343.755 169.208 344.708 168.625 346.156L164.109 357.125C162.922 360.01 161.859 361.906 160.922 362.812C159.995 363.719 158.828 364.172 157.422 364.172C156.339 364.172 155.453 363.875 154.766 363.281C154.078 362.698 153.734 361.958 153.734 361.062C153.734 360.344 153.958 359.74 154.406 359.25C154.865 358.771 155.422 358.531 156.078 358.531C156.734 358.531 157.271 358.703 157.688 359.047C158.104 359.391 158.312 359.818 158.312 360.328C158.312 360.807 158.13 361.276 157.766 361.734C157.411 362.203 157.234 362.458 157.234 362.5C157.234 362.594 157.292 362.667 157.406 362.719C157.531 362.771 157.698 362.797 157.906 362.797C158.76 362.797 159.562 362.333 160.312 361.406C161.062 360.479 161.646 359.203 162.062 357.578L156.172 344.484Z" fill="white"/>
<path d="M172.406 356.719C173.396 356.677 174.036 356.51 174.328 356.219C174.63 355.917 174.781 355.13 174.781 353.859V345.219C174.781 343.948 174.63 343.161 174.328 342.859C174.036 342.557 173.396 342.385 172.406 342.344V340.812H173.016C174.161 340.812 175.271 340.771 176.344 340.688C177.427 340.594 178.474 340.464 179.484 340.297V344.516C180.057 343.234 180.729 342.26 181.5 341.594C182.271 340.917 183.099 340.578 183.984 340.578C184.911 340.578 185.677 340.885 186.281 341.5C186.885 342.115 187.188 342.896 187.188 343.844C187.188 344.667 186.938 345.333 186.438 345.844C185.948 346.344 185.302 346.594 184.5 346.594C183.865 346.594 183.344 346.422 182.938 346.078C182.531 345.734 182.328 345.292 182.328 344.75C182.328 344.698 182.333 344.609 182.344 344.484C182.354 344.359 182.359 344.266 182.359 344.203C182.359 343.995 182.318 343.844 182.234 343.75C182.151 343.646 182.021 343.594 181.844 343.594C181.177 343.594 180.677 344.172 180.344 345.328C180.021 346.474 179.859 348.208 179.859 350.531V353.859C179.859 355.13 180.026 355.911 180.359 356.203C180.693 356.495 181.453 356.667 182.641 356.719V358.281H172.406V356.719Z" fill="white"/>
<path d="M198.172 348.688C196.276 349.427 194.911 350.172 194.078 350.922C193.245 351.672 192.828 352.526 192.828 353.484C192.828 354.182 193.031 354.755 193.438 355.203C193.844 355.651 194.37 355.875 195.016 355.875C196.089 355.875 196.885 355.396 197.406 354.438C197.938 353.479 198.203 352.021 198.203 350.062C198.203 349.688 198.198 349.406 198.188 349.219C198.188 349.021 198.182 348.844 198.172 348.688ZM198.172 355.812C197.307 356.823 196.406 357.573 195.469 358.062C194.531 358.552 193.526 358.797 192.453 358.797C191.13 358.797 190.062 358.417 189.25 357.656C188.438 356.896 188.031 355.901 188.031 354.672C188.031 353.078 188.807 351.698 190.359 350.531C191.911 349.354 194.516 348.193 198.172 347.047C198.182 346.901 198.188 346.74 198.188 346.562C198.198 346.375 198.203 346.12 198.203 345.797C198.203 344.443 197.974 343.495 197.516 342.953C197.057 342.401 196.276 342.125 195.172 342.125C194.547 342.125 193.995 342.234 193.516 342.453C193.036 342.672 192.797 342.891 192.797 343.109C192.797 343.141 192.849 343.208 192.953 343.312C193.495 343.854 193.766 344.448 193.766 345.094C193.766 345.656 193.562 346.12 193.156 346.484C192.75 346.839 192.224 347.016 191.578 347.016C190.818 347.016 190.224 346.802 189.797 346.375C189.37 345.938 189.156 345.328 189.156 344.547C189.156 343.318 189.812 342.297 191.125 341.484C192.448 340.672 194.135 340.266 196.188 340.266C197.479 340.266 198.641 340.448 199.672 340.812C200.714 341.167 201.547 341.677 202.172 342.344C202.578 342.771 202.865 343.271 203.031 343.844C203.208 344.406 203.297 345.349 203.297 346.672V346.953V354.5C203.297 355.042 203.344 355.396 203.438 355.562C203.542 355.729 203.719 355.812 203.969 355.812C204.188 355.812 204.365 355.719 204.5 355.531C204.646 355.333 204.734 355.068 204.766 354.734H206.016C205.953 356.026 205.589 357.026 204.922 357.734C204.266 358.443 203.359 358.797 202.203 358.797C201.172 358.797 200.302 358.536 199.594 358.016C198.885 357.484 198.411 356.75 198.172 355.812Z" fill="white"/>
<path d="M209.328 342.438H206.938V340.812C208.302 340.51 209.464 339.818 210.422 338.734C211.38 337.651 212.182 336.115 212.828 334.125H214.391V340.812H218.906V342.438H214.359V352.844C214.359 353.75 214.49 354.411 214.75 354.828C215.01 355.234 215.432 355.438 216.016 355.438C216.703 355.438 217.229 355.198 217.594 354.719C217.958 354.229 218.141 353.531 218.141 352.625V352.203H219.734V352.625C219.734 354.646 219.281 356.182 218.375 357.234C217.469 358.276 216.141 358.797 214.391 358.797C212.745 358.797 211.49 358.349 210.625 357.453C209.76 356.547 209.328 355.234 209.328 353.516V342.438Z" fill="white"/>
<path d="M222.984 335.406C222.984 334.667 223.245 334.083 223.766 333.656C224.297 333.219 225.016 333 225.922 333C226.828 333 227.536 333.214 228.047 333.641C228.568 334.068 228.828 334.656 228.828 335.406C228.828 336.146 228.568 336.729 228.047 337.156C227.536 337.583 226.828 337.797 225.922 337.797C225.016 337.797 224.297 337.583 223.766 337.156C223.245 336.729 222.984 336.146 222.984 335.406ZM223.625 345.219C223.625 343.958 223.479 343.182 223.188 342.891C222.906 342.589 222.26 342.406 221.25 342.344V340.812H221.891C223.109 340.812 224.286 340.771 225.422 340.688C226.557 340.594 227.651 340.464 228.703 340.297V353.859C228.703 355.161 228.828 355.958 229.078 356.25C229.328 356.531 229.833 356.688 230.594 356.719V358.281H221.25V356.719C222.24 356.677 222.88 356.51 223.172 356.219C223.474 355.917 223.625 355.13 223.625 353.859V345.219Z" fill="white"/>
<path d="M249.734 353.859C249.734 355.141 249.875 355.927 250.156 356.219C250.448 356.51 251.083 356.677 252.062 356.719V358.281H242.75V356.719C243.5 356.688 243.995 356.536 244.234 356.266C244.484 355.984 244.609 355.182 244.609 353.859V346.25C244.609 345.104 244.453 344.266 244.141 343.734C243.828 343.193 243.344 342.922 242.688 342.922C241.562 342.922 240.745 343.51 240.234 344.688C239.734 345.865 239.484 347.812 239.484 350.531V353.859C239.484 355.161 239.609 355.958 239.859 356.25C240.109 356.531 240.615 356.688 241.375 356.719V358.281H232.031V356.719C233.021 356.677 233.661 356.51 233.953 356.219C234.255 355.917 234.406 355.13 234.406 353.859V345.219C234.406 343.958 234.26 343.182 233.969 342.891C233.688 342.589 233.042 342.406 232.031 342.344V340.812H232.641C233.786 340.812 234.896 340.771 235.969 340.688C237.052 340.594 238.099 340.464 239.109 340.297V344.203C239.641 343.068 240.385 342.182 241.344 341.547C242.312 340.901 243.391 340.578 244.578 340.578C246.349 340.578 247.651 341.13 248.484 342.234C249.318 343.339 249.734 345.073 249.734 347.438V353.859Z" fill="white"/>
<path d="M226.236 700.783C232.176 700.783 237 705.606 237 711.547C237 717.488 232.176 722.311 226.236 722.311C220.295 722.311 215.471 717.488 215.471 711.547C215.471 705.606 220.295 700.783 226.236 700.783Z" fill="#FF9A3D"/>
<path d="M156.807 672.414C167.186 672.414 175.614 680.841 175.614 691.221C175.614 701.601 167.186 710.028 156.807 710.028C146.427 710.028 138 701.601 138 691.221C138 680.841 146.427 672.414 156.807 672.414Z" fill="#FF9A3D"/>
<path d="M203.127 623.894C209.524 623.894 214.719 629.088 214.719 635.485C214.719 641.883 209.524 647.077 203.127 647.077C196.729 647.077 191.535 641.883 191.535 635.485C191.535 629.088 196.729 623.894 203.127 623.894Z" fill="#FF9A3D"/>
<defs>
<clipPath id="clip0">
<rect width="86" height="107" fill="white" transform="translate(144 210)"/>
</clipPath>
</defs>
</svg>
