<svg width="437" height="532" viewBox="0 0 437 532" fill="none" xmlns="http://www.w3.org/2000/svg">
<path d="M374.654 113.761C409.609 135.611 425.501 186.332 429.676 235.296C433.85 284.259 426.407 331.473 408.37 382.848C390.334 434.224 361.805 489.885 316.917 508.889C271.929 527.989 210.603 510.425 164.49 481.437C118.511 452.456 87.618 411.947 58.7559 368.027C29.8938 324.107 2.9492 276.687 0.246081 223.327C-2.57022 169.974 18.8483 110.597 61.3525 90.0445C103.963 69.5175 167.666 87.9568 226.629 93.5585C285.591 99.1603 339.707 91.9117 374.654 113.761Z" fill="#D6DFFF"/>
<path d="M266.316 531.069C285.052 485.133 321.577 461.578 323.574 405.178C323.641 401.002 253 356.635 220.044 357.381C187.087 358.127 143.95 531.069 143.95 531.069H266.316Z" fill="#46DBC9"/>
<path d="M333.868 35.1353H122.485V401.936H333.868V35.1353Z" fill="white"/>
<path d="M312.809 195.733H143.558V259.551H312.809V195.733Z" fill="#46DBC9"/>
<path d="M212.468 214.127H289.826" stroke="#B0C3FA" stroke-width="4.78" stroke-linecap="round" stroke-linejoin="round"/>
<path d="M212.468 233.876H243.893" stroke="#B0C3FA" stroke-width="4.78" stroke-linecap="round" stroke-linejoin="round"/>
<path d="M177.267 245.047C187.14 245.047 195.144 237.253 195.144 227.639C195.144 218.024 187.14 210.23 177.267 210.23C167.394 210.23 159.391 218.024 159.391 227.639C159.391 237.253 167.394 245.047 177.267 245.047Z" fill="#ECC953"/>
<path d="M292.416 477.275C306.484 456.022 319.094 434.431 320.246 401.936" stroke="#1B3C87" stroke-width="4.78" stroke-linecap="round" stroke-linejoin="round"/>
<path d="M262.988 527.827C266.966 518.293 271.747 509.096 277.283 500.33" stroke="#1B3C87" stroke-width="4.78" stroke-linecap="round" stroke-linejoin="round"/>
<path d="M312.809 102.039H143.558V165.857H312.809V102.039Z" fill="#46DBC9"/>
<path d="M333.868 35.1353H122.485V72.9084H333.868V35.1353Z" fill="#D6DFFF"/>
<path d="M333.868 364.156H122.485V401.93H333.868V364.156Z" fill="#D6DFFF"/>
<path d="M212.468 54.0219H243.893" stroke="#1B3C87" stroke-width="4.78" stroke-linecap="round" stroke-linejoin="round"/>
<path d="M228.18 392.113C233.324 392.113 237.494 388.052 237.494 383.043C237.494 378.033 233.324 373.972 228.18 373.972C223.035 373.972 218.865 378.033 218.865 383.043C218.865 388.052 223.035 392.113 228.18 392.113Z" fill="#B0C3FA"/>
<path d="M91.5264 531.069C101.513 494.113 103.511 352.771 91.5264 320.353C108.837 308.035 180.077 255.518 190.729 247.089C200.716 253.573 196.056 307.386 163.432 330.727V346.936C180.743 346.936 206.708 403.343 192.061 462.992C183.599 489.12 209.804 531.069 209.804 531.069H91.5264Z" fill="#46DBC9"/>
<path d="M176.574 357.303C189.278 377.59 199.011 417.873 188.732 459.743" stroke="#1B3C87" stroke-width="4.78" stroke-linecap="round" stroke-linejoin="round"/>
<path d="M177.267 251.563C182.02 247.99 185.589 245.28 187.4 243.847C197.387 250.331 192.726 304.144 160.103 327.485V339.279" stroke="#1B3C87" stroke-width="4.78" stroke-linecap="round" stroke-linejoin="round"/>
<path d="M98.2041 309.889C113.218 298.984 137.706 280.972 157.46 266.345" stroke="#1B3C87" stroke-width="4.78" stroke-linecap="round" stroke-linejoin="round"/>
<path d="M88.1973 527.827C96.067 498.71 98.9699 404.808 93.9897 350.418" stroke="#1B3C87" stroke-width="4.78" stroke-linecap="round" stroke-linejoin="round"/>
<path d="M275.172 120.433H289.826" stroke="#B0C3FA" stroke-width="4.78" stroke-linecap="round" stroke-linejoin="round"/>
<path d="M212.468 120.433H260.518" stroke="#B0C3FA" stroke-width="4.78" stroke-linecap="round" stroke-linejoin="round"/>
<path d="M212.468 140.182H243.893" stroke="#B0C3FA" stroke-width="4.78" stroke-linecap="round" stroke-linejoin="round"/>
<path d="M177.267 151.353C187.14 151.353 195.144 143.559 195.144 133.945C195.144 124.33 187.14 116.536 177.267 116.536C167.394 116.536 159.391 124.33 159.391 133.945C159.391 143.559 167.394 151.353 177.267 151.353Z" fill="#FB5D64"/>
<path d="M356.013 307.172C405.168 339.162 325.586 399.887 304.334 416.66C298.834 412.822 295.019 360.727 356.013 307.172Z" fill="#46DBC9"/>
<path d="M318.362 399.414C311.311 405.359 305.08 410.196 301.005 413.418C293.355 409.379 295.991 379.931 317.65 347.111" stroke="#1B3C87" stroke-width="4.78" stroke-linecap="round" stroke-linejoin="round"/>
<path d="M352.683 303.931C379.588 321.436 367.923 347.552 348.369 370.361" stroke="#1B3C87" stroke-width="4.78" stroke-linecap="round" stroke-linejoin="round"/>
<path d="M377.264 81.4538C382.133 81.4538 386.079 77.6105 386.079 72.8695C386.079 68.1286 382.133 64.2853 377.264 64.2853C372.396 64.2853 368.449 68.1286 368.449 72.8695C368.449 77.6105 372.396 81.4538 377.264 81.4538Z" stroke="#B0C3FA" stroke-width="4.78" stroke-linecap="round" stroke-linejoin="round"/>
<path d="M349.241 23.3352C349.241 23.0694 349.241 22.797 349.241 22.5247C349.241 18.2181 350.721 14.0352 353.444 10.6416C356.167 7.24803 359.977 4.83877 364.268 3.79717C368.559 2.75556 373.085 3.14144 377.125 4.89342C381.165 6.64539 384.487 9.66281 386.563 13.4655C388.639 17.2683 389.349 21.6379 388.581 25.8791C387.813 30.1203 385.61 33.9894 382.323 36.8708C379.036 39.7522 374.854 41.4804 370.442 41.7804C366.031 42.0803 361.643 40.9348 357.976 38.5262" stroke="#B0C3FA" stroke-width="4.78" stroke-linecap="round" stroke-linejoin="round"/>
<path d="M415.994 49.2499C413.152 48.418 410.656 46.7272 408.866 44.422C407.076 42.1169 406.086 39.317 406.039 36.4275C405.992 33.5381 406.89 30.7089 408.603 28.3494C410.317 25.99 412.756 24.2226 415.57 23.303C418.383 22.3835 421.424 22.3595 424.252 23.2344C427.08 24.1094 429.549 25.838 431.302 28.17C433.054 30.5021 433.999 33.3167 434 36.2065C434.001 39.0963 433.058 41.9115 431.307 44.2446" stroke="#B0C3FA" stroke-width="4.78" stroke-linecap="round" stroke-linejoin="round"/>
<path d="M338.535 278.21C286.603 308.683 280.611 374.815 287.269 378.705C305.911 371.573 375.153 297.013 375.153 262.65C375.153 254.869 351.997 240.152 346.678 238.045C343.695 236.91 346.871 232.132 336.251 241.695C336.318 251.193 335.559 268.926 338.535 278.21Z" fill="#46DBC9"/>
<path d="M343.349 234.803C348.675 236.91 371.825 251.628 371.825 259.408C371.825 267.837 367.637 278.742 361.045 290.451" stroke="#1B3C87" stroke-width="4.78" stroke-linecap="round" stroke-linejoin="round"/>
<path d="M335.013 327.472C315.339 351.377 293.281 371.891 283.94 375.451C277.282 371.561 283.274 305.428 335.206 274.956" stroke="#1B3C87" stroke-width="4.78" stroke-linecap="round" stroke-linejoin="round"/>
<path d="M337.204 195.869C347.857 188.089 385.141 153.078 389.136 147.891C397.791 145.297 413.105 186.144 337.204 245.792" fill="#46DBC9"/>
<path d="M364.069 215.073C354.766 224.995 344.67 234.183 333.875 242.551" stroke="#1B3C87" stroke-width="4.78" stroke-linecap="round" stroke-linejoin="round"/>
<path d="M333.875 192.627C344.528 184.847 381.812 149.836 385.807 144.649C391.932 142.814 401.4 162.758 379.462 195.733" stroke="#1B3C87" stroke-width="4.78" stroke-linecap="round" stroke-linejoin="round"/>
</svg>
