<svg width="1440" height="758" viewBox="0 0 1440 758" fill="none" xmlns="http://www.w3.org/2000/svg">
<path d="M0 0H1440V758L0 637.5V0Z" fill="#D6DFFF"/>
<rect x="638.927" y="31.3151" width="14" height="14" transform="rotate(49.5 638.927 31.3151)" fill="#C1CDF5"/>
<rect x="888.65" y="114.148" width="14" height="14" transform="rotate(49.5 888.65 114.148)" fill="#C1CDF5"/>
<rect x="845.286" y="71.5156" width="14" height="14" transform="rotate(49.5 845.286 71.5156)" fill="#C1CDF5"/>
<rect x="846.652" y="114.514" width="14" height="14" transform="rotate(49.5 846.652 114.514)" fill="#C1CDF5"/>
<rect x="802.921" y="29.8838" width="14" height="14" transform="rotate(49.5 802.921 29.8838)" fill="#C1CDF5"/>
<rect x="803.287" y="71.8821" width="14" height="14" transform="rotate(49.5 803.287 71.8821)" fill="#C1CDF5"/>
<rect x="804.654" y="114.88" width="14" height="14" transform="rotate(49.5 804.654 114.88)" fill="#C1CDF5"/>
<rect x="760.922" y="30.2504" width="14" height="14" transform="rotate(49.5 760.922 30.2504)" fill="#C1CDF5"/>
<rect x="761.289" y="72.2487" width="14" height="14" transform="rotate(49.5 761.289 72.2487)" fill="#C1CDF5"/>
<rect x="762.655" y="115.247" width="14" height="14" transform="rotate(49.5 762.655 115.247)" fill="#C1CDF5"/>
<rect x="718.924" y="30.6168" width="14" height="14" transform="rotate(49.5 718.924 30.6168)" fill="#C1CDF5"/>
<rect x="719.29" y="72.6152" width="14" height="14" transform="rotate(49.5 719.29 72.6152)" fill="#C1CDF5"/>
<rect x="720.656" y="115.614" width="14" height="14" transform="rotate(49.5 720.656 115.614)" fill="#C1CDF5"/>
<rect x="676.926" y="30.9834" width="14" height="14" transform="rotate(49.5 676.926 30.9834)" fill="#C1CDF5"/>
<rect x="677.292" y="72.9818" width="14" height="14" transform="rotate(49.5 677.292 72.9818)" fill="#C1CDF5"/>
<rect x="846.927" y="31.3151" width="14" height="14" transform="rotate(49.5 846.927 31.3151)" fill="#C1CDF5"/>
<rect x="1096.65" y="114.148" width="14" height="14" transform="rotate(49.5 1096.65 114.148)" fill="#C1CDF5"/>
<rect x="1053.29" y="71.5156" width="14" height="14" transform="rotate(49.5 1053.29 71.5156)" fill="#C1CDF5"/>
<rect x="1054.65" y="114.514" width="14" height="14" transform="rotate(49.5 1054.65 114.514)" fill="#C1CDF5"/>
<rect x="1010.92" y="29.8838" width="14" height="14" transform="rotate(49.5 1010.92 29.8838)" fill="#C1CDF5"/>
<rect x="1011.29" y="71.8821" width="14" height="14" transform="rotate(49.5 1011.29 71.8821)" fill="#C1CDF5"/>
<rect x="1012.65" y="114.88" width="14" height="14" transform="rotate(49.5 1012.65 114.88)" fill="#C1CDF5"/>
<rect x="968.922" y="30.2504" width="14" height="14" transform="rotate(49.5 968.922 30.2504)" fill="#C1CDF5"/>
<rect x="969.289" y="72.2487" width="14" height="14" transform="rotate(49.5 969.289 72.2487)" fill="#C1CDF5"/>
<rect x="970.655" y="115.247" width="14" height="14" transform="rotate(49.5 970.655 115.247)" fill="#C1CDF5"/>
<rect x="926.924" y="30.6168" width="14" height="14" transform="rotate(49.5 926.924 30.6168)" fill="#C1CDF5"/>
<rect x="927.29" y="72.6152" width="14" height="14" transform="rotate(49.5 927.29 72.6152)" fill="#C1CDF5"/>
<rect x="928.656" y="115.614" width="14" height="14" transform="rotate(49.5 928.656 115.614)" fill="#C1CDF5"/>
<rect x="884.926" y="30.9834" width="14" height="14" transform="rotate(49.5 884.926 30.9834)" fill="#C1CDF5"/>
<rect x="885.292" y="72.9818" width="14" height="14" transform="rotate(49.5 885.292 72.9818)" fill="#C1CDF5"/>
<rect x="1121" y="185" width="360" height="360" stroke="#C1CDF5" stroke-width="50"/>
<circle cx="88" cy="355" r="237" stroke="#C1CDF5" stroke-width="50"/>
</svg>
