<svg width="353" height="421" viewBox="0 0 353 421" fill="none" xmlns="http://www.w3.org/2000/svg">
<path d="M246.573 128.864C283.699 158.795 329.652 179.193 345.991 213.503C362.246 247.812 348.804 295.873 320.353 326.197C291.903 356.442 248.527 368.937 208.261 378.558C168.008 388.253 130.965 395.052 106.2 380.669C81.4217 366.211 68.917 330.515 50.4719 298.298C32.0268 266.182 7.56269 237.498 2.01476 202.412C-3.53316 167.243 9.83071 125.51 38.1243 94.0918C66.4963 62.595 109.872 41.3208 145.668 50.4053C181.389 59.468 209.526 98.9372 246.573 128.864Z" fill="#F0F0F0"/>
<path d="M316.882 122.95L342.99 182.826L236.528 200.947L316.882 122.95Z" stroke="#B6C6FC" stroke-width="4.78" stroke-linecap="round" stroke-linejoin="round"/>
<path d="M223.832 203.005C223.832 158.15 222.96 113.02 163.594 113.02C109.402 113.02 104.8 175.342 104.525 197.719C104.251 220.428 97.1106 233.604 88.2261 243.765V351.401C117.593 377.965 157.196 403.736 176.304 403.736C193.676 403.736 225.908 391.555 252.121 376.565V269.126C237.157 251.511 223.832 231.454 223.832 203.005Z" fill="#FB5D64"/>
<path d="M49.1548 296.48C51.4315 247.996 100.735 255.187 101.494 194.68C101.616 184.91 102.558 167.531 108.093 151.045" stroke="#1B3C87" stroke-width="4.78" stroke-linecap="round" stroke-linejoin="round"/>
<path d="M285.36 345.387C267.146 369.404 201.108 400.709 173.268 400.709C151.076 400.709 101.245 365.932 71.9004 335.548" stroke="#1B3C87" stroke-width="4.78" stroke-linecap="round" stroke-linejoin="round"/>
<path d="M245.029 261.197C262.358 282.737 283.503 300.06 288.828 323.157" stroke="#1B3C87" stroke-width="4.78" stroke-linecap="round" stroke-linejoin="round"/>
<path d="M125.082 122.946C133.534 115.096 144.997 109.98 160.541 109.98C219.915 109.98 220.779 155.11 220.779 199.965C220.779 219.155 226.859 234.559 235.416 247.939" stroke="#1B3C87" stroke-width="4.78" stroke-linecap="round" stroke-linejoin="round"/>
<path d="M88.2259 382.095C88.2432 388.896 90.9524 395.414 95.7614 400.223C100.57 405.032 107.088 407.743 113.889 407.761H226.457C233.259 407.743 239.777 405.032 244.586 400.223C249.394 395.414 252.104 388.896 252.121 382.095V327.955C232.93 292.088 202.02 268.807 167.153 268.807C135.75 268.807 107.539 287.709 88.2085 317.684L88.2259 382.095Z" fill="#46DBC9"/>
<path fill-rule="evenodd" clip-rule="evenodd" d="M0 346.254C0 340.699 1.64762 335.268 4.73451 330.648C7.8214 326.029 12.2089 322.428 17.3422 320.302C22.4755 318.176 28.1241 317.62 33.5736 318.703C39.0231 319.787 44.0288 322.463 47.9576 326.391C51.8865 330.32 54.5621 335.325 55.6461 340.774C56.73 346.223 56.1737 351.871 54.0474 357.004C51.9211 362.137 48.3204 366.524 43.7005 369.611C39.0807 372.698 33.6492 374.345 28.0929 374.345C20.6426 374.344 13.4977 371.384 8.2295 366.116C2.96131 360.849 0.00115644 353.704 0 346.254H0Z" fill="#EAEFFF"/>
<path d="M71.2481 2.99999L19.9131 64.0224L73.6039 109.183L124.939 48.1603L71.2481 2.99999Z" stroke="#B6C6FC" stroke-width="4.78" stroke-linecap="round" stroke-linejoin="round"/>
<path d="M245.683 318.604C247.969 322.384 250.114 326.328 252.121 330.436" stroke="#1B3C87" stroke-width="4.78" stroke-linecap="round" stroke-linejoin="round"/>
<path d="M126.8 275.755C138.515 269.579 151.225 266.191 164.536 266.191C188.682 266.191 210.926 277.351 228.699 296.122" stroke="#1B3C87" stroke-width="4.78" stroke-linecap="round" stroke-linejoin="round"/>
<path d="M88.2261 311.138C94.1355 302.529 101.131 294.719 109.04 287.901" stroke="#1B3C87" stroke-width="4.78" stroke-linecap="round" stroke-linejoin="round"/>
<path d="M261.259 390.102C261.234 397.473 258.295 404.536 253.083 409.748C247.87 414.96 240.808 417.899 233.436 417.923H106.95C99.5741 417.905 92.5047 414.97 87.2865 409.757C82.0684 404.544 79.1257 397.478 79.1016 390.102V181.064" stroke="#1B3C87" stroke-width="4.78" stroke-linecap="round" stroke-linejoin="round"/>
<path d="M79.1016 130.609V71.867C79.1257 64.496 82.0648 57.4338 87.2773 52.2217C92.4898 47.0096 99.5525 44.0708 106.924 44.0466H233.41C240.786 44.0639 247.855 46.9996 253.074 52.2125C258.292 57.4253 261.234 64.4915 261.259 71.867V327.03" stroke="#1B3C87" stroke-width="4.78" stroke-linecap="round" stroke-linejoin="round"/>
<path d="M97.0365 401.411C94.2731 399.008 92.057 396.04 90.5372 392.708C89.0174 389.376 88.2294 385.757 88.2261 382.095V79.8611C88.2433 73.0602 90.9526 66.5427 95.7616 61.7332C100.571 56.9238 107.088 54.2137 113.89 54.1953H194.858" stroke="#1B3C87" stroke-width="4.78" stroke-linecap="round" stroke-linejoin="round"/>
<path d="M234.343 55.4426C239.5 57.1244 243.995 60.3906 247.187 64.7758C250.379 69.1611 252.106 74.4417 252.121 79.8655V382.099C252.104 388.9 249.395 395.418 244.586 400.227C239.777 405.037 233.259 407.747 226.458 407.765H149.428" stroke="#1B3C87" stroke-width="4.78" stroke-linecap="round" stroke-linejoin="round"/>
<path d="M217.237 54.1953C217.639 55.2829 217.844 56.4332 217.843 57.5927V58.1291C217.835 60.7476 216.791 63.2566 214.94 65.1082C213.088 66.9598 210.579 68.0036 207.96 68.0117H139.509" stroke="#1B3C87" stroke-width="4.78" stroke-linecap="round" stroke-linejoin="round"/>
<path d="M131.366 396.749H208.976" stroke="#1B3C87" stroke-width="4.78" stroke-linecap="round" stroke-linejoin="round"/>
<path d="M135.34 232.849C137.084 242.88 138.07 270.844 136.6 285.411C142.192 290.121 166.761 294.386 183.095 288.058C180.888 279.968 179.71 260.696 181.625 248.925C171.175 245.1 135.34 232.849 135.34 232.849Z" fill="white"/>
<path d="M135.126 262.82C135.174 270.408 134.969 277.761 134.419 283.23C137.782 286.065 148.032 288.738 159.215 289.039" stroke="#1B3C87" stroke-width="4.78" stroke-linecap="round" stroke-linejoin="round"/>
<path d="M180.914 285.869C178.707 277.779 177.53 258.506 179.444 246.735C168.976 242.91 133.159 230.66 133.159 230.66C133.831 234.537 134.394 241.087 134.742 248.51" stroke="#1B3C87" stroke-width="4.78" stroke-linecap="round" stroke-linejoin="round"/>
<path d="M170.451 255.964C197.55 255.964 219.518 226.675 219.518 190.545C219.518 154.415 197.55 125.126 170.451 125.126C143.351 125.126 121.383 154.415 121.383 190.545C121.383 226.675 143.351 255.964 170.451 255.964Z" fill="white"/>
<path d="M208.536 223.163C199.782 241.074 184.626 252.911 167.397 252.911C163.488 252.911 159.603 252.3 155.883 251.101" stroke="#1B3C87" stroke-width="4.78" stroke-linecap="round" stroke-linejoin="round"/>
<path d="M122.32 213.38C119.648 205.012 118.301 196.277 118.33 187.492C118.33 151.364 140.294 122.074 167.397 122.074C194.5 122.074 216.465 151.364 216.465 187.492C216.478 194.45 215.64 201.384 213.97 208.138" stroke="#1B3C87" stroke-width="4.78" stroke-linecap="round" stroke-linejoin="round"/>
<path d="M196.459 197.165C197.993 197.165 199.237 194.375 199.237 190.933C199.237 187.491 197.993 184.701 196.459 184.701C194.924 184.701 193.68 187.491 193.68 190.933C193.68 194.375 194.924 197.165 196.459 197.165Z" fill="#1B3C87"/>
<path d="M181.005 200.947C182.161 205.604 184.298 210.768 187.984 214.03" stroke="#1B3C87" stroke-width="4.78" stroke-linecap="round" stroke-linejoin="round"/>
<path d="M179.837 192.359C179.843 193.312 179.899 194.264 180.003 195.212" stroke="#1B3C87" stroke-width="4.78" stroke-linecap="round" stroke-linejoin="round"/>
<path d="M161.561 230.228C164.315 230.228 166.547 227.996 166.547 225.243C166.547 222.49 164.315 220.258 161.561 220.258C158.808 220.258 156.576 222.49 156.576 225.243C156.576 227.996 158.808 230.228 161.561 230.228Z" stroke="#1B3C87" stroke-width="4.78" stroke-linecap="round" stroke-linejoin="round"/>
<path d="M181.145 139.004C181.182 139.235 181.242 139.461 181.324 139.68C183.749 146.876 208.989 192.451 220.683 200.598C221.097 193.471 221.791 164.164 217.228 155.869C212.666 147.574 193.724 125.733 187.779 125.733C181.834 125.733 181.162 139.161 181.162 139.161" fill="#FB5D64"/>
<path d="M207.332 186.04C209.486 189.048 211.824 191.921 214.332 194.64" stroke="#1B3C87" stroke-width="4.78" stroke-linecap="round" stroke-linejoin="round"/>
<path d="M178.528 136.387C178.565 136.618 178.625 136.844 178.707 137.063C180.238 141.599 190.837 161.39 201.387 177.439" stroke="#1B3C87" stroke-width="4.78" stroke-linecap="round" stroke-linejoin="round"/>
<path d="M192.712 125.131C192.712 129.492 152.917 204.915 132.618 215.461C124.261 221.03 108.167 223.019 108.167 218.645C108.167 214.27 115.926 139.27 132.444 130.7C148.961 122.13 173.211 112.195 192.712 125.131Z" fill="#FB5D64"/>
<path d="M172.169 158.922C159.023 181.522 141.721 207.419 130.437 213.28C126.761 215.731 121.575 217.489 116.917 218.317" stroke="#1B3C87" stroke-width="4.78" stroke-linecap="round" stroke-linejoin="round"/>
<path d="M190.531 122.95C190.531 124.084 187.862 129.976 183.553 138.276" stroke="#1B3C87" stroke-width="4.78" stroke-linecap="round" stroke-linejoin="round"/>
<path d="M126.918 225.343C133.872 225.343 139.509 219.706 139.509 212.752C139.509 205.799 133.872 200.162 126.918 200.162C119.963 200.162 114.326 205.799 114.326 212.752C114.326 219.706 119.963 225.343 126.918 225.343Z" fill="white"/>
<path d="M119.643 199.054C121.591 198.194 123.726 197.842 125.848 198.03C127.97 198.218 130.01 198.941 131.776 200.131" stroke="#1B3C87" stroke-width="4.78" stroke-linecap="round" stroke-linejoin="round"/>
<path d="M128.304 222.652C126.153 223.282 123.872 223.327 121.698 222.781C119.523 222.236 117.533 221.121 115.933 219.55C114.334 217.98 113.182 216.011 112.596 213.847C112.011 211.684 112.013 209.403 112.603 207.24" stroke="#1B3C87" stroke-width="4.78" stroke-linecap="round" stroke-linejoin="round"/>
</svg>
