<svg width="69" height="69" viewBox="0 0 69 69" fill="none" xmlns="http://www.w3.org/2000/svg">
<circle cx="34.5" cy="34.5" r="34" fill="white" stroke="#333333"/>
<path d="M41.4058 30.0343C42.2011 30.0343 42.8458 29.3896 42.8458 28.5943C42.8458 27.799 42.2011 27.1543 41.4058 27.1543C40.6105 27.1543 39.9658 27.799 39.9658 28.5943C39.9658 29.3896 40.6105 30.0343 41.4058 30.0343Z" fill="#0B132B"/>
<path d="M34.9999 28.8379C33.7812 28.8379 32.5898 29.1993 31.5765 29.8764C30.5631 30.5535 29.7733 31.5158 29.3069 32.6418C28.8406 33.7678 28.7185 35.0067 28.9563 36.202C29.1941 37.3973 29.7809 38.4953 30.6427 39.3571C31.5045 40.2189 32.6024 40.8057 33.7977 41.0435C34.9931 41.2812 36.232 41.1592 37.358 40.6928C38.4839 40.2264 39.4463 39.4366 40.1234 38.4233C40.8005 37.41 41.1619 36.2186 41.1619 34.9999C41.1619 33.3656 40.5127 31.7983 39.3571 30.6427C38.2015 29.4871 36.6342 28.8379 34.9999 28.8379ZM34.9999 38.9999C34.2088 38.9999 33.4354 38.7653 32.7776 38.3258C32.1198 37.8862 31.6071 37.2615 31.3044 36.5306C31.0016 35.7997 30.9224 34.9955 31.0768 34.2195C31.2311 33.4436 31.6121 32.7309 32.1715 32.1715C32.7309 31.6121 33.4436 31.2311 34.2195 31.0767C34.9955 30.9224 35.7997 31.0016 36.5306 31.3044C37.2615 31.6071 37.8862 32.1198 38.3258 32.7776C38.7653 33.4354 38.9999 34.2088 38.9999 34.9999C38.9999 36.0608 38.5785 37.0782 37.8283 37.8283C37.0782 38.5785 36.0608 38.9999 34.9999 38.9999Z" fill="#0B132B"/>
<path d="M35 25.162C38.204 25.162 38.584 25.174 39.849 25.232C40.6098 25.241 41.3635 25.3807 42.077 25.645C42.5947 25.8447 43.0648 26.1505 43.4571 26.5429C43.8495 26.9352 44.1553 27.4053 44.355 27.923C44.6193 28.6365 44.759 29.3902 44.768 30.151C44.826 31.416 44.838 31.796 44.838 35.001C44.838 38.206 44.826 38.584 44.768 39.849C44.759 40.6098 44.6193 41.3635 44.355 42.077C44.1553 42.5947 43.8495 43.0648 43.4571 43.4571C43.0648 43.8495 42.5947 44.1553 42.077 44.355C41.3635 44.6193 40.6098 44.759 39.849 44.768C38.584 44.826 38.204 44.838 35 44.838C31.796 44.838 31.416 44.826 30.151 44.768C29.3902 44.759 28.6365 44.6193 27.923 44.355C27.4053 44.1553 26.9352 43.8495 26.5429 43.4571C26.1505 43.0648 25.8447 42.5947 25.645 42.077C25.3807 41.3635 25.241 40.6098 25.232 39.849C25.174 38.584 25.162 38.204 25.162 35C25.162 31.796 25.174 31.416 25.232 30.151C25.241 29.3902 25.3807 28.6365 25.645 27.923C25.8447 27.4053 26.1505 26.9352 26.5429 26.5429C26.9352 26.1505 27.4053 25.8447 27.923 25.645C28.6365 25.3807 29.3902 25.241 30.151 25.232C31.416 25.174 31.796 25.162 35 25.162ZM35 23C31.741 23 31.332 23.014 30.052 23.072C29.0568 23.0921 28.0722 23.2808 27.14 23.63C26.3427 23.9383 25.6187 24.4098 25.0142 25.0142C24.4098 25.6187 23.9383 26.3427 23.63 27.14C23.2807 28.0725 23.092 29.0574 23.072 30.053C23.014 31.333 23 31.74 23 35C23 38.26 23.014 38.668 23.072 39.948C23.0921 40.9432 23.2808 41.9278 23.63 42.86C23.9383 43.6573 24.4098 44.3813 25.0142 44.9858C25.6187 45.5902 26.3427 46.0617 27.14 46.37C28.0725 46.7193 29.0574 46.908 30.053 46.928C31.333 46.986 31.741 47 35 47C38.259 47 38.668 46.986 39.948 46.928C40.9436 46.908 41.9285 46.7193 42.861 46.37C43.6583 46.0617 44.3823 45.5902 44.9868 44.9858C45.5912 44.3813 46.0627 43.6573 46.371 42.86C46.72 41.9275 46.9083 40.9425 46.928 39.947C46.986 38.667 47 38.26 47 35C47 31.74 46.986 31.332 46.928 30.052C46.9079 29.0568 46.7192 28.0722 46.37 27.14C46.0617 26.3427 45.5902 25.6187 44.9858 25.0142C44.3813 24.4098 43.6573 23.9383 42.86 23.63C41.9275 23.281 40.9425 23.0927 39.947 23.073C38.667 23.013 38.26 23 35 23Z" fill="#0B132B"/>
</svg>
