<svg width="69" height="69" viewBox="0 0 69 69" fill="none" xmlns="http://www.w3.org/2000/svg">
<circle cx="34.5" cy="34.5" r="34" fill="white" stroke="#333333"/>
<g clip-path="url(#clip0)">
<path d="M50.9998 25.0798C50.1087 26.4056 49.0154 27.5357 47.7201 28.4703C47.7329 28.7209 47.7393 29.0042 47.7393 29.3201C47.7393 31.0755 47.4834 32.833 46.9717 34.5927C46.4599 36.3523 45.6782 38.0367 44.6266 39.6456C43.575 41.2546 42.3223 42.6799 40.8686 43.9218C39.4149 45.1636 37.6674 46.1538 35.6262 46.8923C33.585 47.6308 31.3975 48 29.0634 48C25.4208 48 22.0664 47.0164 19 45.0492C19.5442 45.1098 20.0662 45.1401 20.5659 45.1401C23.609 45.1401 26.327 44.2025 28.7199 42.3275C27.301 42.3015 26.0303 41.8646 24.9078 41.0168C23.7852 40.1691 23.0127 39.0859 22.5902 37.7672C23.0078 37.8467 23.42 37.8865 23.8267 37.8865C24.4121 37.8865 24.9881 37.8101 25.5548 37.6574C24.0406 37.354 22.7844 36.5997 21.7863 35.3943C20.7883 34.189 20.2892 32.7978 20.2892 31.2207V31.1395C21.2186 31.6542 22.21 31.928 23.2633 31.9609C22.3663 31.3627 21.6552 30.5827 21.1298 29.6209C20.6044 28.659 20.3417 27.6182 20.3417 26.4982C20.3417 25.3171 20.6376 24.2172 21.2294 23.1986C22.876 25.2198 24.8713 26.8352 27.2152 28.0448C29.5591 29.2544 32.0737 29.9262 34.7589 30.0602C34.6444 29.5828 34.587 29.0846 34.5868 28.5656C34.5868 26.7534 35.228 25.2061 36.5102 23.9237C37.7925 22.6412 39.3395 22 41.1512 22C43.048 22 44.6457 22.6908 45.9442 24.0725C47.4279 23.7785 48.8172 23.2468 50.1119 22.4774C49.6131 24.0476 48.6519 25.259 47.2283 26.1114C48.5367 25.9559 49.7939 25.612 50.9997 25.0798H50.9998Z" fill="#0B132B"/>
</g>
<defs>
<clipPath id="clip0">
<rect width="32" height="26" fill="white" transform="translate(19 22)"/>
</clipPath>
</defs>
</svg>
