<svg width="353" height="125" viewBox="0 0 353 125" fill="none" xmlns="http://www.w3.org/2000/svg">
<path fill-rule="evenodd" clip-rule="evenodd" d="M204.269 -387.168C250.142 -399.975 307.251 -379.886 336.779 -338.762C367.33 -296.214 339.158 -231.282 353.574 -179.23C363.734 -142.543 404.077 -121.47 407.539 -83.273C411.05 -44.5269 394.07 -5.69971 372.039 24.5514C351.352 52.9577 317.873 62.6809 288.82 79.7469C260.901 96.1465 235.519 118.124 204.269 123.1C170.511 128.476 136.563 122.016 104.494 109.101C68.1438 94.4618 24.9274 81.6422 6.86263 43.5988C-11.2263 5.50427 12.0392 -40.2017 13.1465 -83.273C14.2162 -124.881 -4.42014 -169.354 13.28 -206.021C31.0156 -242.76 76.7609 -247.081 105.281 -274.131C141.885 -308.849 157.625 -374.146 204.269 -387.168Z" fill="#B2F7EF"/>
</svg>
