<svg width="261" height="41" viewBox="0 0 261 41" fill="none" xmlns="http://www.w3.org/2000/svg">
<path d="M22.89 7.002C23.226 8.15 23.59 9.452 23.982 10.908C24.402 12.336 24.836 13.82 25.284 15.36C25.76 16.9 26.236 18.44 26.712 19.98C27.188 21.52 27.65 22.948 28.098 24.264C28.462 22.836 28.826 21.282 29.19 19.602C29.582 17.922 29.946 16.186 30.282 14.394C30.618 12.602 30.94 10.824 31.248 9.06C31.584 7.268 31.892 5.546 32.172 3.894H38.976C37.996 8.766 36.862 13.708 35.574 18.72C34.314 23.732 32.942 28.492 31.458 33H25.452C24.472 30.312 23.52 27.498 22.596 24.558C21.672 21.59 20.762 18.622 19.866 15.654C18.97 18.622 18.074 21.59 17.178 24.558C16.282 27.498 15.344 30.312 14.364 33H8.358C6.874 28.492 5.488 23.732 4.2 18.72C2.94 13.708 1.82 8.766 0.84 3.894H7.938C8.218 5.546 8.526 7.268 8.862 9.06C9.198 10.824 9.548 12.602 9.912 14.394C10.276 16.186 10.64 17.922 11.004 19.602C11.396 21.282 11.788 22.836 12.18 24.264C12.684 22.892 13.174 21.436 13.65 19.896C14.126 18.356 14.588 16.816 15.036 15.276C15.484 13.736 15.89 12.252 16.254 10.824C16.646 9.396 16.996 8.122 17.304 7.002H22.89ZM42.7662 33V1.416L49.0242 0.407999V10.992C49.4442 10.852 49.9762 10.726 50.6202 10.614C51.2922 10.474 51.9362 10.404 52.5522 10.404C54.3442 10.404 55.8282 10.656 57.0042 11.16C58.2082 11.636 59.1602 12.322 59.8602 13.218C60.5882 14.114 61.0922 15.178 61.3722 16.41C61.6802 17.642 61.8342 19.014 61.8342 20.526V33H55.5762V21.282C55.5762 19.266 55.3102 17.838 54.7782 16.998C54.2742 16.158 53.3222 15.738 51.9222 15.738C51.3622 15.738 50.8302 15.794 50.3262 15.906C49.8502 15.99 49.4162 16.088 49.0242 16.2V33H42.7662ZM86.4563 10.908C85.1963 15.164 83.8803 19.154 82.5083 22.878C81.1363 26.602 79.6383 30.214 78.0143 33.714C77.4263 34.974 76.8383 36.038 76.2503 36.906C75.6623 37.802 75.0183 38.53 74.3183 39.09C73.6183 39.678 72.8203 40.098 71.9243 40.35C71.0563 40.63 70.0343 40.77 68.8583 40.77C67.8783 40.77 66.9683 40.672 66.1283 40.476C65.3163 40.308 64.6443 40.112 64.1123 39.888L65.2043 34.89C65.8483 35.114 66.4223 35.268 66.9263 35.352C67.4303 35.436 67.9623 35.478 68.5223 35.478C69.6423 35.478 70.4963 35.17 71.0843 34.554C71.7003 33.966 72.2183 33.14 72.6383 32.076C71.2103 29.276 69.7823 26.14 68.3543 22.668C66.9263 19.168 65.5823 15.248 64.3223 10.908H70.9583C71.2383 12 71.5603 13.19 71.9243 14.478C72.3163 15.738 72.7223 17.026 73.1423 18.342C73.5623 19.63 73.9823 20.89 74.4023 22.122C74.8503 23.354 75.2703 24.474 75.6623 25.482C76.0263 24.474 76.4043 23.354 76.7963 22.122C77.1883 20.89 77.5663 19.63 77.9303 18.342C78.3223 17.026 78.6863 15.738 79.0223 14.478C79.3863 13.19 79.7083 12 79.9883 10.908H86.4563ZM108.049 3.894C108.553 4.818 109.127 5.966 109.771 7.338C110.443 8.682 111.129 10.152 111.829 11.748C112.557 13.316 113.271 14.926 113.971 16.578C114.671 18.23 115.329 19.784 115.945 21.24C116.561 19.784 117.219 18.23 117.919 16.578C118.619 14.926 119.319 13.316 120.019 11.748C120.747 10.152 121.433 8.682 122.077 7.338C122.749 5.966 123.337 4.818 123.841 3.894H129.805C130.085 5.826 130.337 7.996 130.561 10.404C130.813 12.784 131.023 15.276 131.191 17.88C131.387 20.456 131.555 23.046 131.695 25.65C131.863 28.254 132.003 30.704 132.115 33H125.731C125.647 30.172 125.535 27.092 125.395 23.76C125.255 20.428 125.045 17.068 124.765 13.68C124.261 14.856 123.701 16.158 123.085 17.586C122.469 19.014 121.853 20.442 121.237 21.87C120.649 23.298 120.075 24.67 119.515 25.986C118.955 27.274 118.479 28.38 118.087 29.304H113.509C113.117 28.38 112.641 27.274 112.081 25.986C111.521 24.67 110.933 23.298 110.317 21.87C109.729 20.442 109.127 19.014 108.511 17.586C107.895 16.158 107.335 14.856 106.831 13.68C106.551 17.068 106.341 20.428 106.201 23.76C106.061 27.092 105.949 30.172 105.865 33H99.4809C99.5929 30.704 99.7189 28.254 99.8589 25.65C100.027 23.046 100.195 20.456 100.363 17.88C100.559 15.276 100.769 12.784 100.993 10.404C101.245 7.996 101.511 5.826 101.791 3.894H108.049ZM157.208 10.908C155.948 15.164 154.632 19.154 153.26 22.878C151.888 26.602 150.39 30.214 148.766 33.714C148.178 34.974 147.59 36.038 147.002 36.906C146.414 37.802 145.77 38.53 145.07 39.09C144.37 39.678 143.572 40.098 142.676 40.35C141.808 40.63 140.786 40.77 139.61 40.77C138.63 40.77 137.72 40.672 136.88 40.476C136.068 40.308 135.396 40.112 134.864 39.888L135.956 34.89C136.6 35.114 137.174 35.268 137.678 35.352C138.182 35.436 138.714 35.478 139.274 35.478C140.394 35.478 141.248 35.17 141.836 34.554C142.452 33.966 142.97 33.14 143.39 32.076C141.962 29.276 140.534 26.14 139.106 22.668C137.678 19.168 136.334 15.248 135.074 10.908H141.71C141.99 12 142.312 13.19 142.676 14.478C143.068 15.738 143.474 17.026 143.894 18.342C144.314 19.63 144.734 20.89 145.154 22.122C145.602 23.354 146.022 24.474 146.414 25.482C146.778 24.474 147.156 23.354 147.548 22.122C147.94 20.89 148.318 19.63 148.682 18.342C149.074 17.026 149.438 15.738 149.774 14.478C150.138 13.19 150.46 12 150.74 10.908H157.208ZM169.509 3.558C173.877 3.558 177.223 4.342 179.547 5.91C181.871 7.45 183.033 9.858 183.033 13.134C183.033 15.178 182.557 16.844 181.605 18.132C180.681 19.392 179.337 20.386 177.573 21.114C178.161 21.842 178.777 22.682 179.421 23.634C180.065 24.558 180.695 25.538 181.311 26.574C181.955 27.582 182.571 28.646 183.159 29.766C183.747 30.858 184.293 31.936 184.797 33H177.447C176.915 32.048 176.369 31.082 175.809 30.102C175.277 29.122 174.717 28.17 174.129 27.246C173.569 26.322 173.009 25.454 172.449 24.642C171.889 23.802 171.329 23.046 170.769 22.374H167.535V33H160.983V4.314C162.411 4.034 163.881 3.838 165.393 3.726C166.933 3.614 168.305 3.558 169.509 3.558ZM169.887 9.144C169.411 9.144 168.977 9.158 168.585 9.186C168.221 9.214 167.871 9.242 167.535 9.27V17.166H169.383C171.847 17.166 173.611 16.858 174.675 16.242C175.739 15.626 176.271 14.576 176.271 13.092C176.271 11.664 175.725 10.656 174.633 10.068C173.569 9.452 171.987 9.144 169.887 9.144ZM195.952 28.632C196.568 28.632 197.156 28.618 197.716 28.59C198.276 28.562 198.724 28.52 199.06 28.464V23.718C198.808 23.662 198.43 23.606 197.926 23.55C197.422 23.494 196.96 23.466 196.54 23.466C195.952 23.466 195.392 23.508 194.86 23.592C194.356 23.648 193.908 23.774 193.516 23.97C193.124 24.166 192.816 24.432 192.592 24.768C192.368 25.104 192.256 25.524 192.256 26.028C192.256 27.008 192.578 27.694 193.222 28.086C193.894 28.45 194.804 28.632 195.952 28.632ZM195.448 10.32C197.296 10.32 198.836 10.53 200.068 10.95C201.3 11.37 202.28 11.972 203.008 12.756C203.764 13.54 204.296 14.492 204.604 15.612C204.912 16.732 205.066 17.978 205.066 19.35V32.37C204.17 32.566 202.924 32.79 201.328 33.042C199.732 33.322 197.8 33.462 195.532 33.462C194.104 33.462 192.802 33.336 191.626 33.084C190.478 32.832 189.484 32.426 188.644 31.866C187.804 31.278 187.16 30.522 186.712 29.598C186.264 28.674 186.04 27.54 186.04 26.196C186.04 24.908 186.292 23.816 186.796 22.92C187.328 22.024 188.028 21.31 188.896 20.778C189.764 20.246 190.758 19.868 191.878 19.644C192.998 19.392 194.16 19.266 195.364 19.266C196.176 19.266 196.89 19.308 197.506 19.392C198.15 19.448 198.668 19.532 199.06 19.644V19.056C199.06 17.992 198.738 17.138 198.094 16.494C197.45 15.85 196.33 15.528 194.734 15.528C193.67 15.528 192.62 15.612 191.584 15.78C190.548 15.92 189.652 16.13 188.896 16.41L188.098 11.37C188.462 11.258 188.91 11.146 189.442 11.034C190.002 10.894 190.604 10.782 191.248 10.698C191.892 10.586 192.564 10.502 193.264 10.446C193.992 10.362 194.72 10.32 195.448 10.32ZM210.515 5.406L216.773 4.398V10.908H224.291V16.116H216.773V23.886C216.773 25.202 216.997 26.252 217.445 27.036C217.921 27.82 218.859 28.212 220.259 28.212C220.931 28.212 221.617 28.156 222.317 28.044C223.045 27.904 223.703 27.722 224.291 27.498L225.173 32.37C224.417 32.678 223.577 32.944 222.653 33.168C221.729 33.392 220.595 33.504 219.251 33.504C217.543 33.504 216.129 33.28 215.009 32.832C213.889 32.356 212.993 31.712 212.321 30.9C211.649 30.06 211.173 29.052 210.893 27.876C210.641 26.7 210.515 25.398 210.515 23.97V5.406ZM235.645 33H229.387V10.908H235.645V33ZM236.233 4.524C236.233 5.672 235.855 6.582 235.099 7.254C234.371 7.898 233.503 8.22 232.495 8.22C231.487 8.22 230.605 7.898 229.849 7.254C229.121 6.582 228.757 5.672 228.757 4.524C228.757 3.376 229.121 2.48 229.849 1.836C230.605 1.164 231.487 0.827999 232.495 0.827999C233.503 0.827999 234.371 1.164 235.099 1.836C235.855 2.48 236.233 3.376 236.233 4.524ZM241.528 11.664C242.592 11.356 243.964 11.076 245.644 10.824C247.324 10.544 249.088 10.404 250.936 10.404C252.812 10.404 254.366 10.656 255.598 11.16C256.858 11.636 257.852 12.322 258.58 13.218C259.308 14.114 259.826 15.178 260.134 16.41C260.442 17.642 260.596 19.014 260.596 20.526V33H254.338V21.282C254.338 19.266 254.072 17.838 253.54 16.998C253.008 16.158 252.014 15.738 250.558 15.738C250.11 15.738 249.634 15.766 249.13 15.822C248.626 15.85 248.178 15.892 247.786 15.948V33H241.528V11.664Z" fill="white"/>
</svg>
